<svg width="50" height="50" viewBox="0 0 50 50" fill="none" xmlns="http://www.w3.org/2000/svg">
<path d="M41.9999 32.0097C41.9999 30.0201 41.4041 28.0991 40.2768 26.4541C39.466 25.271 38.4219 24.2884 37.2119 23.5583C38.6364 22.2092 39.5278 20.3024 39.5278 18.1901C39.5278 14.1113 36.2094 10.793 32.1308 10.793C29.7123 10.793 27.4467 11.9891 26.0706 13.9526C25.7209 13.9017 25.3636 13.8742 25 13.8742C24.6363 13.8742 24.2791 13.9018 23.9294 13.9526C22.5532 11.9891 20.2877 10.793 17.8692 10.793C13.7905 10.793 10.4721 14.1113 10.4721 18.1901C10.4721 20.3024 11.3635 22.2092 12.7881 23.5583C11.5781 24.2883 10.5339 25.271 9.72317 26.454C8.59587 28.0991 8 30.0201 8 32.0097V36.1241H15.1308V39.2052H34.8693V36.1241H42V32.0097H41.9999ZM32.1308 12.6186C35.2029 12.6186 37.7022 15.118 37.7022 18.1902C37.7022 21.2623 35.2029 23.7617 32.1308 23.7617C32.0757 23.7617 32.0207 23.7608 31.9656 23.7592C31.9698 23.7475 31.9732 23.7356 31.9773 23.7239C32.0725 23.4542 32.1518 23.1773 32.2154 22.8944C32.2199 22.8743 32.225 22.8544 32.2293 22.8343C32.2458 22.758 32.2603 22.6809 32.2745 22.6037C32.2811 22.5672 32.288 22.5308 32.2941 22.4942C32.3056 22.4252 32.316 22.3561 32.3256 22.2866C32.3322 22.2383 32.3383 22.19 32.344 22.1416C32.3512 22.0803 32.3583 22.0189 32.364 21.9571C32.3698 21.894 32.3742 21.8308 32.3784 21.7676C32.3817 21.7177 32.3858 21.6681 32.3881 21.618C32.3931 21.5105 32.396 21.4029 32.3963 21.2952C32.3963 21.2873 32.397 21.2795 32.397 21.2715C32.397 21.2672 32.3966 21.2629 32.3966 21.2586C32.3964 21.1486 32.3932 21.0393 32.3883 20.9303C32.3868 20.8986 32.3849 20.867 32.3831 20.8354C32.3777 20.7428 32.3707 20.6506 32.362 20.5589C32.36 20.538 32.3583 20.5172 32.3562 20.4965C32.0804 17.8303 30.396 15.5483 27.9662 14.4927C29.0132 13.3164 30.5277 12.6186 32.1308 12.6186ZM23.0722 16.0436C23.09 16.0371 23.108 16.031 23.1258 16.0246C23.1812 16.0048 23.2371 15.986 23.2932 15.9679C23.3357 15.9543 23.3786 15.9411 23.4216 15.9285C23.453 15.9193 23.4844 15.9105 23.5158 15.9017C23.5721 15.8863 23.6286 15.8712 23.6856 15.8574C24.1073 15.755 24.5471 15.6994 24.9998 15.6994C25.4528 15.6998 25.8928 15.7555 26.3146 15.8579C26.3712 15.8716 26.4274 15.8865 26.4833 15.9019C26.5153 15.9107 26.5472 15.9197 26.5789 15.9291C26.6214 15.9416 26.6638 15.9545 26.7059 15.968C26.7627 15.9863 26.8192 16.0053 26.8753 16.0254C26.8925 16.0315 26.9098 16.0373 26.927 16.0436C28.7902 16.7327 30.1873 18.391 30.5035 20.4034C30.5059 20.4195 30.5083 20.4356 30.5107 20.4518C30.5208 20.52 30.5293 20.5887 30.5369 20.6576C30.5396 20.683 30.5425 20.7083 30.545 20.7337C30.551 20.7966 30.5555 20.86 30.5595 20.9235C30.5611 20.9507 30.5634 20.9778 30.5647 21.0051C30.5685 21.0863 30.5706 21.1679 30.5709 21.2499C30.5709 21.257 30.5714 21.264 30.5714 21.2711C30.5714 21.2744 30.5712 21.2778 30.5712 21.2811C30.571 21.3605 30.5686 21.4393 30.5652 21.5179C30.5641 21.5427 30.563 21.5674 30.5615 21.592C30.5572 21.668 30.5516 21.7436 30.5443 21.8186C30.5414 21.8476 30.5376 21.8766 30.5343 21.9055C30.5287 21.9541 30.5225 22.0025 30.5158 22.0507C30.5105 22.0882 30.5052 22.1258 30.4992 22.1632C30.49 22.22 30.4797 22.2765 30.4688 22.3329C30.459 22.383 30.4483 22.4329 30.4372 22.4827C30.4305 22.5128 30.4236 22.5428 30.4164 22.5727C30.3986 22.6467 30.379 22.7203 30.3582 22.7936C30.3499 22.8227 30.3422 22.852 30.3334 22.8808C30.3207 22.9228 30.307 22.9644 30.2934 23.0061C30.2825 23.0394 30.2712 23.0725 30.2597 23.1055C30.2465 23.1431 30.2335 23.1807 30.2197 23.2179C30.196 23.2812 30.1712 23.3439 30.1454 23.406C30.1339 23.4338 30.1216 23.4613 30.1097 23.4889C30.0871 23.5407 30.0639 23.5922 30.0399 23.6431C30.037 23.6491 30.0342 23.6551 30.0314 23.6612C30.0227 23.6792 30.0141 23.6974 30.0053 23.7155C29.9782 23.7706 29.9501 23.8251 29.9213 23.8791C29.9101 23.9001 29.8992 23.9214 29.8877 23.9423C29.887 23.9437 29.8862 23.945 29.8855 23.9462C29.8539 24.0037 29.821 24.0603 29.7875 24.1166C29.7741 24.1388 29.761 24.1612 29.7474 24.1832C29.7109 24.2424 29.6734 24.301 29.6348 24.3587C29.6107 24.3946 29.5856 24.4297 29.5608 24.4651C29.5397 24.495 29.5187 24.525 29.4971 24.5545C29.4691 24.5927 29.4405 24.6304 29.4115 24.6679C29.3918 24.6934 29.3719 24.7186 29.3518 24.7438C29.3211 24.7822 29.2902 24.8203 29.2586 24.8578C29.239 24.8811 29.2188 24.9039 29.1988 24.9268C29.1659 24.9645 29.1332 25.0023 29.0994 25.0391C29.0793 25.0609 29.0585 25.0819 29.0381 25.1035C28.9831 25.1614 28.9269 25.2181 28.8696 25.2737C28.8355 25.3067 28.8016 25.3397 28.7668 25.3717C28.7427 25.3939 28.7179 25.4155 28.6934 25.4373C28.6534 25.4728 28.6132 25.5079 28.5722 25.5422C28.5514 25.5597 28.5304 25.5769 28.5093 25.5941C28.4597 25.6344 28.4095 25.674 28.3585 25.7127C28.3446 25.7232 28.3309 25.7338 28.317 25.7442C27.3896 26.4337 26.2416 26.8423 24.9999 26.8423C23.758 26.8423 22.6099 26.4336 21.6825 25.744C21.6688 25.7338 21.6554 25.7233 21.6418 25.7129C21.5906 25.6741 21.5401 25.6343 21.4904 25.5938C21.4695 25.5768 21.4485 25.5597 21.4279 25.5423C21.3868 25.5078 21.3464 25.4725 21.3062 25.4369C21.2819 25.4152 21.2572 25.3938 21.2332 25.3717C21.1983 25.3396 21.1643 25.3065 21.1302 25.2735C21.0726 25.2178 21.0163 25.1609 20.9611 25.1027C20.9409 25.0815 20.9203 25.0608 20.9005 25.0392C20.8666 25.0023 20.8339 24.9645 20.801 24.9268C20.781 24.9038 20.7609 24.8811 20.7413 24.8578C20.7096 24.8203 20.6788 24.7822 20.6481 24.7439C20.628 24.7187 20.608 24.6934 20.5883 24.6679C20.5594 24.6305 20.5308 24.5928 20.5028 24.5546C20.4812 24.525 20.4601 24.4949 20.439 24.4649C20.4142 24.4296 20.3892 24.3946 20.3652 24.3588C20.3265 24.3009 20.2888 24.2421 20.2522 24.1826C20.2387 24.1608 20.2258 24.1388 20.2126 24.1168C20.1786 24.0598 20.1453 24.0025 20.1132 23.9441C20.1014 23.9227 20.0903 23.9009 20.0787 23.8793C20.0499 23.8251 20.0217 23.7704 19.9946 23.7152C19.9849 23.6956 19.9755 23.6758 19.9661 23.6561C19.9646 23.653 19.9633 23.65 19.9619 23.647C19.9366 23.5937 19.9124 23.5399 19.8888 23.4855C19.8775 23.4597 19.8661 23.434 19.8554 23.408C19.8289 23.3445 19.8036 23.2804 19.7794 23.2158C19.7664 23.1809 19.7543 23.1457 19.742 23.1106C19.7293 23.0745 19.7171 23.0382 19.7051 23.0018C19.6922 22.9623 19.6793 22.9229 19.6672 22.8833C19.6493 22.824 19.6323 22.7644 19.6163 22.7045C19.6051 22.6624 19.5949 22.6199 19.5846 22.5776C19.5766 22.5443 19.5688 22.511 19.5614 22.4775C19.5523 22.4364 19.5431 22.3954 19.5349 22.3541C19.5222 22.2899 19.5106 22.2252 19.5002 22.1603C19.4945 22.1252 19.4896 22.0901 19.4846 22.055C19.4772 22.0031 19.4705 21.9509 19.4646 21.8985C19.4617 21.8726 19.4583 21.8468 19.4556 21.821C19.4481 21.744 19.4423 21.6665 19.4379 21.5888C19.4367 21.5664 19.4357 21.544 19.4347 21.5217C19.4309 21.4385 19.4283 21.3551 19.4283 21.2711C19.4283 21.1811 19.4308 21.0917 19.4351 21.0027C19.4363 20.9786 19.4383 20.9545 19.4397 20.9305C19.4437 20.8636 19.4485 20.797 19.4549 20.7307C19.4571 20.7076 19.4598 20.6846 19.4622 20.6616C19.4701 20.5899 19.4789 20.5185 19.4895 20.4476C19.4915 20.4338 19.4935 20.4199 19.4957 20.4061C19.8109 18.3925 21.2082 16.7332 23.0722 16.0436ZM12.2977 18.1902C12.2977 15.1181 14.797 12.6186 17.8692 12.6186C19.4724 12.6186 20.9868 13.3165 22.0338 14.4925C19.6032 15.5484 17.9184 17.8316 17.6434 20.4989C17.6415 20.517 17.6401 20.5351 17.6384 20.5533C17.6292 20.6483 17.622 20.7437 17.6166 20.8396C17.6149 20.8688 17.6131 20.898 17.6117 20.9273C17.6065 21.0414 17.603 21.156 17.603 21.2714C17.603 21.3879 17.6063 21.5041 17.6118 21.6202C17.614 21.6669 17.6178 21.7132 17.6208 21.7596C17.6253 21.8264 17.6299 21.8933 17.6361 21.9599C17.6416 22.0191 17.6483 22.078 17.6553 22.1369C17.6613 22.1882 17.6677 22.2393 17.6748 22.2904C17.6841 22.3575 17.6941 22.4243 17.7052 22.4909C17.7118 22.5304 17.7191 22.5698 17.7264 22.6093C17.7401 22.6837 17.754 22.758 17.7699 22.8317C17.7752 22.856 17.7812 22.8801 17.7867 22.9043C17.8487 23.1784 17.9256 23.4467 18.0173 23.7084C18.0231 23.7253 18.0282 23.7424 18.0342 23.7592C17.9791 23.7608 17.924 23.7617 17.869 23.7617C14.797 23.7616 12.2977 21.2623 12.2977 18.1902ZM16.6613 29.8284C16.6412 29.86 16.6221 29.8923 16.6023 29.9241C16.5606 29.9915 16.5193 30.059 16.4793 30.1272C16.4569 30.1653 16.4354 30.2036 16.4137 30.2419C16.3777 30.3052 16.3422 30.3686 16.3077 30.4326C16.286 30.4729 16.2646 30.5133 16.2434 30.5538C16.2102 30.6174 16.1778 30.6814 16.146 30.7455C16.1261 30.7859 16.1062 30.8261 16.0868 30.8667C16.0545 30.9343 16.0234 31.0025 15.9926 31.0708C15.9759 31.1079 15.9587 31.1448 15.9426 31.1821C15.907 31.2639 15.873 31.3463 15.8397 31.429C15.8299 31.4532 15.8195 31.4771 15.81 31.5013C15.7678 31.6088 15.7273 31.7169 15.689 31.8256C15.6802 31.8506 15.6724 31.8758 15.6637 31.9007C15.6349 31.9845 15.6068 32.0685 15.5802 32.153C15.5681 32.1918 15.5568 32.2307 15.5452 32.2696C15.5237 32.3412 15.5026 32.4128 15.4828 32.485C15.471 32.5279 15.4598 32.5708 15.4486 32.6139C15.4305 32.6831 15.4132 32.7525 15.3967 32.8221C15.3862 32.8662 15.376 32.9103 15.3662 32.9545C15.3505 33.0251 15.3358 33.0959 15.3217 33.1668C15.3132 33.2094 15.3044 33.2521 15.2965 33.2949C15.2822 33.3721 15.2693 33.4497 15.2568 33.5274C15.251 33.5639 15.2445 33.6002 15.239 33.6367C15.222 33.7508 15.2066 33.8652 15.1936 33.9801C15.1935 33.9815 15.1934 33.9828 15.1933 33.9842C15.1815 34.0887 15.1714 34.1934 15.1629 34.2985H9.82559V32.0097C9.82559 28.8826 11.6232 26.0753 14.4396 24.741C15.4656 25.2803 16.6318 25.5872 17.8691 25.5872C18.2269 25.5872 18.5858 25.5608 18.942 25.5084C18.9975 25.5875 19.0539 25.6658 19.1123 25.7427C19.1321 25.7685 19.1525 25.7937 19.1726 25.8193C19.2303 25.893 19.2888 25.966 19.3492 26.0374C19.374 26.0667 19.3993 26.0954 19.4245 26.1243C19.4811 26.1893 19.5386 26.2535 19.5974 26.3164C19.6283 26.3495 19.6597 26.3821 19.6911 26.4147C19.7448 26.4701 19.7993 26.5247 19.8547 26.5785C19.8755 26.5986 19.8952 26.62 19.9162 26.64C19.8368 26.6879 19.7582 26.737 19.6804 26.7871C19.6677 26.7952 19.6553 26.8038 19.6427 26.812C19.5648 26.8626 19.4878 26.9143 19.4115 26.9669C19.3851 26.9852 19.3588 27.0036 19.3325 27.0221C19.2645 27.07 19.1972 27.1187 19.1305 27.1683C19.1094 27.184 19.0881 27.1993 19.0672 27.2152C18.9823 27.2794 18.8984 27.3447 18.8156 27.4116C18.7975 27.4262 18.7798 27.4412 18.7617 27.456C18.6958 27.51 18.6306 27.5648 18.5661 27.6205C18.5411 27.642 18.5163 27.6638 18.4915 27.6856C18.4269 27.7424 18.3632 27.8001 18.3001 27.8586C18.2837 27.8739 18.2669 27.8889 18.2506 27.9043C18.1732 27.9771 18.097 28.0513 18.0218 28.1268C18.0023 28.1464 17.9832 28.1664 17.9639 28.1862C17.9064 28.2448 17.8495 28.3042 17.7934 28.3643C17.7711 28.3882 17.7488 28.4122 17.7267 28.4364C17.6636 28.5054 17.6013 28.5753 17.5401 28.6462C17.5305 28.6573 17.5205 28.6681 17.5109 28.6793C17.4411 28.7608 17.3728 28.8439 17.3055 28.9278C17.2867 28.9512 17.2683 28.9749 17.2498 28.9985C17.1991 29.0629 17.1492 29.1279 17.1001 29.1935C17.0811 29.2189 17.062 29.2441 17.0433 29.2696C16.9791 29.3573 16.9156 29.4456 16.854 29.5355C16.7878 29.6321 16.7237 29.7299 16.6613 29.8284ZM16.9564 37.3797V36.1242V35.0909C16.9564 34.9896 16.9583 34.8886 16.9621 34.7879C16.9633 34.7548 16.9659 34.7219 16.9676 34.6889C16.9708 34.6217 16.9739 34.5544 16.9789 34.4875C16.9819 34.4469 16.9865 34.4067 16.9901 34.3661C16.9954 34.3072 17.0001 34.2481 17.0067 34.1895C17.0116 34.1466 17.0179 34.104 17.0233 34.0612C17.0304 34.0054 17.0371 33.9495 17.0453 33.894C17.052 33.8499 17.06 33.806 17.0673 33.762C17.0763 33.7086 17.0846 33.6549 17.0946 33.6017C17.1031 33.5567 17.113 33.5121 17.1222 33.4673C17.1328 33.4156 17.1429 33.3638 17.1545 33.3125C17.1647 33.2672 17.1764 33.2224 17.1874 33.1773C17.1997 33.1271 17.2115 33.0766 17.2247 33.0267C17.2367 32.9813 17.2501 32.9364 17.2628 32.8914C17.2767 32.8424 17.2902 32.7933 17.305 32.7446C17.3188 32.6994 17.334 32.6545 17.3485 32.6095C17.364 32.5617 17.379 32.5139 17.3954 32.4665C17.4109 32.4217 17.4276 32.3772 17.4439 32.3328C17.461 32.2859 17.4778 32.2388 17.4958 32.1922C17.5129 32.148 17.5312 32.1042 17.549 32.0602C17.5677 32.0143 17.5862 31.9681 17.6057 31.9226C17.6246 31.8787 17.6445 31.8352 17.6641 31.7918C17.6843 31.747 17.7043 31.702 17.7253 31.6576C17.7458 31.6142 17.7673 31.5714 17.7886 31.5284C17.8103 31.4846 17.8318 31.4407 17.8542 31.3974C17.8764 31.3546 17.8995 31.3125 17.9224 31.2702C17.9456 31.2274 17.9685 31.1846 17.9924 31.1422C18.0162 31.1002 18.0408 31.0589 18.0652 31.0174C18.0898 30.9756 18.1143 30.9337 18.1398 30.8922C18.165 30.8511 18.1912 30.8105 18.2172 30.7698C18.2433 30.729 18.2692 30.6882 18.296 30.6479C18.3229 30.6075 18.3504 30.5677 18.378 30.5279C18.4055 30.4882 18.4329 30.4485 18.461 30.4093C18.4893 30.3698 18.5184 30.3309 18.5475 30.292C18.5764 30.2534 18.6051 30.2147 18.6346 30.1767C18.6643 30.1383 18.6948 30.1004 18.7253 30.0624C18.7555 30.0248 18.7858 29.9873 18.8167 29.9502C18.8478 29.913 18.8796 29.8762 18.9113 29.8395C18.943 29.8029 18.9748 29.7663 19.0072 29.7301C19.0396 29.694 19.0727 29.6584 19.1058 29.6228C19.1388 29.5873 19.1719 29.552 19.2055 29.5171C19.2393 29.482 19.2737 29.4475 19.3082 29.4131C19.3426 29.3787 19.3772 29.3445 19.4123 29.3106C19.4473 29.2769 19.4828 29.2437 19.5184 29.2106C19.5542 29.1774 19.5902 29.1442 19.6266 29.1115C19.6629 29.079 19.6996 29.047 19.7366 29.0152C19.7737 28.9831 19.811 28.9513 19.8487 28.9199C19.8862 28.8886 19.9241 28.8579 19.9622 28.8273C20.0007 28.7964 20.0394 28.7659 20.0784 28.7357C20.1171 28.7059 20.156 28.6765 20.1952 28.6473C20.235 28.6176 20.2751 28.5883 20.3156 28.5594C20.3552 28.531 20.3952 28.5031 20.4354 28.4753C20.4767 28.4469 20.5181 28.4189 20.5599 28.3913C20.6006 28.3644 20.6415 28.3379 20.6827 28.3117C20.7253 28.2846 20.7682 28.2578 20.8114 28.2315C20.853 28.2061 20.8949 28.181 20.9371 28.1564C20.9809 28.1307 21.0251 28.1055 21.0696 28.0805C21.1122 28.0566 21.1551 28.033 21.1983 28.0098C21.2434 27.9855 21.289 27.9617 21.3348 27.9381C21.3783 27.9158 21.4219 27.8938 21.4659 27.8722C21.5005 27.8552 21.5354 27.8387 21.5704 27.8222C22.5963 28.3615 23.7628 28.6684 25 28.6684C26.2372 28.6684 27.4036 28.3615 28.4295 27.8222C28.4642 27.8387 28.4989 27.855 28.5332 27.8718C28.5777 27.8937 28.6218 27.916 28.6658 27.9385C28.7111 27.9618 28.7562 27.9853 28.8009 28.0093C28.8445 28.0328 28.8879 28.0567 28.931 28.0809C28.9749 28.1056 29.0185 28.1305 29.0618 28.1558C29.1046 28.1809 29.147 28.2063 29.1892 28.2321C29.2318 28.2581 29.2741 28.2844 29.3161 28.3111C29.3579 28.3377 29.3993 28.3645 29.4405 28.3918C29.4819 28.4191 29.5228 28.4468 29.5636 28.4749C29.6042 28.5029 29.6446 28.5311 29.6847 28.5598C29.7248 28.5884 29.7644 28.6174 29.8038 28.6468C29.8434 28.6762 29.8828 28.7059 29.9217 28.736C29.9604 28.766 29.9988 28.7963 30.0369 28.8268C30.0753 28.8576 30.1134 28.8885 30.1512 28.9199C30.1887 28.9512 30.2258 28.9828 30.2627 29.0147C30.2998 29.0467 30.3368 29.079 30.3733 29.1117C30.4094 29.1441 30.4451 29.177 30.4806 29.2099C30.5166 29.2434 30.5525 29.2769 30.5878 29.311C30.6226 29.3445 30.6568 29.3784 30.6909 29.4125C30.7255 29.4472 30.7602 29.482 30.7943 29.5172C30.8277 29.5519 30.8606 29.5869 30.8934 29.6222C30.9268 29.658 30.9601 29.694 30.9928 29.7304C31.0249 29.7662 31.0564 29.8024 31.0878 29.8388C31.1199 29.8757 31.1519 29.9128 31.1832 29.9504C31.214 29.9872 31.244 30.0245 31.274 30.0619C31.3047 30.1 31.3354 30.1381 31.3653 30.1768C31.3947 30.2147 31.4233 30.2531 31.4519 30.2915C31.4812 30.3306 31.5104 30.3697 31.5388 30.4094C31.5669 30.4483 31.5942 30.4879 31.6215 30.5275C31.6491 30.5675 31.6769 30.6074 31.7038 30.648C31.7304 30.688 31.7562 30.7286 31.7821 30.7691C31.8083 30.8101 31.8346 30.851 31.8601 30.8924C31.8852 30.9334 31.9095 30.975 31.934 31.0165C31.9586 31.0583 31.9835 31.1 32.0073 31.1422C32.0311 31.1844 32.0539 31.2271 32.077 31.2697C32.1 31.3121 32.1232 31.3545 32.1454 31.3973C32.1678 31.4405 32.1892 31.4844 32.2109 31.5282C32.2322 31.5712 32.2538 31.6141 32.2744 31.6575C32.2954 31.7019 32.3153 31.7467 32.3353 31.7914C32.3551 31.8351 32.3751 31.8786 32.3939 31.9227C32.4134 31.9679 32.4316 32.0136 32.4502 32.0592C32.4682 32.1036 32.4867 32.1478 32.5039 32.1925C32.5218 32.2388 32.5385 32.2856 32.5556 32.3323C32.5719 32.377 32.5886 32.4214 32.6042 32.4664C32.6206 32.514 32.6357 32.5621 32.6513 32.61C32.6658 32.6548 32.6808 32.6995 32.6945 32.7446C32.7094 32.7933 32.7228 32.8425 32.7368 32.8915C32.7496 32.9365 32.7629 32.9813 32.7749 33.0267C32.7882 33.0766 32.8 33.127 32.8123 33.1773C32.8233 33.2223 32.8349 33.2672 32.8451 33.3125C32.8567 33.3638 32.8668 33.4155 32.8775 33.4671C32.8867 33.5119 32.8965 33.5566 32.905 33.6017C32.915 33.6544 32.9232 33.7076 32.9321 33.7608C32.9395 33.8052 32.9477 33.8494 32.9544 33.8941C32.9626 33.9492 32.9692 34.0047 32.9763 34.06C32.9819 34.1032 32.9883 34.1461 32.9931 34.1894C32.9997 34.248 33.0044 34.3071 33.0097 34.366C33.0134 34.4066 33.0179 34.4468 33.0209 34.4874C33.026 34.5543 33.029 34.6217 33.0323 34.689C33.0339 34.7219 33.0366 34.7548 33.0377 34.7878C33.0415 34.8885 33.0434 34.9895 33.0434 35.0908V36.124V37.3797H16.9564V37.3797ZM34.8375 34.2985C34.8196 34.0761 34.7939 33.8551 34.7612 33.6355C34.756 33.6008 34.7498 33.5662 34.7442 33.5316C34.7315 33.4521 34.7183 33.3727 34.7036 33.2937C34.6958 33.2521 34.6873 33.2106 34.679 33.1691C34.6647 33.0969 34.6497 33.0249 34.6338 32.9531C34.6241 32.9099 34.614 32.8666 34.6038 32.8235C34.5871 32.753 34.5696 32.6828 34.5513 32.6128C34.5403 32.5704 34.5292 32.528 34.5176 32.4857C34.4976 32.4128 34.4762 32.3404 34.4545 32.268C34.443 32.2298 34.432 32.1916 34.4201 32.1535C34.3931 32.0678 34.3647 31.9826 34.3354 31.8975C34.3272 31.8737 34.3197 31.8497 34.3113 31.826C34.2727 31.7169 34.2323 31.6085 34.1899 31.5007C34.1807 31.4776 34.1708 31.4548 34.1615 31.4317C34.1278 31.348 34.0933 31.2645 34.0572 31.1816C34.0413 31.1448 34.0244 31.1085 34.0079 31.0719C33.9769 31.0029 33.9455 30.9341 33.9128 30.8658C33.8938 30.8259 33.874 30.7862 33.8544 30.7464C33.8224 30.6816 33.7896 30.6171 33.7561 30.5529C33.7351 30.5128 33.714 30.4728 33.6925 30.4329C33.6578 30.3687 33.6222 30.305 33.5861 30.2415C33.5643 30.2033 33.5429 30.1652 33.5207 30.1273C33.4805 30.0588 33.439 29.9909 33.397 29.9232C33.3775 29.8916 33.3585 29.8598 33.3386 29.8285C33.2761 29.73 33.212 29.6322 33.1457 29.5355C33.084 29.4455 33.0206 29.3572 32.9563 29.2695C32.9377 29.2442 32.9187 29.2191 32.8999 29.1939C32.8505 29.1279 32.8004 29.0627 32.7496 28.9981C32.7312 28.9748 32.7131 28.9513 32.6944 28.9282C32.627 28.844 32.5584 28.7608 32.4884 28.6791C32.4793 28.6685 32.4699 28.6582 32.4608 28.6476C32.3991 28.5761 32.3363 28.5056 32.2726 28.4361C32.2507 28.4122 32.2287 28.3885 32.2066 28.3648C32.1502 28.3043 32.093 28.2445 32.0351 28.1855C32.016 28.1661 31.9973 28.1464 31.9781 28.1272C31.9028 28.0516 31.8263 27.9771 31.7487 27.9041C31.7327 27.889 31.7163 27.8744 31.7002 27.8595C31.6368 27.8006 31.5727 27.7426 31.5079 27.6855C31.4833 27.6638 31.4584 27.6422 31.4336 27.6207C31.369 27.5649 31.3037 27.51 31.2377 27.456C31.2197 27.4413 31.2021 27.4263 31.184 27.4116C31.1013 27.3448 31.0175 27.2795 30.9327 27.2154C30.9115 27.1994 30.8899 27.1839 30.8687 27.1681C30.8022 27.1188 30.7353 27.0703 30.6676 27.0226C30.641 27.0039 30.6145 26.9853 30.5878 26.9668C30.5122 26.9147 30.436 26.8636 30.359 26.8136C30.3455 26.8048 30.3322 26.7957 30.3187 26.787C30.2409 26.7371 30.1626 26.6881 30.0834 26.6402C30.1038 26.6208 30.123 26.6001 30.1432 26.5804C30.1998 26.5256 30.2554 26.4699 30.3101 26.4133C30.3407 26.3817 30.3711 26.3501 30.401 26.3179C30.4608 26.254 30.5191 26.1889 30.5766 26.1229C30.601 26.0949 30.6256 26.067 30.6496 26.0385C30.7108 25.9661 30.7704 25.892 30.8289 25.8171C30.848 25.7926 30.8677 25.7685 30.8865 25.7438C30.9452 25.6667 31.0018 25.588 31.0576 25.5086C31.4138 25.5609 31.7727 25.5873 32.1305 25.5873C33.3678 25.5873 34.5342 25.2805 35.5601 24.7411C38.3765 26.0754 40.174 28.8827 40.174 32.0098V34.2985H34.8375V34.2985Z" fill="#08A87C"/>
</svg>
