<svg width="30" height="30" viewBox="0 0 30 30" fill="none" xmlns="http://www.w3.org/2000/svg">
<g clip-path="url(#clip0_95_4316)">
<path d="M10.6063 17.1281V18.2197C10.6063 20.2366 12.0221 21.9897 13.8811 22.4951V24.8249H16.0643V22.4991C16.8082 22.3019 17.494 21.9039 18.0586 21.3306C18.8844 20.4919 19.3392 19.3937 19.3392 18.2382C19.3392 17.1357 18.8768 16.1687 17.9648 15.3642C17.2589 14.7415 16.3638 14.275 15.4981 13.8237L15.4773 13.8128C13.9583 13.021 13.2807 12.4658 13.2807 11.2686C13.2807 10.3769 14.0398 9.65141 14.9727 9.65141C15.9057 9.65141 16.6648 10.386 16.6648 11.2889V12.3805H18.848V11.2889C18.848 9.55581 17.6712 8.08953 16.0643 7.62354V5.17578H13.8811V7.62277C12.2743 8.08625 11.0975 9.54477 11.0975 11.2686C11.0975 13.992 13.2075 15.0918 14.4682 15.7488L14.489 15.7597C16.1425 16.6216 17.156 17.2024 17.156 18.2382C17.156 19.4417 16.1562 20.4585 14.9727 20.4585C13.8097 20.4585 12.7895 19.4123 12.7895 18.2197V17.1281H10.6063V17.1281Z" fill="#08A87C"/>
<path d="M15.0273 26.7895C10.7781 26.7895 6.96947 24.5705 4.87406 21.0039H8.64132V18.8207H1V26.462H3.18323V22.4197C4.17822 24.0081 5.48744 25.385 7.05134 26.474C9.39885 28.1086 12.157 28.9727 15.0273 28.9727C18.7574 28.9727 22.2574 27.5185 24.8825 24.8779C27.5024 22.2424 28.9454 18.7344 28.9454 15H26.7622C26.7622 21.5008 21.4979 26.7895 15.0273 26.7895Z" fill="#08A87C"/>
<path d="M26.8168 3.53805V7.58038C25.8217 5.99198 24.5126 4.61512 22.9487 3.52612C20.6011 1.89141 17.843 1.02734 14.9727 1.02734C11.2405 1.02734 7.73165 2.48077 5.09254 5.11983C2.45343 7.75899 1 11.2678 1 15.0001H3.18323C3.18323 8.4993 8.47195 3.21058 14.9727 3.21058C19.222 3.21058 23.0305 5.42947 25.1259 8.99613H21.3587V11.1794H29V3.53805H26.8168Z" fill="#08A87C"/>
</g>
<defs>
<clipPath id="clip0_95_4316">
<rect width="28" height="28" fill="white" transform="translate(1 1)"/>
</clipPath>
</defs>
</svg>
