<svg width="30" height="30" viewBox="0 0 30 30" fill="none" xmlns="http://www.w3.org/2000/svg">
<path d="M15 1C10.9291 1 7.61719 4.31193 7.61719 8.38281C7.61719 12.4537 10.9291 15.7656 15 15.7656C19.0709 15.7656 22.3828 12.4537 22.3828 8.38281C22.3828 4.31193 19.0709 1 15 1ZM15 14.125C11.8338 14.125 9.25781 11.5491 9.25781 8.38281C9.25781 5.21657 11.8338 2.64062 15 2.64062C18.1662 2.64062 20.7422 5.21657 20.7422 8.38281C20.7422 11.5491 18.1662 14.125 15 14.125Z" fill="#08A87C"/>
<path d="M24.1856 20.5888C22.1644 18.5365 19.4849 17.4062 16.6406 17.4062H13.3594C10.5152 17.4062 7.83561 18.5365 5.81436 20.5888C3.80301 22.631 2.69531 25.3268 2.69531 28.1797C2.69531 28.6327 3.06259 29 3.51562 29H26.4844C26.9374 29 27.3047 28.6327 27.3047 28.1797C27.3047 25.3268 26.197 22.631 24.1856 20.5888ZM4.37203 27.3594C4.78301 22.7062 8.65685 19.0469 13.3594 19.0469H16.6406C21.3431 19.0469 25.217 22.7062 25.628 27.3594H4.37203Z" fill="#08A87C"/>
</svg>
