<svg width="27" height="26" viewBox="0 0 27 26" fill="none" xmlns="http://www.w3.org/2000/svg">
<path d="M13.6357 5.08301C9.25748 5.08301 5.69531 8.64488 5.69531 13.0234C5.69531 15.9599 7.31771 18.6399 9.87157 19.9949V22.6397C9.87157 23.0949 10.2406 23.4639 10.6958 23.4639H16.5755C17.0308 23.4639 17.3998 23.0952 17.3998 22.6397V20.0152C19.9533 18.625 21.5757 15.936 21.5757 13.0234C21.5757 8.64518 18.0139 5.08301 13.6357 5.08301ZM16.2307 18.7588C15.9386 18.8934 15.7512 19.1858 15.7512 19.5075V21.8154H11.5201V19.48C11.5201 19.1545 11.3281 18.8591 11.0305 18.7269C8.79099 17.7315 7.34388 15.4925 7.34388 13.0234C7.34388 9.55406 10.1664 6.73153 13.6357 6.73153C17.105 6.73153 19.9273 9.55406 19.9273 13.0234C19.9273 15.473 18.4763 17.7244 16.2307 18.7588Z" fill="#FA5560"/>
<path d="M16.0229 24.1782H11.2422C10.787 24.1782 10.418 24.5472 10.418 25.0025C10.418 25.4577 10.787 25.8267 11.2422 25.8267H16.0229C16.4781 25.8267 16.8471 25.4577 16.8471 25.0025C16.8472 24.5472 16.4782 24.1782 16.0229 24.1782Z" fill="#FA5560"/>
<path d="M14.4571 0H12.8086V3.4344H14.4571V0Z" fill="#FA5560"/>
<path d="M4.23323 12.0063H0.798828V13.6549H4.23323V12.0063Z" fill="#FA5560"/>
<path d="M26.4656 12.0063H23.0312V13.6549H26.4656V12.0063Z" fill="#FA5560"/>
<path d="M5.14931 3.17832L3.99023 4.35059L6.43559 6.76843L7.59467 5.59617L5.14931 3.17832Z" fill="#FA5560"/>
<path d="M22.1211 3.17883L19.6758 5.59668L20.8349 6.76894L23.2802 4.3511L22.1211 3.17883Z" fill="#FA5560"/>
<path fill-rule="evenodd" clip-rule="evenodd" d="M16.2721 11.2343C16.4162 11.3612 16.4308 11.5816 16.3047 11.7266L13.2703 15.2155C13.1446 15.36 12.9265 15.3752 12.7823 15.2496L10.9616 13.6637C10.8168 13.5376 10.801 13.3172 10.9264 13.1715C11.0518 13.0259 11.2708 13.01 11.4156 13.1361L12.9755 14.4949L15.7827 11.2671C15.9089 11.1221 16.128 11.1074 16.2721 11.2343Z" fill="#FA5560" stroke="#FA5560" stroke-width="0.6"/>
</svg>
