<svg width="21" height="25" viewBox="0 0 21 25" fill="none" xmlns="http://www.w3.org/2000/svg">
<path d="M17.4735 4.12093H15.3185V3.15686C15.3185 2.84494 14.9782 2.70318 14.6663 2.70318H12.9934C12.5964 1.56895 11.6039 1.00184 10.4697 1.00184C9.34795 0.959665 8.32765 1.64749 7.94604 2.70318H6.30142C5.9895 2.70318 5.67759 2.84494 5.67759 3.15686V4.12093H3.52251C2.24544 4.13456 1.20065 5.142 1.14062 6.41772V22.6655C1.14062 23.9131 2.27485 24.8205 3.52251 24.8205H17.4735C18.7212 24.8205 19.8554 23.9131 19.8554 22.6655V6.41778C19.7954 5.142 18.7506 4.13456 17.4735 4.12093ZM6.81176 3.83741H8.37134C8.64358 3.80419 8.86225 3.59708 8.91012 3.32701C9.07805 2.59571 9.71963 2.07077 10.4697 2.05102C11.2128 2.07354 11.8447 2.60011 12.0009 3.32701C12.0517 3.60641 12.2849 3.81618 12.568 3.83741H14.1843V6.10586H6.81176V3.83741ZM18.7212 22.6655C18.7212 23.2894 18.0973 23.6863 17.4735 23.6863H3.52251C2.89868 23.6863 2.27485 23.2894 2.27485 22.6655V6.41778C2.33271 5.76844 2.87068 5.2671 3.52251 5.25522H5.67754V6.70136C5.7075 7.01908 5.98267 7.25675 6.30137 7.24014H14.6663C14.9908 7.25789 15.2746 7.02348 15.3184 6.70136V5.25516H17.4734C18.1252 5.2671 18.6632 5.76838 18.7211 6.41772V22.6655H18.7212Z" fill="#FA5560" stroke="#FA5560" stroke-width="0.3"/>
<path d="M8.31744 13.6768C8.10474 13.4526 7.75163 13.4399 7.52346 13.6485L5.70869 15.3781L4.94309 14.5842C4.73039 14.36 4.37728 14.3474 4.14911 14.5558C3.92946 14.786 3.92946 15.148 4.14911 15.3781L5.31167 16.5691C5.4123 16.6818 5.55764 16.7441 5.70863 16.7392C5.85821 16.7371 6.0009 16.676 6.1056 16.5691L8.31734 14.4708C8.5366 14.2696 8.55126 13.9288 8.35006 13.7096C8.33975 13.6981 8.32884 13.6872 8.31744 13.6768Z" fill="#FA5560" stroke="#FA5560" stroke-width="0.3"/>
<path d="M16.4541 14.896H9.93235C9.61913 14.896 9.36523 15.1499 9.36523 15.4631C9.36523 15.7763 9.61913 16.0302 9.93235 16.0302H16.4541C16.7673 16.0302 17.0212 15.7763 17.0212 15.4631C17.0212 15.1499 16.7673 14.896 16.4541 14.896Z" fill="#FA5560" stroke="#FA5560" stroke-width="0.3"/>
<path d="M8.31744 9.13969C8.10474 8.91549 7.75163 8.90284 7.52346 9.11136L5.70869 10.841L4.94309 10.0471C4.73039 9.82285 4.37728 9.8102 4.14911 10.0187C3.92946 10.2488 3.92946 10.6109 4.14911 10.841L5.31167 12.032C5.4123 12.1447 5.55764 12.207 5.70863 12.2021C5.85821 12.2 6.0009 12.1388 6.1056 12.032L8.31734 9.93367C8.5366 9.73253 8.55126 9.39169 8.35006 9.17248C8.33975 9.16102 8.32884 9.15011 8.31744 9.13969Z" fill="#FA5560" stroke="#FA5560" stroke-width="0.3"/>
<path d="M16.4541 10.3594H9.93235C9.61913 10.3594 9.36523 10.6133 9.36523 10.9265C9.36523 11.2397 9.61913 11.4936 9.93235 11.4936H16.4541C16.7673 11.4936 17.0212 11.2397 17.0212 10.9265C17.0212 10.6133 16.7673 10.3594 16.4541 10.3594Z" fill="#FA5560" stroke="#FA5560" stroke-width="0.3"/>
<path d="M8.31744 18.2134C8.10474 17.9892 7.75163 17.9766 7.52346 18.1851L5.70869 19.9147L4.94309 19.1208C4.73039 18.8966 4.37728 18.884 4.14911 19.0924C3.92946 19.3226 3.92946 19.6846 4.14911 19.9147L5.31167 21.1057C5.4123 21.2184 5.55764 21.2807 5.70863 21.2758C5.85821 21.2737 6.0009 21.2126 6.1056 21.1057L8.31734 19.0074C8.5366 18.8062 8.55126 18.4654 8.35006 18.2462C8.33975 18.2348 8.32884 18.2239 8.31744 18.2134Z" fill="#FA5560" stroke="#FA5560" stroke-width="0.3"/>
<path d="M16.4541 19.4331H9.93235C9.61913 19.4331 9.36523 19.687 9.36523 20.0002C9.36523 20.3134 9.61913 20.5673 9.93235 20.5673H16.4541C16.7673 20.5673 17.0212 20.3134 17.0212 20.0002C17.0212 19.687 16.7673 19.4331 16.4541 19.4331Z" fill="#FA5560" stroke="#FA5560" stroke-width="0.3"/>
</svg>
