<svg width="31" height="30" viewBox="0 0 31 30" fill="none" xmlns="http://www.w3.org/2000/svg">
<path d="M15.3677 5.90381C10.2822 5.90381 6.14453 10.0411 6.14453 15.1269C6.14453 18.5379 8.02902 21.6508 10.9955 23.2247V26.2968C10.9955 26.8256 11.4241 27.2542 11.9529 27.2542H18.7824C19.3112 27.2542 19.7398 26.8259 19.7398 26.2968V23.2484C22.7059 21.6335 24.5904 18.5101 24.5904 15.1269C24.5904 10.0415 20.4531 5.90381 15.3677 5.90381ZM18.3819 21.7889C18.0427 21.9453 17.825 22.2849 17.825 22.6586V25.3394H12.9103V22.6267C12.9103 22.2485 12.6873 21.9054 12.3416 21.7519C9.74032 20.5957 8.05943 17.995 8.05943 15.1269C8.05943 11.0972 11.3379 7.81865 15.3677 7.81865C19.3975 7.81865 22.6757 11.0972 22.6757 15.1269C22.6756 17.9723 20.9902 20.5874 18.3819 21.7889Z" fill="#FA5560"/>
<path d="M18.1451 28.0845H12.5922C12.0634 28.0845 11.6348 28.5131 11.6348 29.0419C11.6348 29.5707 12.0634 29.9993 12.5922 29.9993H18.1451C18.6739 29.9993 19.1025 29.5707 19.1025 29.0419C19.1026 28.5131 18.674 28.0845 18.1451 28.0845Z" fill="#FA5560"/>
<path d="M16.3289 0H14.4141V3.98923H16.3289V0Z" fill="#FA5560"/>
<path d="M4.45017 13.9463H0.460938V15.8611H4.45017V13.9463Z" fill="#FA5560"/>
<path d="M30.2724 13.9463H26.2832V15.8611H30.2724V13.9463Z" fill="#FA5560"/>
<path d="M5.50648 3.69158L4.16016 5.05322L7.00056 7.86167L8.34689 6.50003L5.50648 3.69158Z" fill="#FA5560"/>
<path d="M25.2232 3.69252L22.3828 6.50098L23.7291 7.86262L26.5695 5.05417L25.2232 3.69252Z" fill="#FA5560"/>
<path d="M12.0586 14.6479C12.5095 14.6479 12.875 15.0135 12.875 15.4644C12.875 15.9152 12.5095 16.2808 12.0586 16.2808C11.6077 16.2808 11.2422 15.9152 11.2422 15.4644C11.2422 15.0135 11.6077 14.6479 12.0586 14.6479Z" fill="#FA5560" stroke="#FA5560" stroke-width="0.8"/>
<path d="M15.332 14.6479C15.7829 14.6479 16.1484 15.0135 16.1484 15.4644C16.1484 15.9152 15.7829 16.2808 15.332 16.2808C14.8811 16.2808 14.5156 15.9152 14.5156 15.4644C14.5156 15.0135 14.8811 14.6479 15.332 14.6479Z" fill="#FA5560" stroke="#FA5560" stroke-width="0.8"/>
<path d="M18.5977 14.6479C19.0485 14.6479 19.4141 15.0135 19.4141 15.4644C19.4141 15.9152 19.0485 16.2808 18.5977 16.2808C18.1468 16.2808 17.7812 15.9152 17.7812 15.4644C17.7812 15.0135 18.1468 14.6479 18.5977 14.6479Z" fill="#FA5560" stroke="#FA5560" stroke-width="0.8"/>
</svg>
