<svg width="20" height="26" viewBox="0 0 20 26" fill="none" xmlns="http://www.w3.org/2000/svg">
<path d="M16.8824 4.13002H14.7211V3.16313C14.7211 2.85031 14.3798 2.70813 14.067 2.70813H12.3892C11.9911 1.57061 10.9957 1.00184 9.85818 1.00184C8.73317 0.959547 7.70989 1.64937 7.32718 2.70813H5.67777C5.36494 2.70813 5.05212 2.85031 5.05212 3.16313V4.13002H2.89077C1.60998 4.14368 0.562155 5.15405 0.501953 6.43349V22.7285C0.501953 23.9798 1.63948 24.8898 2.89077 24.8898H16.8824C18.1336 24.8898 19.2712 23.9798 19.2712 22.7285V6.43354C19.211 5.15405 18.1631 4.14368 16.8824 4.13002ZM6.1896 3.84566H7.75371C8.02674 3.81235 8.24605 3.60464 8.29406 3.33378C8.46248 2.60036 9.10592 2.07389 9.85818 2.05407C10.6035 2.07666 11.2372 2.60477 11.3938 3.33378C11.4448 3.614 11.6786 3.82438 11.9626 3.84566H13.5836V6.12072H6.1896V3.84566ZM18.1336 22.7286C18.1336 23.3542 17.508 23.7524 16.8824 23.7524H2.89077C2.26513 23.7524 1.63948 23.3542 1.63948 22.7286V6.43354C1.69751 5.78231 2.23704 5.27952 2.89077 5.2676H5.05207V6.71795C5.08211 7.0366 5.35809 7.27496 5.67771 7.2583H14.0669C14.3925 7.2761 14.6771 7.04101 14.721 6.71795V5.26755H16.8823C17.536 5.27952 18.0756 5.78226 18.1336 6.43349V22.7286H18.1336Z" fill="#FA5560" stroke="#FA5560" stroke-width="0.3"/>
<path d="M14.7697 14.9365H8.22892C7.91479 14.9365 7.66016 15.1912 7.66016 15.5053C7.66016 15.8194 7.91479 16.0741 8.22892 16.0741H14.7697C15.0838 16.0741 15.3384 15.8194 15.3384 15.5053C15.3384 15.1912 15.0838 14.9365 14.7697 14.9365Z" fill="#FA5560" stroke="#FA5560" stroke-width="0.3"/>
<path d="M5.31185 14.9365H5.16251C4.84838 14.9365 4.59375 15.1912 4.59375 15.5053C4.59375 15.8194 4.84838 16.0741 5.16251 16.0741H5.31185C5.62598 16.0741 5.88062 15.8194 5.88062 15.5053C5.88062 15.1912 5.62598 14.9365 5.31185 14.9365Z" fill="#FA5560" stroke="#FA5560" stroke-width="0.3"/>
<path d="M14.7697 10.3862H8.22892C7.91479 10.3862 7.66016 10.6409 7.66016 10.955C7.66016 11.2691 7.91479 11.5238 8.22892 11.5238H14.7697C15.0838 11.5238 15.3384 11.2691 15.3384 10.955C15.3384 10.6409 15.0838 10.3862 14.7697 10.3862Z" fill="#FA5560" stroke="#FA5560" stroke-width="0.3"/>
<path d="M5.31185 10.3862H5.16251C4.84838 10.3862 4.59375 10.6409 4.59375 10.955C4.59375 11.2691 4.84838 11.5238 5.16251 11.5238H5.31185C5.62598 11.5238 5.88062 11.2691 5.88062 10.955C5.88062 10.6409 5.62598 10.3862 5.31185 10.3862Z" fill="#FA5560" stroke="#FA5560" stroke-width="0.3"/>
<path d="M14.7697 19.4868H8.22892C7.91479 19.4868 7.66016 19.7415 7.66016 20.0556C7.66016 20.3697 7.91479 20.6243 8.22892 20.6243H14.7697C15.0838 20.6243 15.3384 20.3697 15.3384 20.0556C15.3384 19.7415 15.0838 19.4868 14.7697 19.4868Z" fill="#FA5560" stroke="#FA5560" stroke-width="0.3"/>
<path d="M5.31185 19.4868H5.16251C4.84838 19.4868 4.59375 19.7415 4.59375 20.0556C4.59375 20.3697 4.84838 20.6243 5.16251 20.6243H5.31185C5.62598 20.6243 5.88062 20.3697 5.88062 20.0556C5.88062 19.7415 5.62598 19.4868 5.31185 19.4868Z" fill="#FA5560" stroke="#FA5560" stroke-width="0.3"/>
</svg>
