<svg width="19" height="23" viewBox="0 0 19 23" fill="none" xmlns="http://www.w3.org/2000/svg">
<path d="M15.7326 3.81553H13.7885V2.94579C13.7885 2.6644 13.4815 2.53651 13.2001 2.53651H11.6909C11.3328 1.51327 10.4374 1.00166 9.41419 1.00166C8.40222 0.963612 7.48176 1.58412 7.1375 2.53651H5.65382C5.37242 2.53651 5.09103 2.6644 5.09103 2.94579V3.81553H3.14685C1.99474 3.82782 1.0522 4.73667 0.998047 5.88755V20.5453C0.998047 21.6709 2.02128 22.4895 3.14685 22.4895H15.7326C16.8582 22.4895 17.8814 21.6709 17.8814 20.5453V5.8876C17.8273 4.73667 16.8847 3.82782 15.7326 3.81553ZM6.11422 3.55974H7.52118C7.76678 3.52978 7.96405 3.34293 8.00724 3.09929C8.15873 2.43956 8.73752 1.96599 9.41419 1.94817C10.0846 1.96848 10.6547 2.44353 10.7955 3.09929C10.8414 3.35135 11.0517 3.5406 11.3072 3.55974H12.7653V5.60621H6.11422V3.55974ZM16.8582 20.5454C16.8582 21.1082 16.2954 21.4663 15.7326 21.4663H3.14685C2.58406 21.4663 2.02128 21.1082 2.02128 20.5454V5.8876C2.07348 5.30181 2.5588 4.84953 3.14685 4.83881H5.09098V6.14343C5.11801 6.43007 5.36626 6.64448 5.65377 6.62949H13.2001C13.4929 6.6455 13.7489 6.43403 13.7884 6.14343V4.83876H15.7326C16.3206 4.84953 16.8059 5.30176 16.8581 5.88755V20.5454H16.8582Z" fill="#FA5560" stroke="#FA5560" stroke-width="0.3"/>
<path d="M8.56445 19.3534L8.56445 11.745C8.56445 11.4624 8.3354 11.2334 8.05284 11.2334C7.77027 11.2334 7.54122 11.4624 7.54122 11.745L7.54122 19.3534C7.54122 19.6359 7.77027 19.865 8.05284 19.865C8.3354 19.865 8.56445 19.6359 8.56445 19.3534Z" fill="#FA5560" stroke="#FA5560" stroke-width="0.3"/>
<path d="M11.6563 19.3537L11.6563 13.4701C11.6563 13.1875 11.4272 12.9585 11.1446 12.9585C10.8621 12.9585 10.633 13.1875 10.633 13.4701L10.633 19.3537C10.633 19.6363 10.8621 19.8653 11.1446 19.8653C11.4272 19.8653 11.6563 19.6363 11.6563 19.3537Z" fill="#FA5560" stroke="#FA5560" stroke-width="0.3"/>
<path d="M14.7832 19.3537L14.7832 13.4701C14.7832 13.1875 14.5542 12.9585 14.2716 12.9585C13.989 12.9585 13.76 13.1875 13.76 13.4701L13.76 19.3537C13.76 19.6363 13.989 19.8653 14.2716 19.8653C14.5542 19.8653 14.7832 19.6363 14.7832 19.3537Z" fill="#FA5560" stroke="#FA5560" stroke-width="0.3"/>
<path d="M5.47266 19.3535L5.47266 9.10048C5.47266 8.81792 5.24361 8.58887 4.96104 8.58887C4.67847 8.58887 4.44942 8.81792 4.44942 9.10048L4.44942 19.3535C4.44942 19.636 4.67847 19.8651 4.96104 19.8651C5.24361 19.8651 5.47266 19.636 5.47266 19.3535Z" fill="#FA5560" stroke="#FA5560" stroke-width="0.3"/>
</svg>
