<svg width="27" height="28" viewBox="0 0 27 28" fill="none" xmlns="http://www.w3.org/2000/svg">
<path d="M13.6306 5.5835C9.06997 5.5835 5.35938 9.29377 5.35938 13.8547C5.35938 16.9136 7.04937 19.7052 9.70964 21.1167V23.8717C9.70964 24.3459 10.094 24.7303 10.5682 24.7303H16.6929C17.1671 24.7303 17.5515 24.3462 17.5515 23.8717V21.1379C20.2115 19.6897 21.9015 16.8887 21.9015 13.8547C21.9015 9.29409 18.1912 5.5835 13.6306 5.5835ZM16.3337 19.8291C16.0295 19.9694 15.8343 20.2739 15.8343 20.609V23.0131H11.4269V20.5804C11.4269 20.2413 11.2268 19.9336 10.9169 19.7959C8.58404 18.759 7.07664 16.4267 7.07664 13.8547C7.07664 10.2408 10.0168 7.30071 13.6306 7.30071C17.2445 7.30071 20.1844 10.2408 20.1844 13.8547C20.1843 16.4064 18.6729 18.7516 16.3337 19.8291Z" fill="#FA5560"/>
<path d="M16.1197 25.4741H11.1398C10.6656 25.4741 10.2812 25.8585 10.2812 26.3327C10.2812 26.8069 10.6656 27.1913 11.1398 27.1913H16.1197C16.5939 27.1913 16.9783 26.8069 16.9783 26.3327C16.9783 25.8585 16.594 25.4741 16.1197 25.4741Z" fill="#FA5560"/>
<path d="M14.4985 0.288574H12.7812V3.86607H14.4985V0.288574Z" fill="#FA5560"/>
<path d="M3.85093 12.7954H0.273438V14.5126H3.85093V12.7954Z" fill="#FA5560"/>
<path d="M26.9994 12.7954H23.4219V14.5126H26.9994V12.7954Z" fill="#FA5560"/>
<path d="M4.79331 3.59921L3.58594 4.82031L6.13318 7.3389L7.34055 6.11779L4.79331 3.59921Z" fill="#FA5560"/>
<path d="M22.4711 3.59958L19.9238 6.11816L21.1312 7.33927L23.6784 4.82068L22.4711 3.59958Z" fill="#FA5560"/>
</svg>
