<svg width="16" height="16" viewBox="0 0 16 16" fill="none" xmlns="http://www.w3.org/2000/svg">
<path d="M14.2222 7.86778C14.0159 7.86778 13.8181 7.94972 13.6722 8.09558C13.5264 8.24145 13.4444 8.43928 13.4444 8.64556V12.9778C13.4444 13.1015 13.3953 13.2202 13.3078 13.3078C13.2202 13.3953 13.1015 13.4444 12.9778 13.4444H3.02222C2.89845 13.4444 2.77976 13.3953 2.69224 13.3078C2.60472 13.2202 2.55556 13.1015 2.55556 12.9778V3.02222C2.55556 2.89845 2.60472 2.77976 2.69224 2.69224C2.77976 2.60472 2.89845 2.55556 3.02222 2.55556H10.4656C10.6718 2.55556 10.8697 2.47361 11.0155 2.32775C11.1614 2.18189 11.2433 1.98406 11.2433 1.77778C11.2433 1.5715 11.1614 1.37367 11.0155 1.22781C10.8697 1.08194 10.6718 1 10.4656 1H3.02222C2.48653 1.00205 1.97336 1.21576 1.59456 1.59456C1.21576 1.97336 1.00205 2.48653 1 3.02222V12.9778C1.00205 13.5135 1.21576 14.0266 1.59456 14.4054C1.97336 14.7842 2.48653 14.998 3.02222 15H12.9778C13.5135 14.998 14.0266 14.7842 14.4054 14.4054C14.7842 14.0266 14.998 13.5135 15 12.9778V8.64556C15 8.43928 14.9181 8.24145 14.7722 8.09558C14.6263 7.94972 14.4285 7.86778 14.2222 7.86778Z" fill="#FA5560" stroke="#E7F7F2" stroke-width="0.1"/>
<path d="M7.0049 7.2223C6.85895 7.09104 6.66876 7.01982 6.47249 7.02293C6.27622 7.02604 6.08838 7.10325 5.94666 7.23906C5.80494 7.37488 5.71981 7.55926 5.70836 7.75522C5.6969 7.95118 5.75997 8.14423 5.8849 8.29563L7.61157 10.1079C7.68386 10.1837 7.77072 10.2441 7.86696 10.2856C7.96319 10.327 8.0668 10.3486 8.17157 10.349C8.27578 10.3496 8.37905 10.3292 8.47525 10.2891C8.57145 10.2491 8.65862 10.1901 8.73157 10.1156L14.0049 4.67119C14.0764 4.59764 14.1327 4.51074 14.1706 4.41544C14.2085 4.32014 14.2273 4.2183 14.2259 4.11574C14.2244 4.01318 14.2028 3.91192 14.1622 3.81772C14.1216 3.72352 14.0629 3.63824 13.9893 3.56674C13.9158 3.49524 13.8289 3.43893 13.7336 3.40102C13.6383 3.36311 13.5365 3.34434 13.4339 3.34578C13.3313 3.34723 13.2301 3.36886 13.1359 3.40944C13.0417 3.45002 12.9564 3.50876 12.8849 3.5823L8.17934 8.45119L7.0049 7.2223Z" fill="#FA5560" stroke="#E7F7F2" stroke-width="0.1"/>
</svg>
