<svg width="21" height="20" viewBox="0 0 21 20" fill="none" xmlns="http://www.w3.org/2000/svg">
<path d="M7.3363 12.946C6.39222 12.9473 5.45991 12.7366 4.60814 12.3294C4.50376 12.2761 4.38363 12.2621 4.26978 12.2901L2.68292 12.7307C2.53321 12.7723 2.37532 12.7746 2.22445 12.7374C2.07359 12.7002 1.93484 12.6248 1.82157 12.5185C1.70831 12.4121 1.62434 12.2784 1.57777 12.1302C1.53119 11.9819 1.52357 11.8242 1.55565 11.6722L1.8913 10.0767C1.91236 9.96032 1.88998 9.84025 1.82842 9.73926C1.15784 8.56383 0.8833 7.20382 1.04539 5.86031C1.21842 4.46165 1.85057 3.15991 2.84281 2.15908C3.83504 1.15825 5.13128 0.514892 6.52839 0.329814C8.19193 0.095868 9.88026 0.53234 11.222 1.54321C12.5637 2.55408 13.4489 4.05655 13.6828 5.72008C13.9168 7.38361 13.4803 9.07195 12.4694 10.4137C11.4586 11.7554 9.95611 12.6406 8.29258 12.8745C7.97601 12.9218 7.65638 12.9457 7.3363 12.946ZM4.38106 11.3705C4.59497 11.3715 4.80593 11.4203 4.99853 11.5134C5.76038 11.8766 6.59645 12.0572 7.44031 12.0408C8.28418 12.0244 9.11259 11.8114 9.85974 11.4188C10.6069 11.0262 11.2522 10.4648 11.7444 9.77916C12.2366 9.09351 12.5622 8.30254 12.6952 7.46906C12.8282 6.63559 12.765 5.78258 12.5107 4.97779C12.2563 4.173 11.8178 3.43861 11.23 2.83295C10.6421 2.22729 9.92117 1.76705 9.12433 1.4888C8.32749 1.21054 7.47675 1.12193 6.63967 1.23C5.75603 1.34304 4.91382 1.67198 4.18747 2.18776C3.46112 2.70354 2.87299 3.39028 2.47504 4.1873C2.07709 4.98432 1.88156 5.86709 1.90575 6.75761C1.92994 7.64813 2.17308 8.51899 2.61371 9.29323C2.78449 9.5865 2.84209 9.9321 2.77565 10.2649L2.44091 11.8604L4.02732 11.4198C4.14241 11.3871 4.26143 11.3704 4.38106 11.37V11.3705Z" fill="#FA5560" stroke="#FA5560" stroke-width="0.2"/>
<path d="M14.1194 19.2788C13.821 19.2787 13.5229 19.2564 13.2278 19.2119C11.966 19.0221 10.8006 18.4255 9.90888 17.5129C9.01711 16.6002 8.44771 15.4213 8.28721 14.1554C8.20652 13.5122 8.22989 12.8602 8.35642 12.2243C8.36674 12.1649 8.38885 12.1081 8.42144 12.0573C8.45404 12.0066 8.49646 11.9628 8.54621 11.9287C8.59596 11.8946 8.65204 11.8707 8.71114 11.8586C8.77024 11.8465 8.83117 11.8463 8.89034 11.8581C8.94952 11.8698 9.00574 11.8933 9.0557 11.9271C9.10566 11.961 9.14835 12.0044 9.18126 12.055C9.21416 12.1056 9.23662 12.1622 9.24731 12.2216C9.258 12.281 9.2567 12.3419 9.24349 12.4008C9.13593 12.9416 9.11622 13.4962 9.18514 14.0433C9.28651 14.8201 9.56996 15.562 10.0124 16.2085C10.4548 16.8551 11.0437 17.3879 11.7311 17.7637C12.4186 18.1395 13.185 18.3476 13.9681 18.3711C14.7512 18.3945 15.5287 18.2327 16.2374 17.8987C16.5379 17.7538 16.8805 17.7217 17.2027 17.8082L18.5896 18.1932L18.2965 16.8013C18.2305 16.4691 18.2876 16.1242 18.4571 15.831C18.9731 14.9181 19.1851 13.8647 19.0623 12.8233C18.9206 11.668 18.3815 10.5981 17.5375 9.79665C16.6935 8.99523 15.5971 8.51224 14.4361 8.43043C13.9957 8.40178 13.5534 8.43221 13.1211 8.5209C13.0623 8.53439 13.0014 8.53598 12.942 8.52558C12.8826 8.51519 12.8258 8.49301 12.7751 8.46036C12.7244 8.42771 12.6807 8.38525 12.6466 8.33547C12.6126 8.28569 12.5888 8.2296 12.5767 8.1705C12.5647 8.11139 12.5645 8.05048 12.5764 7.99133C12.5882 7.93217 12.6117 7.87599 12.6456 7.82607C12.6794 7.77615 12.7229 7.7335 12.7735 7.70064C12.8241 7.66779 12.8808 7.64538 12.9401 7.63474C13.451 7.52964 13.9735 7.49328 14.494 7.52662C15.8661 7.62375 17.1618 8.19492 18.1591 9.1423C19.1564 10.0897 19.7933 11.3543 19.9607 12.7197C20.1062 13.9505 19.8555 15.1956 19.2451 16.2743C19.1839 16.3764 19.1615 16.4971 19.1817 16.6144L19.4753 18.0063C19.5073 18.1584 19.4997 18.3161 19.453 18.4643C19.4064 18.6125 19.3224 18.7462 19.209 18.8526C19.0957 18.9589 18.957 19.0342 18.8061 19.0713C18.6552 19.1084 18.4973 19.106 18.3476 19.0644L16.9602 18.679C16.8468 18.6519 16.7274 18.6658 16.6232 18.7183C15.8403 19.088 14.9852 19.2794 14.1194 19.2788Z" fill="#FA5560" stroke="#FA5560" stroke-width="0.2"/>
<path d="M16.3801 16.1127C16.2956 16.1131 16.2128 16.09 16.1408 16.0457C16.0689 16.0015 16.0107 15.9381 15.973 15.8625L14.1183 12.1482L12.2637 15.8625C12.21 15.9699 12.1159 16.0516 12.0021 16.0896C11.8882 16.1276 11.764 16.1188 11.6566 16.0652C11.5492 16.0116 11.4675 15.9175 11.4295 15.8036C11.3915 15.6898 11.4003 15.5655 11.4539 15.4581L13.7157 10.9346C13.7575 10.8645 13.8168 10.8064 13.8878 10.7661C13.9587 10.7258 14.039 10.7046 14.1206 10.7046C14.2022 10.7046 14.2824 10.7258 14.3534 10.7661C14.4243 10.8064 14.4836 10.8645 14.5254 10.9346L16.7872 15.4581C16.8218 15.5273 16.838 15.6041 16.8344 15.6814C16.8308 15.7586 16.8075 15.8336 16.7667 15.8992C16.7258 15.9649 16.6689 16.019 16.6012 16.0563C16.5335 16.0937 16.4574 16.1131 16.3801 16.1127Z" fill="#FA5560" stroke="#FA5560" stroke-width="0.2"/>
<path d="M12.527 14.8244C12.407 14.8255 12.2915 14.779 12.2059 14.6949C12.1202 14.6109 12.0715 14.4963 12.0703 14.3763C12.0692 14.2563 12.1158 14.1408 12.1998 14.0552C12.2838 13.9696 12.3984 13.9208 12.5184 13.9197L15.7043 13.8609H15.7125C15.8324 13.8597 15.948 13.9063 16.0336 13.9903C16.1192 14.0743 16.168 14.1889 16.1691 14.3089C16.1703 14.4289 16.1237 14.5444 16.0397 14.63C15.9556 14.7157 15.841 14.7644 15.7211 14.7656L12.5351 14.8244H12.527Z" fill="#FA5560" stroke="#FA5560" stroke-width="0.2"/>
<path d="M7.33327 9.32719C6.79647 9.32719 6.27172 9.16801 5.82538 8.86978C5.37905 8.57154 5.03117 8.14766 4.82574 7.65171C4.62032 7.15577 4.56657 6.61005 4.67129 6.08356C4.77602 5.55707 5.03451 5.07346 5.41409 4.69388C5.79367 4.3143 6.27728 4.0558 6.80377 3.95108C7.33026 3.84635 7.87598 3.9001 8.37193 4.10553C8.86787 4.31095 9.29176 4.65883 9.58999 5.10517C9.88822 5.5515 10.0474 6.07625 10.0474 6.61306C10.0467 7.33267 9.7605 8.0226 9.25166 8.53145C8.74282 9.04029 8.05289 9.32647 7.33327 9.32719ZM7.33327 4.80364C6.9754 4.80364 6.62557 4.90976 6.32801 5.10858C6.03046 5.3074 5.79854 5.58999 5.66159 5.92062C5.52464 6.25125 5.4888 6.61507 5.55862 6.96606C5.62844 7.31705 5.80077 7.63946 6.05382 7.89251C6.30687 8.14556 6.62928 8.3179 6.98027 8.38771C7.33127 8.45753 7.69508 8.4217 8.02571 8.28475C8.35634 8.1478 8.63893 7.91588 8.83775 7.61832C9.03657 7.32076 9.14269 6.97093 9.14269 6.61306C9.14269 6.13317 8.95206 5.67294 8.61273 5.3336C8.2734 4.99427 7.81316 4.80364 7.33327 4.80364Z" fill="#FA5560" stroke="#FA5560" stroke-width="0.2"/>
<path d="M9.59411 9.77937C9.47415 9.77935 9.35911 9.73167 9.27429 9.64683L7.46487 7.83741C7.38247 7.7521 7.33688 7.63783 7.33791 7.51923C7.33894 7.40062 7.38651 7.28716 7.47038 7.20329C7.55425 7.11942 7.66771 7.07185 7.78632 7.07082C7.90492 7.06979 8.01919 7.11538 8.1045 7.19778L9.91392 9.0072C9.97717 9.07047 10.0202 9.15106 10.0377 9.2388C10.0551 9.32653 10.0462 9.41747 10.0119 9.50011C9.97771 9.58276 9.91975 9.6534 9.84537 9.70311C9.771 9.75282 9.68356 9.77936 9.59411 9.77937Z" fill="#FA5560" stroke="#FA5560" stroke-width="0.2"/>
</svg>
