<svg width="72" height="72" viewBox="0 0 72 72" fill="none" xmlns="http://www.w3.org/2000/svg">
<rect width="72" height="72" rx="5" fill="#FAFBFC"/>
<path d="M24.7126 31.8563H23.7516C23.3941 31.8563 23.1044 32.1462 23.1044 32.5036C23.1044 32.8611 23.3941 33.1509 23.7516 33.1509H24.7126C25.0701 33.1509 25.3599 32.8611 25.3599 32.5036C25.3599 32.1462 25.0701 31.8563 24.7126 31.8563Z" fill="#FA5560" stroke="#FA5560" stroke-width="0.3"/>
<path d="M39.0114 31.8563H28.6696C28.3121 31.8563 28.0223 32.1462 28.0223 32.5036C28.0223 32.8611 28.3121 33.1509 28.6696 33.1509H39.0114C39.3689 33.1509 39.6586 32.8611 39.6586 32.5036C39.6586 32.1462 39.3689 31.8563 39.0114 31.8563Z" fill="#FA5560" stroke="#FA5560" stroke-width="0.3"/>
<path d="M23.7516 25.2466H24.7126C25.0701 25.2466 25.3599 24.9567 25.3599 24.5993C25.3599 24.2419 25.0701 23.952 24.7126 23.952H23.7516C23.3941 23.952 23.1044 24.2419 23.1044 24.5993C23.1044 24.9567 23.3941 25.2466 23.7516 25.2466Z" fill="#FA5560" stroke="#FA5560" stroke-width="0.3"/>
<path d="M28.6696 25.2466H39.0114C39.3689 25.2466 39.6586 24.9567 39.6586 24.5993C39.6586 24.2419 39.3689 23.952 39.0114 23.952H28.6696C28.3121 23.952 28.0223 24.2419 28.0223 24.5993C28.0223 24.9567 28.3121 25.2466 28.6696 25.2466Z" fill="#FA5560" stroke="#FA5560" stroke-width="0.3"/>
<path d="M23.7516 41.0552H24.7126C25.0701 41.0552 25.3599 40.7654 25.3599 40.4079C25.3599 40.0505 25.0701 39.7606 24.7126 39.7606H23.7516C23.3941 39.7606 23.1044 40.0505 23.1044 40.4079C23.1044 40.7654 23.3941 41.0552 23.7516 41.0552Z" fill="#FA5560" stroke="#FA5560" stroke-width="0.3"/>
<path d="M51.634 35.772C50.0689 35.4223 48.6831 34.4438 47.832 33.0873C47.7136 32.8986 47.5065 32.784 47.2837 32.784H43.7631V30.7339C43.7631 29.8564 43.3613 29.071 42.732 28.5516C43.3613 28.0319 43.7631 27.246 43.7631 26.3681V22.8306C43.7631 21.2698 42.4932 20 40.9325 20H21.8306C20.2698 20 19 21.2698 19 22.8306V26.3682C19 27.2461 19.4018 28.0319 20.031 28.5516C19.4018 29.071 19 29.8565 19 30.734V34.2735C19 35.151 19.4018 35.9364 20.0311 36.4559C19.4018 36.9753 19 37.7607 19 38.6383V42.1778C19 43.738 20.2703 45.0075 21.8315 45.0075H37.1453C37.381 47.1494 38.6708 49.0355 40.6292 50.0371L44.3284 51.929C44.4211 51.9763 44.5221 52 44.6232 52C44.7244 52 44.8255 51.9764 44.918 51.929L48.6173 50.0371C50.7903 48.9256 52.1402 46.7253 52.1402 44.2949V36.4036C52.1402 36.1005 51.9298 35.838 51.634 35.772ZM20.2945 22.8306C20.2945 21.9836 20.9836 21.2945 21.8306 21.2945H40.9324C41.7795 21.2945 42.4685 21.9836 42.4685 22.8306V26.3682C42.4685 27.2152 41.7794 27.9043 40.9324 27.9043H21.8306C20.9836 27.9043 20.2945 27.2152 20.2945 26.3682V22.8306ZM37.1063 39.7608H28.6696C28.3121 39.7608 28.0223 40.0506 28.0223 40.4081C28.0223 40.7655 28.3121 41.0554 28.6696 41.0554H37.1064V43.713H21.8315C20.984 43.713 20.2945 43.0243 20.2945 42.1778V38.6383C20.2945 37.7918 20.984 37.1031 21.8315 37.1031H37.1063V39.7608ZM37.4989 35.8086H21.8315C20.984 35.8086 20.2945 35.1199 20.2945 34.2734V30.7339C20.2945 29.8875 20.984 29.1988 21.8315 29.1988H40.9315C41.7791 29.1988 42.4685 29.8875 42.4685 30.7339V32.784H41.9628C41.7401 32.784 41.5329 32.8986 41.4145 33.0873C40.5635 34.4438 39.1777 35.4223 37.6125 35.772C37.573 35.7807 37.535 35.7931 37.4989 35.8086ZM50.8456 44.2949C50.8456 46.2369 49.7658 47.9955 48.0278 48.8844L44.6232 50.6256L41.2187 48.8844C39.4806 47.9955 38.4008 46.2369 38.4008 44.2949V36.9028C39.9757 36.4287 41.3663 35.4255 42.3099 34.0785H46.9366C47.8801 35.4255 49.2708 36.4287 50.8456 36.9028V44.2949Z" fill="#FA5560" stroke="#FA5560" stroke-width="0.3"/>
<path d="M47.3732 39.8993C47.0924 39.6782 46.6855 39.7266 46.4643 40.0076L44.4968 42.5076L43.0241 41.4579C42.7328 41.2503 42.3289 41.3182 42.1214 41.6092C41.9138 41.9003 41.9816 42.3045 42.2727 42.512L44.2479 43.9199C44.3616 44.001 44.4929 44.0402 44.6232 44.0402C44.8152 44.0402 45.0049 43.955 45.1323 43.7932L47.4816 40.8082C47.7026 40.5273 47.6541 40.1204 47.3732 39.8993Z" fill="#FA5560" stroke="#FA5560" stroke-width="0.3"/>
</svg>
