<svg width="72" height="72" viewBox="0 0 72 72" fill="none" xmlns="http://www.w3.org/2000/svg">
<rect width="72" height="72" rx="5" fill="#FAFBFC"/>
<path d="M30.3527 27.4735C29.9914 28.2263 30.2663 29.3253 31.244 31.0239C31.3589 32.2819 31.9326 33.4513 32.8528 34.3037C33.773 35.1562 34.9738 35.6305 36.2206 35.634C37.4675 35.6374 38.6708 35.1699 39.5957 34.3226C40.5205 33.4753 41.1005 32.3091 41.2223 31.0518C42.26 29.4966 42.576 28.4643 42.2469 27.7201C42.1434 27.4881 41.9764 27.2909 41.7658 27.1521C42.1105 24.9932 41.9637 23.5121 41.3206 22.6352C41.0111 22.2094 40.5597 21.9116 40.0501 21.7971C39.5102 21.185 38.8394 20.706 38.0888 20.3968C37.3384 20.0875 36.528 19.9562 35.7198 20.0128C34.9115 20.0694 34.1268 20.3125 33.4254 20.7234C32.724 21.1343 32.1246 21.7023 31.673 22.3838C30.5358 23.7937 30.2072 25.3544 30.6923 27.0324C30.5501 27.154 30.4344 27.3042 30.3527 27.4735ZM39.8913 30.3665C39.8133 30.4805 39.7681 30.614 39.7606 30.7524C39.7109 31.6661 39.3178 32.5258 38.662 33.1547C38.0062 33.7837 37.1375 34.1342 36.2344 34.1342C35.3314 34.1342 34.4627 33.7837 33.8069 33.1547C33.1511 32.5258 32.758 31.6661 32.7083 30.7524C32.7017 30.6315 32.6663 30.514 32.6051 30.41C31.7274 28.9169 31.6698 28.3397 31.6791 28.1757C31.6879 28.1741 31.6979 28.1724 31.7094 28.1709C31.8223 28.1562 31.9303 28.1152 32.025 28.0512C32.1198 27.9873 32.1987 27.902 32.2556 27.802C32.3126 27.7021 32.346 27.5903 32.3533 27.4751C32.3606 27.36 32.3415 27.2447 32.2977 27.1382C32.2484 27.0188 32.2052 26.9007 32.1668 26.7836C32.2587 26.6508 32.3849 26.5462 32.5314 26.4812C32.678 26.4162 32.8394 26.3932 32.998 26.4148C33.3514 26.54 33.7238 26.6015 34.0982 26.5964C35.1321 26.5964 36.4183 26.2007 37.9849 25.4027C38.5569 26.2522 39.3613 26.7018 40.3339 26.7192C40.2982 26.9599 40.255 27.2167 40.2023 27.4927C40.1829 27.5937 40.1844 27.6976 40.2064 27.798C40.2284 27.8984 40.2705 27.9932 40.3302 28.0763C40.3899 28.1595 40.4658 28.2293 40.5533 28.2815C40.6407 28.3337 40.7379 28.3671 40.8386 28.3797C40.8589 28.3822 40.8763 28.3851 40.891 28.388C40.8771 28.5669 40.7506 29.1102 39.8913 30.3665ZM32.8383 23.309C32.8552 23.2883 32.8709 23.2668 32.8855 23.2444C33.2188 22.7331 33.6668 22.3089 34.1927 22.0064C34.7187 21.704 35.3078 21.5318 35.9119 21.5039C36.516 21.4761 37.1181 21.5934 37.6689 21.8463C38.2198 22.0992 38.7039 22.4804 39.0817 22.959C39.1431 23.0368 39.2192 23.1014 39.3055 23.1491C39.3918 23.1968 39.4867 23.2266 39.5845 23.2367C39.8336 23.2624 40.0025 23.3528 40.1321 23.5297C40.2888 23.7432 40.4817 24.2129 40.4678 25.2198C39.7709 25.2489 39.3059 24.8948 38.9595 24.0963C38.9183 24.0012 38.858 23.9159 38.7825 23.8456C38.7071 23.7754 38.618 23.7218 38.521 23.6883C38.4241 23.6547 38.3213 23.642 38.2191 23.6508C38.1171 23.6596 38.0178 23.6898 37.9278 23.7394C35.2871 25.1972 34.0445 25.2245 33.4671 24.9908C33.424 24.9734 33.3795 24.9601 33.334 24.9511C32.8871 24.8622 32.4243 24.9065 32.0017 25.0786C32.0989 24.4614 32.377 23.8742 32.8383 23.309ZM50.3179 47.0945C50.4612 45.0917 50.5379 43.0486 50.5452 42.8498C50.636 41.6373 50.4909 40.6005 50.1134 39.7676C49.7125 38.8824 49.0542 38.2181 48.1563 37.7926C48.0916 37.7619 48.0229 37.7408 47.9522 37.7301C46.0916 37.4485 43.9484 36.5009 41.5824 34.914C41.4995 34.8584 41.4064 34.8202 41.3087 34.8019C41.2109 34.7836 41.1106 34.7853 41.0135 34.8072C40.9164 34.8291 40.8247 34.8705 40.7438 34.929C40.6629 34.9875 40.5945 35.062 40.5426 35.1479L37.4731 40.2309L36.9557 39.115C36.8959 38.9861 36.8012 38.8772 36.6826 38.8008C36.564 38.7245 36.4263 38.684 36.2858 38.684C36.1453 38.684 36.0076 38.7245 35.889 38.8008C35.7703 38.8772 35.6757 38.9861 35.6159 39.115L34.9763 40.4945L32.0436 35.1738C31.9939 35.0837 31.9264 35.0049 31.8453 34.9425C31.7641 34.8799 31.6712 34.8351 31.5722 34.8108C31.4731 34.7864 31.3703 34.783 31.2699 34.8008C31.1695 34.8186 31.0738 34.8572 30.9889 34.9141C28.6228 36.5011 26.4797 37.4486 24.6191 37.7303C24.5484 37.741 24.4797 37.7621 24.415 37.7928C23.5171 38.2182 22.8587 38.8826 22.4579 39.7677C22.0807 40.6007 21.9356 41.6377 22.0261 42.85C22.0334 43.0488 22.1101 45.0919 22.2535 47.0947C22.267 47.2837 22.3507 47.4605 22.4876 47.5896C22.6246 47.7186 22.8047 47.7903 22.9917 47.7903H32.3969L31.7701 51.1091C31.7437 51.2489 31.7571 51.3935 31.8088 51.5259C31.8605 51.6583 31.9483 51.7731 32.062 51.8568C32.1757 51.9405 32.3105 51.9896 32.4508 51.9985C32.591 52.0074 32.7309 51.9757 32.854 51.907L36.2858 49.9921L39.7176 51.9066C39.8407 51.9752 39.9805 52.0069 40.1208 51.998C40.261 51.9891 40.3958 51.94 40.5095 51.8563C40.6232 51.7726 40.7111 51.6578 40.7627 51.5254C40.8145 51.393 40.8279 51.2484 40.8015 51.1086L40.1747 47.7898H49.5796C49.7666 47.7898 49.9466 47.7182 50.0836 47.5892C50.2205 47.4602 50.3042 47.2835 50.3179 47.0945ZM23.5052 42.7802C23.5048 42.7699 23.5042 42.7595 23.5035 42.7489C23.3646 40.934 23.8387 39.7702 24.9522 39.1955C26.8156 38.8915 28.892 38.0202 31.1352 36.6018L34.2017 42.1651L33.9501 42.7077L30.0632 43.2028C29.9238 43.2206 29.7922 43.2782 29.6839 43.369C29.5755 43.4597 29.495 43.5798 29.4516 43.7152C29.4081 43.8506 29.4036 43.9958 29.4386 44.1337C29.4736 44.2716 29.5466 44.3966 29.6491 44.494L31.539 46.29H23.683C23.5658 44.4684 23.5058 42.7989 23.5052 42.7802ZM36.6429 48.4789C36.5335 48.4179 36.4107 48.386 36.2859 48.386C36.1611 48.386 36.0383 48.4179 35.9289 48.4789L33.5203 49.8226L34.0372 47.0862C34.0606 46.962 34.0528 46.8337 34.0142 46.7135C33.9756 46.5932 33.9076 46.4847 33.8166 46.3982L31.811 44.492L34.5392 44.1444C34.6629 44.1286 34.7809 44.0814 34.8818 44.0071C34.9828 43.9328 35.0636 43.8339 35.1167 43.7194L36.2858 41.1978L37.455 43.7195C37.5081 43.8339 37.5889 43.9329 37.6899 44.0072C37.7908 44.0815 37.9087 44.1287 38.0326 44.1445L40.7607 44.492L38.7551 46.3982C38.664 46.4847 38.5961 46.5932 38.5575 46.7135C38.519 46.8338 38.511 46.9621 38.5345 47.0863L39.0513 49.8227L36.6429 48.4789ZM49.0682 42.7493C49.0675 42.7595 49.0668 42.7699 49.0665 42.7805C49.0659 42.7992 49.0059 44.4684 48.8887 46.2905H41.0326L42.9225 44.4942C43.025 44.3968 43.098 44.2718 43.133 44.1339C43.168 43.996 43.1635 43.8508 43.1201 43.7154C43.0766 43.58 42.996 43.4598 42.8877 43.3692C42.7795 43.2784 42.6479 43.2208 42.5084 43.203L38.6216 42.7079L38.2268 41.8568L41.4102 36.5855C43.6635 38.0138 45.7486 38.8906 47.6193 39.1958C48.7327 39.7705 49.2069 40.9343 49.0681 42.7493H49.0682Z" fill="#FA5560"/>
</svg>
