<svg width="72" height="72" viewBox="0 0 72 72" fill="none" xmlns="http://www.w3.org/2000/svg">
<rect width="72" height="72" rx="5" fill="#FAFBFC"/>
<path d="M36.1562 20.253C36.4637 20.253 36.7129 20.0038 36.7129 19.6964V17.5567C36.7129 17.2492 36.4637 17 36.1562 17C35.8487 17 35.5996 17.2492 35.5996 17.5567V19.6963C35.5996 20.0037 35.8487 20.253 36.1562 20.253Z" fill="#FA5560"/>
<path d="M29.4443 21.644C29.5475 21.8226 29.7346 21.9224 29.9269 21.9224C30.0213 21.9224 30.1171 21.8983 30.2047 21.8477C30.471 21.694 30.5622 21.3535 30.4085 21.0873L29.3387 19.2344C29.1849 18.968 28.8443 18.8769 28.5782 19.0306C28.312 19.1843 28.2208 19.5248 28.3745 19.791L29.4443 21.644Z" fill="#FA5560"/>
<path d="M25.6441 25.4442L23.7912 24.3743C23.5247 24.2207 23.1844 24.3118 23.0307 24.5781C22.877 24.8444 22.9682 25.1848 23.2345 25.3385L25.0874 26.4083C25.1752 26.459 25.2708 26.483 25.3653 26.483C25.5577 26.483 25.7448 26.3831 25.8479 26.2045C26.0016 25.9384 25.9103 25.598 25.6441 25.4442Z" fill="#FA5560"/>
<path d="M49.0782 38.9741L47.2252 37.9043C46.9588 37.7506 46.6184 37.8417 46.4648 38.108C46.3111 38.3743 46.4023 38.7147 46.6686 38.8685L48.5215 39.9382C48.6092 39.9889 48.7049 40.0129 48.7994 40.0129C48.9918 40.0129 49.1789 39.9131 49.2819 39.7345C49.4357 39.4683 49.3444 39.1279 49.0782 38.9741Z" fill="#FA5560"/>
<path d="M24.253 32.1563C24.253 31.8488 24.0038 31.5996 23.6964 31.5996H21.5567C21.2493 31.5996 21 31.8488 21 32.1563C21 32.4637 21.2492 32.7129 21.5567 32.7129H23.6964C24.0038 32.7129 24.253 32.4637 24.253 32.1563Z" fill="#FA5560"/>
<path d="M50.7561 31.5996H48.6164C48.309 31.5996 48.0598 31.8488 48.0598 32.1563C48.0598 32.4637 48.309 32.7129 48.6164 32.7129H50.7561C51.0636 32.7129 51.3128 32.4637 51.3128 32.1563C51.3128 31.8488 51.0636 31.5996 50.7561 31.5996Z" fill="#FA5560"/>
<path d="M25.0874 37.9042L23.2345 38.9741C22.9682 39.1278 22.877 39.4683 23.0307 39.7345C23.1339 39.9131 23.321 40.0129 23.5133 40.0129C23.6077 40.0129 23.7035 39.9889 23.7912 39.9382L25.6441 38.8684C25.9104 38.7147 26.0016 38.3742 25.8479 38.108C25.6941 37.8418 25.3536 37.7506 25.0874 37.9042Z" fill="#FA5560"/>
<path d="M46.9474 26.4831C47.0418 26.4831 47.1376 26.4591 47.2252 26.4084L49.0782 25.3386C49.3445 25.1849 49.4357 24.8444 49.2819 24.5782C49.1281 24.3119 48.7875 24.2209 48.5215 24.3744L46.6686 25.4443C46.4023 25.598 46.3111 25.9385 46.4648 26.2046C46.5679 26.3833 46.755 26.4831 46.9474 26.4831Z" fill="#FA5560"/>
<path d="M42.108 21.8476C42.1957 21.8983 42.2914 21.9223 42.3859 21.9223C42.5782 21.9223 42.7654 21.8225 42.8684 21.6439L43.9383 19.7909C44.092 19.5247 44.0007 19.1842 43.7345 19.0305C43.468 18.8768 43.1277 18.9679 42.974 19.2343L41.9043 21.0872C41.7505 21.3535 41.8418 21.6939 42.108 21.8476Z" fill="#FA5560"/>
<path d="M31.0982 44.7052C30.7908 44.7052 30.5415 44.9544 30.5415 45.2619V54.4432C30.5415 54.7507 30.7907 54.9999 31.0982 54.9999C31.4057 54.9999 31.6549 54.7507 31.6549 54.4432V45.262C31.655 44.9545 31.4057 44.7052 31.0982 44.7052Z" fill="#FA5560"/>
<path d="M41.871 41.942V41.5741C41.871 40.6096 42.2407 39.6972 42.9122 39.0048C43.7862 38.1034 44.2674 36.9157 44.2674 35.6604V31.5933C44.2674 30.4011 43.6465 29.3518 42.7117 28.7497V24.5066C42.7117 23.2193 41.6643 22.1719 40.377 22.1719C39.4413 22.1719 38.633 22.7253 38.2609 23.5217C37.8638 23.2095 37.3639 23.0227 36.8208 23.0227C35.7618 23.0227 34.8657 23.7318 34.5811 24.6999C34.2479 24.4908 33.8543 24.3693 33.4327 24.3693C32.506 24.3693 31.7137 24.9542 31.4046 25.774C31.0623 25.5476 30.6527 25.4153 30.2125 25.4153C29.0177 25.4153 28.0457 26.3874 28.0457 27.5821V36.8801C28.0457 37.9961 28.6093 39.0174 29.5536 39.6125C30.1722 40.0023 30.5416 40.6716 30.5416 41.4028V42.7165C30.5416 43.024 30.7908 43.2732 31.0983 43.2732C31.4058 43.2732 31.655 43.024 31.655 42.7165V41.4028C31.655 40.2869 31.0913 39.2653 30.147 38.6704C29.5284 38.2805 29.159 37.6113 29.159 36.8801V33.6924C29.4711 33.8668 29.8303 33.9667 30.2125 33.9667C31.1391 33.9667 31.9314 33.3819 32.2405 32.562C32.5828 32.7884 32.9926 32.9206 33.4328 32.9206C34.0963 32.9206 34.6908 32.6205 35.0885 32.1493C35.5161 32.6226 36.1343 32.9206 36.8208 32.9206C37.3671 32.9206 37.8693 32.7314 38.2671 32.4156C38.6122 32.5478 38.9865 32.621 39.3776 32.621H39.4734C38.9202 33.4127 38.3578 34.6522 38.5917 36.2509C38.6363 36.555 38.9193 36.7658 39.2231 36.721C39.5273 36.6765 39.7378 36.3938 39.6933 36.0896C39.3718 33.8927 40.9938 32.5548 41.0613 32.5002C41.2468 32.353 41.3187 32.1045 41.2407 31.8809C41.1627 31.6574 40.9519 31.5076 40.7152 31.5076H39.3776C38.2748 31.5076 37.3776 30.6105 37.3776 29.5076C37.3776 29.4074 37.4592 29.326 37.5593 29.326H40.8867C42.1369 29.326 43.154 30.3431 43.154 31.5932V35.6603C43.154 36.6248 42.7843 37.5372 42.1129 38.2297C41.2389 39.131 40.7576 40.3186 40.7576 41.5741V41.9867C37.5424 42.3924 35.0475 45.1441 35.0475 48.4676C35.0475 52.0695 37.9779 55.0001 41.58 55.0001C42.626 55.0001 43.6662 54.7467 44.5884 54.2676C44.8613 54.1258 44.9674 53.7897 44.8257 53.5168C44.6839 53.2441 44.3478 53.1378 44.075 53.2796C43.2998 53.6824 42.4605 53.8867 41.58 53.8867C38.5919 53.8867 36.1609 51.4557 36.1609 48.4676C36.1609 45.4794 38.5919 43.0484 41.58 43.0484C44.5682 43.0484 46.9991 45.4794 46.9991 48.4676C46.9991 49.7022 46.5947 50.8651 45.8297 51.8305C45.6388 52.0714 45.6793 52.4216 45.9202 52.6125C46.1612 52.8034 46.5114 52.7629 46.7023 52.522C47.6249 51.3579 48.1125 49.9559 48.1125 48.4676C48.1125 44.9632 45.3385 42.0948 41.871 41.942ZM31.2659 31.7999C31.2659 32.3809 30.7934 32.8533 30.2126 32.8533C29.6316 32.8533 29.1591 32.3808 29.1591 31.7999V27.5821C29.1591 27.0012 29.6317 26.5287 30.2126 26.5287C30.7934 26.5287 31.2659 27.0013 31.2659 27.5821V31.7999ZM34.4862 30.7539C34.4862 31.3349 34.0136 31.8073 33.4328 31.8073H33.4328C32.8519 31.8073 32.3793 31.3348 32.3793 30.7539V26.5361C32.3793 25.9552 32.852 25.4827 33.4328 25.4827C34.0137 25.4827 34.4862 25.9553 34.4862 26.5361V30.7539ZM38.0422 28.2127H37.5593C36.8452 28.2127 36.2642 28.7935 36.2642 29.5077C36.2642 30.3836 36.6283 31.1756 37.2125 31.7419C37.0895 31.7838 36.9579 31.8073 36.8209 31.8073C36.1474 31.8073 35.5996 31.2594 35.5996 30.5859V25.3574C35.5996 24.6839 36.1474 24.1361 36.8209 24.1361C37.4944 24.1361 38.0423 24.6839 38.0423 25.3574V28.2127H38.0422ZM41.5984 28.2887C41.3688 28.2393 41.1308 28.2127 40.8868 28.2127H39.1557V24.5066C39.1557 23.8332 39.7036 23.2853 40.3771 23.2853C41.0506 23.2853 41.5984 23.8331 41.5984 24.5066V28.2887H41.5984Z" fill="#FA5560"/>
<path d="M43.7021 45.8952L40.7533 49.769L39.4655 47.9893C39.2852 47.7401 38.9371 47.6843 38.6882 47.8645C38.4391 48.0448 38.3833 48.3928 38.5635 48.6419L40.2909 51.0291C40.3942 51.172 40.559 51.2573 40.7352 51.2594C40.7374 51.2595 40.7397 51.2595 40.7419 51.2595C40.9157 51.2595 41.0795 51.1784 41.1849 51.04L44.5881 46.5695C44.7743 46.3249 44.727 45.9756 44.4823 45.7894C44.2376 45.6032 43.8884 45.6507 43.7021 45.8952Z" fill="#FA5560"/>
</svg>
