<svg width="72" height="72" viewBox="0 0 72 72" fill="none" xmlns="http://www.w3.org/2000/svg">
<rect width="72" height="72" rx="5" fill="#FAFBFC"/>
<path d="M35.9996 18.9999H35.9486L35.9996 20.6189C36.9904 20.6188 37.9788 20.7134 38.9516 20.9016L39.2607 19.3126C38.186 19.1044 37.0941 18.9997 35.9996 18.9999Z" fill="#FA5560"/>
<path d="M32.6329 19.3334C31.5414 19.5527 30.4742 19.8794 29.447 20.309L30.0715 21.8023C31.0002 21.4145 31.9648 21.1192 32.9516 20.9209L32.6329 19.3334Z" fill="#FA5560"/>
<path d="M46.8816 46.8701C46.1696 47.5827 45.3897 48.2241 44.553 48.7853L45.455 50.13C46.379 49.5101 47.2404 48.8017 48.0271 48.0149L46.8816 46.8701Z" fill="#FA5560"/>
<path d="M42.453 20.2679L41.838 21.7653C42.7691 22.1482 43.6606 22.6216 44.4994 23.1784L45.3952 21.8297C44.4679 21.2139 43.4825 20.6908 42.453 20.2679Z" fill="#FA5560"/>
<path d="M51.3809 36.0001C51.3809 37.0071 51.2831 38.0117 51.0887 38.9999L52.6769 39.3138C52.8917 38.2223 52.9999 37.1126 52.9998 36.0001V35.9314L51.3809 36.0001Z" fill="#FA5560"/>
<path d="M47.9764 23.9349L46.8357 25.0837C47.5506 25.7936 48.1945 26.5715 48.7587 27.4063L50.1003 26.5003C49.4774 25.5783 48.7661 24.7191 47.9764 23.9349Z" fill="#FA5560"/>
<path d="M41.8984 50.21C40.9689 50.5959 40.0035 50.8891 39.0164 51.0855L39.3318 52.6737C40.4238 52.4564 41.4915 52.1319 42.5197 51.7049L41.8984 50.21Z" fill="#FA5560"/>
<path d="M51.6846 29.4309L50.1912 30.0571C50.5803 30.9855 50.8769 31.9501 51.0766 32.9367L52.6633 32.6157C52.4424 31.5246 52.1146 30.4578 51.6846 29.4309Z" fill="#FA5560"/>
<path d="M50.2159 41.8833C49.8299 42.8135 49.3537 43.7035 48.7941 44.5408L50.1404 45.4405C50.7587 44.515 51.2851 43.5312 51.7116 42.5032L50.2159 41.8833Z" fill="#FA5560"/>
<path d="M36.0004 51.3811C34.9986 51.3813 33.9994 51.2844 33.0164 51.0918L32.7041 52.6808C33.79 52.8933 34.8939 53.0002 36.0004 53.0002H36.0174L36.0004 51.3811Z" fill="#FA5560"/>
<path d="M23.2233 44.5664L21.8794 45.4701C22.5005 46.3933 23.2102 47.2539 23.9981 48.0398L25.1413 46.8935C24.4278 46.182 23.7854 45.4027 23.2233 44.5664Z" fill="#FA5560"/>
<path d="M26.515 21.8895C25.592 22.5115 24.7321 23.2219 23.9473 24.011L25.0952 25.1525C25.8055 24.4384 26.584 23.7955 27.4194 23.2326L26.515 21.8895Z" fill="#FA5560"/>
<path d="M19.3158 32.7217C19.1056 33.8018 18.9999 34.8997 19 36.0001V36.0341L20.6191 36.0001C20.6189 35.0036 20.7146 34.0095 20.9048 33.0315L19.3158 32.7217Z" fill="#FA5560"/>
<path d="M21.8395 26.5901C21.2227 27.5166 20.6985 28.5015 20.2742 29.5306L21.7715 30.1473C22.1549 29.2163 22.6292 28.3254 23.1874 27.4874L21.8395 26.5901Z" fill="#FA5560"/>
<path d="M20.9174 39.0314L19.33 39.3488C19.5482 40.4405 19.8739 41.5081 20.302 42.5359L21.7962 41.913C21.4092 40.9837 21.115 40.0185 20.9174 39.0314Z" fill="#FA5560"/>
<path d="M27.4739 48.8042L26.575 50.1505C27.501 50.7682 28.4853 51.2936 29.5139 51.719L30.1321 50.2225C29.2017 49.8379 28.3113 49.363 27.4739 48.8042Z" fill="#FA5560"/>
<path d="M47.0269 33.0595C47.0269 30.8027 45.6248 28.3826 43.3113 27.9738C43.0879 25.4656 41.0021 23.5337 38.4841 23.5027C37.6092 23.502 36.7506 23.7388 35.9998 24.1879C35.2491 23.7388 34.3904 23.502 33.5155 23.5027C30.917 23.5402 28.7693 25.5399 28.5469 28.1293C26.3986 28.8047 24.9466 30.8077 24.9728 33.0595C24.9719 34.1077 25.2857 35.132 25.8734 36C25.2857 36.8681 24.9719 37.8924 24.9728 38.9406C24.9728 41.1974 26.3748 43.6175 28.6884 44.0263C28.9118 46.5345 30.9976 48.4664 33.5155 48.4974C34.3904 48.4981 35.2491 48.2613 35.9998 47.8121C36.7506 48.2613 37.6092 48.4981 38.4841 48.4974C41.0827 48.4599 43.2304 46.4601 43.4528 43.8708C45.601 43.1954 47.0531 41.1923 47.0269 38.9406C47.0278 37.8924 46.714 36.8681 46.1263 36C46.7139 35.1321 47.0278 34.1077 47.0269 33.0595ZM35.2647 30.1189C35.2647 30.931 34.6064 31.5892 33.7944 31.5892C32.9824 31.5892 32.3241 30.931 32.3241 30.1189H30.8538C30.8557 31.7422 32.1711 33.0577 33.7944 33.0595C34.3122 33.0566 34.8198 32.9153 35.2647 32.6504V46.5267C34.7385 46.8507 34.1334 47.0237 33.5155 47.0271C31.7914 46.9888 30.3624 45.6792 30.1742 43.9649C31.7353 43.5325 32.6501 41.9164 32.2177 40.3553C31.8649 39.0823 30.7046 38.202 29.3836 38.2054V39.6757C30.1957 39.6757 30.8538 40.334 30.8538 41.146C30.8538 41.958 30.1957 42.6163 29.3836 42.6163C27.6247 42.6163 26.4431 40.7156 26.4431 38.9406C26.4415 38.0378 26.765 37.1648 27.3544 36.481C27.5938 36.2051 27.5938 35.7949 27.3544 35.519C26.765 34.8352 26.4415 33.9621 26.4431 33.0594C26.4104 31.2966 27.6535 29.767 29.3857 29.4387C29.746 29.3469 29.9966 29.0203 29.992 28.6486C29.9531 26.6617 31.5289 25.018 33.5155 24.9729C34.1334 24.9762 34.7385 25.1493 35.2647 25.4733V30.1189ZM44.6452 36.4811C45.2347 37.1649 45.5582 38.0379 45.5566 38.9407C45.5893 40.7034 44.3462 42.233 42.614 42.5614C42.2536 42.6531 42.0031 42.9797 42.0076 43.3515C42.0465 45.3383 40.4707 46.9821 38.4841 47.0272C37.8663 47.0239 37.2611 46.8507 36.735 46.5268V38.2056C36.735 37.3935 37.3932 36.7353 38.2052 36.7353C39.0173 36.7353 39.6755 37.3935 39.6755 38.2056H41.1458C41.1439 36.5823 39.8285 35.2669 38.2052 35.265C37.6874 35.2679 37.1799 35.4092 36.735 35.6741V25.4734C37.2611 25.1494 37.8663 24.9764 38.4841 24.973C40.2082 25.0113 41.6372 26.3209 41.8254 28.0352C40.2644 28.4676 39.3495 30.0837 39.782 31.6447C40.1347 32.9178 41.295 33.798 42.6161 33.7946V32.3243C41.804 32.3243 41.1458 31.6661 41.1458 30.8541C41.1458 30.042 41.804 29.3838 42.6161 29.3838C44.375 29.3838 45.5566 31.2845 45.5566 33.0595C45.5582 33.9622 45.2347 34.8353 44.6452 35.5191C44.4058 35.795 44.4058 36.2051 44.6452 36.4811Z" fill="#FA5560"/>
</svg>
