<svg width="72" height="72" viewBox="0 0 72 72" fill="none" xmlns="http://www.w3.org/2000/svg">
<rect width="72" height="72" rx="5" fill="#FAFBFC"/>
<path d="M44.902 24.6863C41.8801 21.6642 37.8621 20 33.5884 20C29.3146 20 25.2966 21.6642 22.2746 24.6863C21.9085 25.0524 21.9085 25.646 22.2746 26.0121C22.6407 26.3783 23.2343 26.3783 23.6004 26.0121C26.2683 23.3442 29.8154 21.875 33.5884 21.875C37.3613 21.875 40.9084 23.3442 43.5763 26.0121C46.2442 28.68 47.7133 32.2271 47.7133 36C47.7133 39.7729 46.2441 43.32 43.5763 45.9879C40.9084 48.6557 37.3613 50.125 33.5884 50.125C30.6555 50.125 27.8593 49.2367 25.5063 47.5883H26.6847C27.2024 47.5883 27.6222 47.1686 27.6222 46.6508C27.6222 46.1331 27.2024 45.7133 26.6847 45.7133H22.9376V45.7135C22.9033 45.7136 22.8689 45.7152 22.8341 45.719C22.3195 45.7763 21.9486 46.2397 22.0058 46.7544L22.4496 50.7484C22.5029 51.2278 22.9088 51.5825 23.3803 51.5825C23.4148 51.5825 23.4498 51.5805 23.4849 51.5766C23.9995 51.5194 24.3704 51.0559 24.3132 50.5414L24.1319 48.9098C26.8583 50.9158 30.1399 52 33.5884 52C37.8621 52 41.8801 50.3357 44.9021 47.3137C47.9242 44.2917 49.5883 40.2737 49.5883 36C49.5883 31.7263 47.9241 27.7083 44.902 24.6863Z" fill="#FA5560" stroke="#FA5560" stroke-width="0.3"/>
<path d="M33.5886 26.3125C33.0708 26.3125 32.6511 26.7322 32.6511 27.25V36C32.6511 36.5178 33.0708 36.9375 33.5886 36.9375H39.8386C40.3563 36.9375 40.7761 36.5178 40.7761 36C40.7761 35.4822 40.3563 35.0625 39.8386 35.0625H34.5261V27.25C34.5261 26.7322 34.1064 26.3125 33.5886 26.3125Z" fill="#FA5560" stroke="#FA5560" stroke-width="0.3"/>
</svg>
