<svg width="72" height="72" viewBox="0 0 72 72" fill="none" xmlns="http://www.w3.org/2000/svg">
<rect width="72" height="72" rx="5" fill="#FAFBFC"/>
<path d="M53.7852 28.577C53.7831 28.5635 53.7805 28.5499 53.7774 28.5366C53.5759 27.4634 53.2414 26.4367 52.7917 25.4741C52.7793 25.4374 52.7628 25.402 52.7422 25.3682C52.3238 24.4936 51.8101 23.673 51.2143 22.92C51.1922 22.883 51.166 22.8478 51.134 22.8159C51.1298 22.8116 51.125 22.808 51.1207 22.8038C50.5354 22.0814 49.874 21.4231 49.1487 20.8412C49.1446 20.8368 49.141 20.8323 49.1368 20.828C49.104 20.7953 49.0678 20.7683 49.0296 20.746C48.2737 20.154 47.4501 19.6445 46.5731 19.2305C46.5396 19.21 46.5045 19.1938 46.4682 19.1815C45.5 18.735 44.4678 18.4043 43.3891 18.2084C43.3757 18.2054 43.3622 18.2029 43.3486 18.2009C42.6095 18.0689 41.8488 18 41.0724 18C40.4752 18 39.8878 18.0416 39.312 18.1203C39.3102 18.1204 39.3083 18.1209 39.3065 18.1211C33.8464 18.8703 29.4623 23.0415 28.3946 28.3949C26.9931 28.6741 25.6434 29.1837 24.406 29.9081C24.1542 30.0555 24.0696 30.3792 24.217 30.631C24.3644 30.8829 24.6881 30.9675 24.9398 30.8201C25.9636 30.2207 27.0715 29.7817 28.2225 29.5132C28.1717 29.9778 28.1448 30.4496 28.1448 30.9276C28.1448 31.7033 28.2136 32.4634 28.3453 33.2018C28.3474 33.2163 28.35 33.2307 28.3533 33.2449C28.5492 34.3233 28.8798 35.3551 29.3262 36.3229C29.3385 36.3594 29.3548 36.3946 29.3753 36.4281C29.7894 37.3051 30.2987 38.1286 30.8907 38.8845C30.9131 38.9228 30.9401 38.959 30.9728 38.9917C30.9769 38.9959 30.9815 38.9994 30.9858 39.0035C31.5678 39.7288 32.226 40.3903 32.9486 40.9756C32.9528 40.9801 32.9565 40.9847 32.9607 40.989C32.9926 41.0208 33.0278 41.0472 33.0647 41.0692C33.8177 41.665 34.6383 42.1788 35.5129 42.5971C35.5467 42.6178 35.5822 42.6343 35.6188 42.6466C36.5816 43.0965 37.6084 43.431 38.6818 43.6326C38.695 43.6356 38.7081 43.6381 38.7215 43.6401C39.4841 43.7808 40.2697 43.8551 41.0724 43.8551C41.5506 43.8551 42.0224 43.8281 42.4872 43.7773C41.2597 49.0239 36.5428 52.943 30.9275 52.943C24.3819 52.943 19.0567 47.6178 19.0567 41.0722C19.0567 37.7716 20.379 34.7055 22.7799 32.4387C22.9921 32.2384 23.0017 31.904 22.8014 31.6918C22.601 31.4796 22.2666 31.47 22.0545 31.6703C20.7877 32.8663 19.7906 34.2778 19.0913 35.8657C18.3672 37.5101 18 39.2618 18 41.0724C18 48.2008 23.7994 54 30.9277 54C37.1893 54 42.4246 49.5251 43.6054 43.6054C48.9902 42.5313 53.1793 38.1023 53.8924 32.5976C53.8927 32.5944 53.8934 32.5912 53.8937 32.5881C53.9637 32.0443 54 31.4901 54 30.9276C54 30.125 53.9258 29.3395 53.7852 28.577ZM50.7024 23.9947C51.0551 24.4833 51.3721 24.9993 51.6483 25.5395L42.2854 34.9024C41.9964 34.3726 41.6712 33.8654 41.3136 33.3835L50.7024 23.9947ZM50.0423 23.1602L40.6457 32.5568C40.2582 32.115 39.8414 31.6995 39.3977 31.314L48.7935 21.9184C49.2395 22.3012 49.6572 22.7161 50.0423 23.1602ZM47.9557 21.2614L38.5669 30.6503C38.083 30.2946 37.5736 29.9715 37.0418 29.6847L46.4033 20.3232C46.9458 20.597 47.4647 20.9108 47.9557 21.2614ZM43.446 19.2953C44.1089 19.4304 44.7518 19.6212 45.3699 19.8621L36.0346 29.1973C35.4385 28.9399 34.8196 28.7258 34.1814 28.5597L43.446 19.2953ZM39.6091 19.147C40.0887 19.0877 40.577 19.0567 41.0725 19.0567C41.4328 19.0567 41.7891 19.0737 42.1414 19.1053L32.9443 28.3024C32.287 28.199 31.6135 28.1448 30.9277 28.1448C30.8203 28.1448 30.713 28.1475 30.6059 28.1502L39.6091 19.147ZM37.7227 19.5388L29.6836 27.5779C30.82 23.7211 33.8659 20.675 37.7227 19.5388ZM29.2503 31.9965C29.2186 31.6442 29.2016 31.2879 29.2016 30.9276C29.2016 30.4322 29.2326 29.9439 29.2919 29.4642L29.4628 29.2933C29.9472 29.2332 30.4363 29.2015 30.9277 29.2015C31.288 29.2015 31.6444 29.2185 31.9966 29.2501L29.2503 31.9965ZM29.4402 33.3011L33.3011 29.4402C33.9641 29.5752 34.6069 29.766 35.2249 30.0069L30.0069 35.2251C29.766 34.6069 29.5752 33.9641 29.4402 33.3011ZM31.4063 37.8109C31.0556 37.3198 30.7418 36.8009 30.468 36.2585L36.2586 30.468C36.801 30.7418 37.3199 31.0555 37.8109 31.4063L31.4063 37.8109ZM32.0632 38.6486L38.6486 32.0632C39.0946 32.4461 39.5124 32.8609 39.8975 33.305L33.305 39.8974C32.8609 39.5124 32.4461 39.0946 32.0632 38.6486ZM34.1395 40.5575L40.5576 34.1395C40.9103 34.6281 41.2273 35.1441 41.5035 35.6842L35.6841 41.5035C35.1441 41.2272 34.628 40.9102 34.1395 40.5575ZM38.6281 42.5448C37.9681 42.4062 37.328 42.2129 36.713 41.9692L41.9692 36.713C42.2129 37.328 42.4062 37.9681 42.5449 38.6281L38.6281 42.5448ZM42.7193 42.4389L42.439 42.7193C41.9904 42.771 41.5346 42.7985 41.0724 42.7985C40.6853 42.7985 40.3026 42.7792 39.9248 42.7427L42.7427 39.9248C42.7792 40.3025 42.7985 40.6852 42.7985 41.0724C42.7985 41.5346 42.771 41.9903 42.7193 42.4389ZM43.422 37.751C43.2528 37.1154 43.0363 36.4991 42.7766 35.9058L52.1141 26.5684C52.3577 27.1833 52.551 27.8235 52.6897 28.4834L43.422 37.751ZM44.3007 42.3522L52.4971 34.1557C51.378 38.1108 48.2557 41.2331 44.3007 42.3522ZM52.8642 32.294L43.8523 41.3059C43.8537 41.2281 43.8553 41.1504 43.8553 41.0723C43.8553 40.3608 43.7965 39.6628 43.6854 38.9822L52.8877 29.7799C52.9241 30.1576 52.9433 30.5404 52.9433 30.9276C52.9433 31.3898 52.9158 31.8456 52.8642 32.294Z" fill="#FA5560"/>
</svg>
