<svg width="72" height="72" viewBox="0 0 72 72" fill="none" xmlns="http://www.w3.org/2000/svg">
<rect width="72" height="72" rx="5" fill="#FAFBFC"/>
<path d="M45.7113 51C45.3512 51 45.0602 50.7083 45.0602 50.3489L45.0609 43.8548C45.0609 42.4909 45.4574 41.194 46.2074 40.1035C47.5133 38.2044 48.2034 35.9772 48.2034 33.6634C48.2034 27.3985 43.0804 22.3014 36.7829 22.3014C35.1084 22.3014 33.4821 22.668 31.9489 23.3906C28.3447 25.1191 25.8714 28.6263 25.4977 32.5417C25.4541 32.9968 25.4365 33.4564 25.4463 33.9082C25.471 35.0931 25.221 36.3151 24.7034 37.5416L23.3187 40.8203C23.2855 40.8991 23.307 40.9668 23.3232 40.9993C23.3395 41.0332 23.3792 41.0931 23.4639 41.1166L25.1123 41.5742C25.7047 41.7396 26.137 42.2389 26.2152 42.8483L26.9254 47.2767C26.9307 47.3105 26.9339 47.3444 26.9339 47.3783C26.9352 48.0274 27.4645 48.556 28.1142 48.556H32.2451C33.8304 48.556 35.1207 47.2663 35.1207 45.6803C35.1207 45.3203 35.4124 45.0293 35.7718 45.0293C36.1312 45.0293 36.4229 45.3203 36.4229 45.6803C36.4229 47.9837 34.5491 49.8581 32.2451 49.8581H28.1142C26.7672 49.8581 25.665 48.7767 25.6325 47.4362L24.9268 43.0339C24.9124 42.9251 24.8493 42.8528 24.764 42.8288L23.1156 42.3724C22.6937 42.2546 22.3415 41.9616 22.1514 41.5677C21.9613 41.1745 21.9495 40.7168 22.1201 40.3138L23.5042 37.0358C23.9508 35.9792 24.1663 34.9369 24.1449 33.9368C24.1344 33.4349 24.1533 32.9238 24.2015 32.4179C24.6188 28.0508 27.3734 24.1419 31.3903 22.2155C33.1025 21.4082 34.9157 21 36.7835 21C43.7985 21 49.5062 26.681 49.5062 33.6641C49.5062 36.2422 48.7367 38.7246 47.2809 40.8424C46.6806 41.7148 46.3636 42.7559 46.3636 43.8555L46.3629 50.3496C46.3623 50.709 46.0706 51 45.7113 51Z" fill="#FA5560" stroke="#FA5560" stroke-width="0.3"/>
<path d="M43.1952 33.3599C43.0773 33.3599 42.9582 33.3281 42.8514 33.261C42.5461 33.0709 42.4536 32.6692 42.6437 32.3645C42.91 31.9374 43.0513 31.4446 43.0513 30.9394C43.0513 29.453 41.8423 28.2434 40.3553 28.2434C40.2147 28.2434 40.0767 28.2545 39.9419 28.2747C39.6509 28.3215 39.367 28.164 39.2479 27.8958C38.7225 26.7148 37.5715 25.9517 36.315 25.9517C34.546 25.9517 33.1066 27.3905 33.1066 29.1601C33.1066 29.2968 33.1151 29.4315 33.132 29.5644C33.1769 29.9211 32.9243 30.2466 32.5675 30.2916C32.2147 30.3359 31.8859 30.0839 31.8403 29.7272C31.8169 29.5416 31.8052 29.3522 31.8052 29.1601C31.8052 26.6731 33.8286 24.6497 36.3156 24.6497C37.9295 24.6497 39.4171 25.5357 40.2238 26.9433C40.2674 26.942 40.3123 26.9413 40.356 26.9413C42.5604 26.9413 44.354 28.7349 44.354 30.9394C44.354 31.6887 44.145 32.4198 43.7492 33.054C43.6248 33.2519 43.4126 33.3599 43.1952 33.3599Z" fill="#FA5560" stroke="#FA5560" stroke-width="0.3"/>
<path d="M32.0019 35.8723C29.7975 35.8723 28.0039 34.0787 28.0039 31.8743C28.0039 29.6699 29.7975 27.8762 32.0019 27.8762C32.0703 27.8762 32.1387 27.8775 32.207 27.8814C32.5664 27.899 32.8431 28.205 32.8249 28.5637C32.8073 28.9231 32.5039 29.2043 32.1426 29.1816C32.0964 29.1796 32.0495 29.1783 32.0026 29.1783C30.5163 29.1783 29.3066 30.3873 29.3066 31.8743C29.3066 33.3612 30.5156 34.5702 32.0026 34.5702C32.362 34.5702 32.6537 34.8619 32.6537 35.2212C32.6537 35.5806 32.3613 35.8723 32.0019 35.8723Z" fill="#FA5560" stroke="#FA5560" stroke-width="0.3"/>
<path d="M42.3744 37.7117C40.4864 37.7117 38.9492 36.1752 38.9492 34.2866C38.9492 33.9272 39.2402 33.6355 39.6003 33.6355C39.9603 33.6355 40.2513 33.9272 40.2513 34.2866C40.2513 35.4572 41.2038 36.4096 42.3744 36.4096C43.5449 36.4096 44.4974 35.4572 44.4974 34.2866C44.4974 33.5411 44.099 32.8419 43.457 32.4597C43.1478 32.2761 43.0469 31.8764 43.2305 31.5672C43.4141 31.2579 43.8132 31.157 44.1231 31.3406C45.1569 31.9558 45.7988 33.0848 45.7988 34.2859C45.7995 36.1752 44.2624 37.7117 42.3744 37.7117Z" fill="#FA5560" stroke="#FA5560" stroke-width="0.3"/>
<path d="M38.9267 34.8607C38.1402 34.8607 37.3635 34.5007 36.8615 33.8204C36.648 33.5306 36.7098 33.1231 36.9989 32.9102C37.288 32.6967 37.6955 32.7585 37.9091 33.0476C38.3212 33.6062 39.1109 33.726 39.6695 33.3145C40.0608 33.0268 40.2489 32.5508 40.1616 32.0736C40.0965 31.7201 40.331 31.3809 40.6851 31.3158C41.0393 31.2553 41.3778 31.4857 41.4423 31.8392C41.62 32.81 41.2372 33.7768 40.4429 34.3621C39.9866 34.698 39.4547 34.8607 38.9267 34.8607Z" fill="#FA5560" stroke="#FA5560" stroke-width="0.3"/>
<path d="M38.3935 31.9005C38.3609 31.9005 38.3278 31.8985 38.2952 31.8933C37.9397 31.8393 37.6956 31.5072 37.7496 31.1518C37.7998 30.8191 37.7177 30.487 37.5185 30.2162C37.3186 29.9454 37.0256 29.7683 36.6929 29.7182C36.2138 29.6446 35.7437 29.8484 35.4683 30.2475C35.2639 30.5431 34.8577 30.6166 34.5628 30.4128C34.2665 30.2084 34.193 29.8028 34.3974 29.5072C34.9586 28.6947 35.9163 28.2846 36.8883 28.4304C37.5647 28.5327 38.1611 28.892 38.5673 29.4428C38.9729 29.9936 39.1402 30.6694 39.0374 31.3458C38.9872 31.6693 38.7099 31.9005 38.3935 31.9005Z" fill="#FA5560" stroke="#FA5560" stroke-width="0.3"/>
<path d="M38.2679 42.1479C37.9079 42.1479 37.6168 41.8569 37.6168 41.4969V39.6414C37.6168 38.7619 36.9014 38.047 36.0224 38.047H34.6117C33.0635 38.047 31.8037 36.7873 31.8037 35.2391C31.8037 33.6909 33.0635 32.4312 34.6117 32.4312C34.971 32.4312 35.2627 32.7228 35.2627 33.0822C35.2627 33.4416 34.971 33.7332 34.6117 33.7332C33.7816 33.7332 33.1058 34.409 33.1058 35.2391C33.1058 36.0691 33.7816 36.7449 34.6117 36.7449H36.0224C37.6195 36.7449 38.9189 38.0444 38.9189 39.6414V41.4969C38.9189 41.8569 38.6279 42.1479 38.2679 42.1479Z" fill="#FA5560" stroke="#FA5560" stroke-width="0.3"/>
</svg>
