<svg width="11" height="15" viewBox="0 0 11 15" fill="none" xmlns="http://www.w3.org/2000/svg">
<path d="M10.2359 5.13815L10.0048 12.1506C9.98515 12.7512 9.73287 13.3204 9.30152 13.7375C8.87017 14.1546 8.29372 14.3867 7.69451 14.3846H3.30491C2.70609 14.3868 2.12997 14.155 1.69869 13.7384C1.2674 13.3217 1.01486 12.7531 0.994592 12.1529L0.76356 5.13815C0.758505 4.98453 0.814509 4.83519 0.919252 4.72299C1.02399 4.61078 1.1689 4.5449 1.32208 4.53983C1.47526 4.53476 1.62418 4.59092 1.73607 4.69596C1.84796 4.80099 1.91366 4.9463 1.91872 5.09992L2.14975 12.1141C2.16125 12.4135 2.28802 12.6969 2.50342 12.9046C2.71882 13.1122 3.00609 13.2281 3.30491 13.2279H7.69451C7.99371 13.2281 8.28132 13.1119 8.49678 12.9037C8.71224 12.6955 8.83875 12.4116 8.84967 12.1118L9.0807 5.09992C9.08576 4.9463 9.15146 4.80099 9.26335 4.69596C9.37524 4.59092 9.52416 4.53476 9.67734 4.53983C9.83053 4.5449 9.97543 4.61078 10.0802 4.72299C10.1849 4.83519 10.2409 4.98453 10.2359 5.13815ZM11 2.80452C11 2.95814 10.9391 3.10546 10.8308 3.21408C10.7225 3.32271 10.5756 3.38373 10.4224 3.38373H0.577579C0.424396 3.38373 0.277486 3.32271 0.169169 3.21408C0.0608518 3.10546 0 2.95814 0 2.80452C0 2.65091 0.0608518 2.50359 0.169169 2.39496C0.277486 2.28634 0.424396 2.22532 0.577579 2.22532H2.36808C2.55108 2.22581 2.72772 2.15801 2.86363 2.0351C2.99953 1.9122 3.08498 1.74298 3.10333 1.56039C3.14596 1.13206 3.34607 0.734979 3.66468 0.44652C3.98329 0.158062 4.39758 -0.00111399 4.82683 5.86903e-06H6.17259C6.60184 -0.00111399 7.01613 0.158062 7.33474 0.44652C7.65335 0.734979 7.85347 1.13206 7.89609 1.56039C7.91445 1.74298 7.99989 1.9122 8.1358 2.0351C8.2717 2.15801 8.44834 2.22581 8.63135 2.22532H10.4218C10.575 2.22532 10.7219 2.28634 10.8303 2.39496C10.9386 2.50359 10.9994 2.65091 10.9994 2.80452H11ZM4.10601 2.22532H6.89457C6.81867 2.05141 6.76903 1.86713 6.74728 1.67855C6.73297 1.53578 6.66633 1.40342 6.56026 1.30711C6.45419 1.2108 6.31625 1.1574 6.17317 1.15726H4.82741C4.68432 1.1574 4.54638 1.2108 4.44032 1.30711C4.33425 1.40342 4.2676 1.53578 4.25329 1.67855C4.23137 1.86716 4.18153 2.05144 4.10543 2.22532H4.10601ZM4.68763 11.0009V6.06893C4.68763 5.91532 4.62678 5.76799 4.51847 5.65937C4.41015 5.55075 4.26324 5.48973 4.11005 5.48973C3.95687 5.48973 3.80996 5.55075 3.70164 5.65937C3.59333 5.76799 3.53248 5.91532 3.53248 6.06893V11.0032C3.53248 11.1568 3.59333 11.3041 3.70164 11.4128C3.80996 11.5214 3.95687 11.5824 4.11005 11.5824C4.26324 11.5824 4.41015 11.5214 4.51847 11.4128C4.62678 11.3041 4.68763 11.1568 4.68763 11.0032V11.0009ZM7.4681 11.0009V6.06893C7.4681 5.91532 7.40725 5.76799 7.29893 5.65937C7.19062 5.55075 7.04371 5.48973 6.89052 5.48973C6.73734 5.48973 6.59043 5.55075 6.48211 5.65937C6.3738 5.76799 6.31294 5.91532 6.31294 6.06893V11.0032C6.31294 11.1568 6.3738 11.3041 6.48211 11.4128C6.59043 11.5214 6.73734 11.5824 6.89052 11.5824C7.04371 11.5824 7.19062 11.5214 7.29893 11.4128C7.40725 11.3041 7.4681 11.1568 7.4681 11.0032V11.0009Z" fill="#EC7165"/>
</svg>
