<svg width="21" height="17" viewBox="0 0 21 17" fill="none" xmlns="http://www.w3.org/2000/svg">
<path d="M17.15 1H3.85C3.09413 1 2.36922 1.29632 1.83475 1.82376C1.30027 2.35121 1 3.06658 1 3.8125V13.1875C1 13.9334 1.30027 14.6488 1.83475 15.1762C2.36922 15.7037 3.09413 16 3.85 16H17.15C17.9059 16 18.6308 15.7037 19.1653 15.1762C19.6997 14.6488 20 13.9334 20 13.1875V3.8125C20 3.06658 19.6997 2.35121 19.1653 1.82376C18.6308 1.29632 17.9059 1 17.15 1ZM16.7605 2.875L11.1745 8.3875C11.0862 8.47537 10.9811 8.54511 10.8653 8.59271C10.7496 8.64031 10.6254 8.66481 10.5 8.66481C10.3746 8.66481 10.2504 8.64031 10.1347 8.59271C10.0189 8.54511 9.91381 8.47537 9.8255 8.3875L4.2395 2.875H16.7605ZM18.1 13.1875C18.1 13.4361 17.9999 13.6746 17.8218 13.8504C17.6436 14.0262 17.402 14.125 17.15 14.125H3.85C3.59804 14.125 3.35641 14.0262 3.17825 13.8504C3.00009 13.6746 2.9 13.4361 2.9 13.1875V4.19687L8.486 9.70938C9.02038 10.2361 9.74475 10.5319 10.5 10.5319C11.2553 10.5319 11.9796 10.2361 12.514 9.70938L18.1 4.19687V13.1875Z" fill="#FA5560" stroke="#2F3234" stroke-width="0.4"/>
</svg>
