<svg width="72" height="72" viewBox="0 0 72 72" fill="none" xmlns="http://www.w3.org/2000/svg">
<rect width="72" height="72" rx="5" fill="#FAFBFC"/>
<path d="M45.95 25H27.05C25.9759 25 24.9457 25.4148 24.1862 26.1533C23.4267 26.8917 23 27.8932 23 28.9375V42.0625C23 43.1068 23.4267 44.1083 24.1862 44.8467C24.9457 45.5852 25.9759 46 27.05 46H45.95C47.0241 46 48.0543 45.5852 48.8138 44.8467C49.5733 44.1083 50 43.1068 50 42.0625V28.9375C50 27.8932 49.5733 26.8917 48.8138 26.1533C48.0543 25.4148 47.0241 25 45.95 25ZM45.3965 27.625L37.4585 35.3425C37.333 35.4655 37.1837 35.5632 37.0192 35.6298C36.8547 35.6964 36.6782 35.7307 36.5 35.7307C36.3218 35.7307 36.1453 35.6964 35.9808 35.6298C35.8163 35.5632 35.667 35.4655 35.5415 35.3425L27.6035 27.625H45.3965ZM47.3 42.0625C47.3 42.4106 47.1578 42.7444 46.9046 42.9906C46.6514 43.2367 46.308 43.375 45.95 43.375H27.05C26.692 43.375 26.3486 43.2367 26.0954 42.9906C25.8422 42.7444 25.7 42.4106 25.7 42.0625V29.4756L33.638 37.1931C34.3974 37.9305 35.4267 38.3447 36.5 38.3447C37.5733 38.3447 38.6026 37.9305 39.362 37.1931L47.3 29.4756V42.0625Z" fill="#FA5560" stroke="#FAFBFC" stroke-width="0.4"/>
</svg>
