<svg width="212" height="63" viewBox="0 0 212 63" fill="none" xmlns="http://www.w3.org/2000/svg">
<path fill-rule="evenodd" clip-rule="evenodd" d="M31.9147 31.4959C30.7517 35.294 30.2462 37.895 30.6226 40.6441C30.6779 40.9391 30.7315 41.2348 30.7741 41.5276C31.0594 42.9258 31.5718 44.4 32.3395 46.1111H25.2068C27.6723 40.6003 27.3761 34.8502 25.2068 28.9353C26.375 30.4707 27.3784 32.0406 28.2031 33.656C28.5259 34.2814 28.8164 34.9113 29.0872 35.5499C29.848 34.286 30.7874 32.9748 31.9153 31.4959" fill="white"/>
<path fill-rule="evenodd" clip-rule="evenodd" d="M30.2442 23.2384C30.2442 21.9116 29.6581 20.7584 28.7872 20.1377C27.9135 20.7584 27.3274 21.9116 27.3274 23.2384C27.3274 24.4285 27.9971 25.4751 28.7198 26.1264H28.7861C29.5123 25.4751 30.2442 24.4285 30.2442 23.2384Z" fill="#FA5560"/>
<path fill-rule="evenodd" clip-rule="evenodd" d="M34.0656 25.1078C34.7295 23.9615 34.7998 22.6648 34.3549 21.6965C33.2875 21.7939 32.204 22.4999 31.5418 23.6463C30.947 24.6796 31.0577 25.9568 31.3585 26.8772C32.3095 26.6772 33.4743 26.1326 34.0656 25.1078Z" fill="#FA5560"/>
<path fill-rule="evenodd" clip-rule="evenodd" d="M35.0289 28.8213C35.9562 28.2871 36.5273 27.4099 36.6063 26.5523C35.8236 26.1938 34.7782 26.2503 33.852 26.7823C33.0204 27.2618 32.5795 28.1977 32.4204 28.9712C33.1696 29.2161 34.199 29.3054 35.0289 28.8213Z" fill="#FA5560"/>
<path fill-rule="evenodd" clip-rule="evenodd" d="M35.4774 32.9552C36.8018 32.9552 37.9591 32.3731 38.5792 31.4936C37.9591 30.6251 36.8018 30.0413 35.4774 30.0413C34.2931 30.0413 33.2407 30.8337 32.5906 31.5633C33.2407 32.2884 34.2931 32.9552 35.4774 32.9552Z" fill="#FA5560"/>
<path fill-rule="evenodd" clip-rule="evenodd" d="M34.2114 35.6499C34.9964 36.1041 35.8868 36.1473 36.5519 35.8453C36.4845 35.1157 35.9969 34.3688 35.2119 33.9129C34.5054 33.5089 33.6293 33.5849 32.9954 33.7872C33.1331 34.4431 33.5054 35.2379 34.2114 35.6499Z" fill="#FA5560"/>
<path fill-rule="evenodd" clip-rule="evenodd" d="M22.4172 33.2203C21.2698 33.8826 20.5643 34.9684 20.4629 36.0363C21.4346 36.4835 22.7296 36.4098 23.8765 35.7476C24.9047 35.1591 25.4487 33.9909 25.651 33.0423C24.7249 32.7403 23.446 32.6319 22.4178 33.2203" fill="#FA5560"/>
<path fill-rule="evenodd" clip-rule="evenodd" d="M22.6234 30.1392C21.6137 30.1392 20.7302 30.5864 20.2576 31.2555C20.7302 31.92 21.6137 32.3673 22.6234 32.3673C23.5282 32.3673 24.3311 31.7765 24.8285 31.2204C24.3311 30.6688 23.5277 30.1392 22.6234 30.1392Z" fill="#FA5560"/>
<path fill-rule="evenodd" clip-rule="evenodd" d="M22.6841 25.8393C21.5366 25.1748 20.2427 25.108 19.2693 25.5569C19.3701 26.6168 20.0762 27.7026 21.2236 28.3665C22.2518 28.9613 23.5284 28.8489 24.4551 28.5469C24.2557 27.596 23.7116 26.4341 22.6835 25.8393" fill="#FA5560"/>
<path fill-rule="evenodd" clip-rule="evenodd" d="M25.7737 23.0648C25.1115 21.9185 24.0257 21.2125 22.9606 21.1082C22.5151 22.0827 22.5837 23.3772 23.2459 24.5235C23.8407 25.5482 25.0003 26.0934 25.9547 26.2951C26.259 25.3701 26.3662 24.0953 25.7737 23.0642" fill="#FA5560"/>
<path fill-rule="evenodd" clip-rule="evenodd" d="M31.6855 28.539C31.3743 27.5143 30.6463 26.7605 29.8268 26.489C29.2983 27.1772 29.1179 28.2065 29.4337 29.2272C29.7133 30.1458 30.5293 30.7821 31.2446 31.1118C31.6497 30.4432 31.9661 29.4525 31.6855 28.5385" fill="#FA5560"/>
<path fill-rule="evenodd" clip-rule="evenodd" d="M28.4641 29.3224C28.6854 28.402 28.5597 27.4764 28.1915 26.8621C27.614 27.1076 27.1056 27.7848 26.8878 28.7034C26.6907 29.5259 26.9126 30.4082 27.1979 31.0116C27.6987 30.7166 28.2675 30.1454 28.4641 29.3224Z" fill="#FA5560"/>
<path fill-rule="evenodd" clip-rule="evenodd" d="M26.2519 27.733C26.4819 27.3163 26.4968 26.8512 26.332 26.502C25.9488 26.5521 25.5609 26.808 25.3344 27.2247C25.1292 27.5981 25.1782 28.0627 25.2923 28.3883C25.6323 28.3082 26.0456 28.1082 26.2525 27.7324" fill="#FA5560"/>
<path d="M31.1107 3.18942V2.18718C31.1107 0.979233 30.1315 0 28.9235 0C27.7156 0 26.7363 0.979232 26.7363 2.18718V3.18942C26.7363 4.39736 27.7156 5.3766 28.9235 5.3766C30.1315 5.3766 31.1107 4.39737 31.1107 3.18942Z" fill="white"/>
<path d="M17.9499 5.54108L17.4486 4.6732C16.8445 3.62733 15.507 3.26919 14.4611 3.87327C13.4152 4.47734 13.0571 5.81488 13.6612 6.86075L14.1624 7.72863C14.7665 8.7745 16.104 9.13264 17.1499 8.52857C18.1958 7.92449 18.5539 6.58695 17.9499 5.54108Z" fill="white"/>
<path d="M3.87581 14.4622C4.47984 13.4161 5.8175 13.0577 6.8636 13.6617L7.73058 14.1623C8.77682 14.7664 9.13513 16.1043 8.53081 17.1504C7.92681 18.1959 6.5898 18.5542 5.54396 17.9507L4.67683 17.4504C3.6303 16.8465 3.27163 15.5085 3.87581 14.4622Z" fill="white"/>
<path d="M3.18884 26.739H2.1866C0.978975 26.739 0 27.718 0 28.9256C0 30.1332 0.978976 31.1122 2.1866 31.1122H3.18884C4.39647 31.1122 5.37544 30.1332 5.37544 28.9256C5.37544 27.718 4.39647 26.739 3.18884 26.739Z" fill="white"/>
<path d="M5.54531 39.8962L4.67975 40.3957C3.63326 40.9997 3.27451 42.3376 3.87846 43.3841C4.48241 44.4306 5.82036 44.7893 6.86685 44.1854L7.7324 43.6859C8.7789 43.0819 9.13765 41.744 8.5337 40.6975C7.92975 39.651 6.5918 39.2922 5.54531 39.8962Z" fill="white"/>
<path d="M43.3868 3.87489C44.4327 4.47867 44.7912 5.81594 44.1875 6.8619L43.6868 7.72948C43.0831 8.77561 41.7456 9.13419 40.6995 8.53038C39.6534 7.92658 39.2949 6.5891 39.8988 5.54305L40.3995 4.67552C41.0034 3.62949 42.3408 3.27103 43.3868 3.87489Z" fill="white"/>
<path d="M53.9728 14.4627C54.5765 15.5088 54.2178 16.8463 53.1716 17.45L52.3041 17.9505C51.2582 18.554 49.9211 18.1955 49.3174 17.1497C48.7137 16.1039 49.072 14.7667 50.1177 14.1628L50.9851 13.662C52.0312 13.0579 53.369 13.4164 53.9728 14.4627Z" fill="white"/>
<path d="M55.6615 26.739H54.6593C53.4516 26.739 52.4727 27.718 52.4727 28.9256C52.4727 30.1332 53.4516 31.1122 54.6593 31.1122H55.6615C56.8691 31.1122 57.8481 30.1332 57.8481 28.9256C57.8481 27.718 56.8691 26.739 55.6615 26.739Z" fill="white"/>
<path d="M53.9726 43.3858C53.3688 44.432 52.0313 44.7907 50.9851 44.1871L50.1189 43.6873C49.0726 43.0837 48.7137 41.7461 49.3173 40.6998C49.921 39.6533 51.2587 39.2944 52.3051 39.8982L53.1713 40.398C54.2177 41.0017 54.5764 42.3395 53.9726 43.3858Z" fill="white"/>
<path d="M40.7891 17.2019C37.7536 14.1641 33.559 12.2858 28.9247 12.2858C24.2905 12.2858 20.0971 14.1641 17.0604 17.2019C14.0248 20.2374 12.1471 24.4326 12.1471 29.0663C12.1471 33.7 14.0254 37.8928 17.0604 40.9283C20.0976 43.9662 24.2922 45.8421 28.9247 45.8421C33.5573 45.8421 37.7536 43.9662 40.7891 40.9283C43.8264 37.8928 45.7041 33.6977 45.7041 29.0663C45.7041 24.4349 43.8258 20.2374 40.7891 17.2019ZM28.9247 7.9126C34.767 7.9126 40.0543 10.2796 43.8828 14.1076C47.7114 17.9362 50.079 23.2228 50.079 29.0663C50.079 34.9097 47.7114 40.1947 43.8828 44.0227C40.0543 47.8483 34.7676 50.2176 28.9247 50.2176C23.0819 50.2176 17.7958 47.8483 13.9684 44.0227C10.1398 40.1941 7.77222 34.9074 7.77222 29.0663C7.77222 23.2251 10.1398 17.9356 13.9684 14.1076C17.7958 10.279 23.0836 7.9126 28.9247 7.9126Z" fill="white"/>
<path d="M38.038 52.3296H19.7542C18.7096 52.3296 17.8628 53.1764 17.8628 54.221C17.8628 55.2656 18.7096 56.1124 19.7542 56.1124H38.038C39.0826 56.1124 39.9295 55.2656 39.9295 54.221C39.9295 53.1764 39.0826 52.3296 38.038 52.3296Z" fill="white"/>
<path d="M34.5673 58.6729H23.2825C22.2379 58.6729 21.3911 59.5197 21.3911 60.5643C21.3911 61.6089 22.2379 62.4557 23.2825 62.4557H34.5673C35.6119 62.4557 36.4587 61.6089 36.4587 60.5643C36.4587 59.5197 35.6119 58.6729 34.5673 58.6729Z" fill="white"/>
<path d="M85.0925 28.9948V24.7377H67.7043V28.9948H74.09V45.7234H78.7068V28.9948H85.0925ZM106.874 45.7234V24.7377H102.257V33.042H93.7428V24.7377H89.126V45.7234H93.7428V37.2991H102.257V45.7234H106.874ZM117.213 45.7234V24.7377H112.596V45.7234H117.213ZM141.588 45.7234V24.7377H137.031V37.6589L127.197 24.7377H122.94V45.7234H127.497V32.3825L137.66 45.7234H141.588Z" fill="white"/>
<path d="M166.07 45.7234L157.137 33.6416L165.681 24.7377H160.105L151.59 33.9114V24.7377H146.973V45.7234H151.59V39.3078L154.019 36.7895L160.524 45.7234H166.07Z" fill="white"/>
<path d="M188.833 45.7234L179.899 33.6416L188.443 24.7377H182.867L174.353 33.9114V24.7377H169.736V45.7234H174.353V39.3078L176.781 36.7895L183.287 45.7234H188.833Z" fill="white"/>
<path d="M210.762 45.7234L201.828 33.6416L210.372 24.7377H204.796L196.282 33.9114V24.7377H191.665V45.7234H196.282V39.3078L198.71 36.7895L205.216 45.7234H210.762Z" fill="#FA5560"/>
</svg>
