<svg width="72" height="72" viewBox="0 0 72 72" fill="none" xmlns="http://www.w3.org/2000/svg">
<rect width="72" height="72" rx="5" fill="#FAFBFC"/>
<path d="M38.1423 38.1428H33.8567C33.2884 38.1428 32.7434 38.3686 32.3415 38.7704C31.9396 39.1723 31.7139 39.7173 31.7139 40.2856V48.8568C31.7139 49.4251 31.9396 49.9701 32.3415 50.372C32.7434 50.7738 33.2884 50.9996 33.8567 50.9996H38.1423C38.7106 50.9996 39.2556 50.7738 39.6575 50.372C40.0593 49.9701 40.285 49.4251 40.285 48.8568V40.2856C40.285 39.7173 40.0593 39.1723 39.6575 38.7704C39.2556 38.3686 38.7106 38.1428 38.1423 38.1428ZM33.8567 48.8568V40.2856H38.1423V48.8568H33.8567Z" fill="#FA5560"/>
<path d="M27.4284 41.3572H23.1428C22.5745 41.3572 22.0295 41.583 21.6276 41.9848C21.2258 42.3867 21 42.9317 21 43.5V48.857C21 49.4253 21.2258 49.9703 21.6276 50.3722C22.0295 50.774 22.5745 50.9998 23.1428 50.9998H27.4284C27.9967 50.9998 28.5417 50.774 28.9436 50.3722C29.3454 49.9703 29.5712 49.4253 29.5712 48.857V43.5C29.5712 42.9317 29.3454 42.3867 28.9436 41.9848C28.5417 41.583 27.9967 41.3572 27.4284 41.3572ZM23.1428 48.857V43.5H27.4284V48.857H23.1428Z" fill="#FA5560"/>
<path d="M48.8575 32.7856H44.572C44.0037 32.7856 43.4586 33.0114 43.0568 33.4133C42.6549 33.8151 42.4292 34.3601 42.4292 34.9285V48.8566C42.4292 49.4249 42.6549 49.9699 43.0568 50.3718C43.4586 50.7737 44.0037 50.9994 44.572 50.9994H48.8575C49.4258 50.9994 49.9709 50.7737 50.3727 50.3718C50.7746 49.9699 51.0004 49.4249 51.0004 48.8566V34.9285C51.0004 34.3601 50.7746 33.8151 50.3727 33.4133C49.9709 33.0114 49.4258 32.7856 48.8575 32.7856ZM44.572 48.8566V34.9285H48.8575V48.8566H44.572Z" fill="#FA5560"/>
<path d="M47.7849 21H42.428C42.1438 21 41.8713 21.1129 41.6704 21.3138C41.4694 21.5147 41.3566 21.7872 41.3566 22.0714C41.3566 22.3556 41.4694 22.6281 41.6704 22.829C41.8713 23.0299 42.1438 23.1428 42.428 23.1428H45.295C42.4101 26.1522 39.1018 28.725 35.4746 30.7797C32.1883 32.6248 28.6736 34.0297 25.0209 34.9582C24.8839 34.9923 24.755 35.0532 24.6416 35.1373C24.5282 35.2214 24.4326 35.3271 24.3602 35.4483C24.2877 35.5695 24.24 35.7038 24.2197 35.8436C24.1993 35.9832 24.2068 36.1256 24.2417 36.2624C24.2766 36.3993 24.3381 36.5279 24.4229 36.6408C24.5076 36.7537 24.6138 36.8488 24.7354 36.9205C24.857 36.9923 24.9916 37.0393 25.1314 37.0588C25.2713 37.0785 25.4136 37.0702 25.5502 37.0345C29.3851 36.0576 33.0748 34.5807 36.5245 32.6418C40.2799 30.5206 43.7113 27.8711 46.7135 24.7745V27.4284C46.7135 27.7125 46.8264 27.9851 47.0274 28.186C47.2282 28.3869 47.5007 28.4998 47.7849 28.4998C48.0691 28.4998 48.3416 28.3869 48.5425 28.186C48.7434 27.9851 48.8564 27.7125 48.8564 27.4284V22.0714C48.8564 21.7872 48.7434 21.5147 48.5425 21.3138C48.3416 21.1129 48.0691 21 47.7849 21Z" fill="#FA5560"/>
</svg>
