<svg width="16" height="20" viewBox="0 0 16 20" fill="none" xmlns="http://www.w3.org/2000/svg">
<path d="M7.85714 20C8.01826 19.9991 8.17433 19.9437 8.3 19.8429C8.57143 19.6 15.7143 13.8429 15.7143 7.85714C15.7143 5.7733 14.8865 3.7748 13.413 2.3013C11.9395 0.827804 9.94099 0 7.85714 0C5.7733 0 3.7748 0.827804 2.3013 2.3013C0.827804 3.7748 0 5.7733 0 7.85714C0 13.8429 7.14286 19.6 7.41429 19.8429C7.53996 19.9437 7.69603 19.9991 7.85714 20ZM1.42857 7.85714C1.42857 6.15218 2.10587 4.51705 3.31146 3.31146C4.51705 2.10587 6.15218 1.42857 7.85714 1.42857C9.56211 1.42857 11.1972 2.10587 12.4028 3.31146C13.6084 4.51705 14.2857 6.15218 14.2857 7.85714C14.2857 12.3571 9.37857 17.0071 7.85714 18.35C6.33571 17.0071 1.42857 12.3571 1.42857 7.85714Z" fill="#FA5560"/>
<path d="M11.429 7.85756C11.429 7.1512 11.2195 6.4607 10.8271 5.87338C10.4347 5.28607 9.87688 4.82831 9.22429 4.55799C8.5717 4.28768 7.8536 4.21695 7.16081 4.35476C6.46802 4.49256 5.83166 4.83271 5.33218 5.33218C4.83271 5.83166 4.49256 6.46802 4.35476 7.16081C4.21695 7.8536 4.28768 8.5717 4.55799 9.22429C4.82831 9.87688 5.28607 10.4347 5.87338 10.8271C6.4607 11.2195 7.1512 11.429 7.85756 11.429C8.80476 11.429 9.71317 11.0527 10.3829 10.3829C11.0527 9.71317 11.429 8.80476 11.429 7.85756ZM5.71471 7.85756C5.71471 7.43375 5.84038 7.01945 6.07584 6.66706C6.3113 6.31466 6.64597 6.04001 7.03753 5.87782C7.42908 5.71563 7.85994 5.6732 8.27561 5.75588C8.69129 5.83856 9.07311 6.04265 9.37279 6.34233C9.67248 6.64202 9.87656 7.02384 9.95925 7.43951C10.0419 7.85519 9.99949 8.28604 9.83731 8.6776C9.67512 9.06916 9.40046 9.40382 9.04807 9.63928C8.69568 9.87474 8.28138 10.0004 7.85756 10.0004C7.28924 10.0004 6.7442 9.77466 6.34233 9.37279C5.94047 8.97093 5.71471 8.42588 5.71471 7.85756Z" fill="#FA5560"/>
</svg>
