<svg width="72" height="72" viewBox="0 0 72 72" fill="none" xmlns="http://www.w3.org/2000/svg">
<rect width="72" height="72" rx="5" fill="#FAFBFC"/>
<path d="M35.8572 47.9999C36.0506 47.9987 36.2379 47.9323 36.3887 47.8113C36.7144 47.5199 45.2857 40.6113 45.2857 33.4285C45.2857 30.9279 44.2924 28.5297 42.5242 26.7615C40.756 24.9934 38.3578 24 35.8572 24C33.3566 24 30.9585 24.9934 29.1903 26.7615C27.4221 28.5297 26.4287 30.9279 26.4287 33.4285C26.4287 40.6113 35.0001 47.5199 35.3258 47.8113C35.4766 47.9323 35.6639 47.9987 35.8572 47.9999ZM28.143 33.4285C28.143 31.3826 28.9557 29.4204 30.4024 27.9737C31.8491 26.527 33.8113 25.7143 35.8572 25.7143C37.9032 25.7143 39.8653 26.527 41.312 27.9737C42.7587 29.4204 43.5715 31.3826 43.5715 33.4285C43.5715 38.8285 37.6829 44.4085 35.8572 46.0199C34.0315 44.4085 28.143 38.8285 28.143 33.4285Z" fill="#FA5560"/>
<path d="M40.1432 33.429C40.1432 32.5814 39.8918 31.7528 39.4209 31.048C38.95 30.3432 38.2806 29.7939 37.4975 29.4695C36.7144 29.1452 35.8527 29.0603 35.0214 29.2257C34.19 29.391 33.4264 29.7992 32.827 30.3986C32.2277 30.9979 31.8195 31.7616 31.6541 32.5929C31.4888 33.4242 31.5736 34.286 31.898 35.0691C32.2224 35.8522 32.7717 36.5215 33.4765 36.9924C34.1812 37.4633 35.0098 37.7147 35.8575 37.7147C36.9941 37.7147 38.0842 37.2632 38.8879 36.4594C39.6916 35.6557 40.1432 34.5656 40.1432 33.429ZM33.2861 33.429C33.2861 32.9204 33.4369 32.4233 33.7194 32.0004C34.002 31.5775 34.4036 31.248 34.8734 31.0533C35.3433 30.8587 35.8603 30.8078 36.3591 30.907C36.8579 31.0062 37.3161 31.2511 37.6757 31.6107C38.0354 31.9704 38.2803 32.4285 38.3795 32.9273C38.4787 33.4262 38.4278 33.9432 38.2331 34.413C38.0385 34.8829 37.7089 35.2845 37.2861 35.5671C36.8632 35.8496 36.366 36.0004 35.8575 36.0004C35.1755 36.0004 34.5214 35.7295 34.0392 35.2473C33.557 34.765 33.2861 34.111 33.2861 33.429Z" fill="#FA5560"/>
</svg>
