<svg width="153" height="45" viewBox="0 0 153 45" fill="none" xmlns="http://www.w3.org/2000/svg">
<path fill-rule="evenodd" clip-rule="evenodd" d="M22.9949 22.6933C22.1569 25.4299 21.7927 27.3039 22.0639 29.2846C22.1038 29.4973 22.1424 29.7103 22.1731 29.9212C22.3786 30.9286 22.7478 31.9909 23.3009 33.2237H18.1618C19.9382 29.2531 19.7248 25.1101 18.1618 20.8484C19.0035 21.9546 19.7264 23.0858 20.3207 24.2497C20.5532 24.7003 20.7625 25.1541 20.9577 25.6142C21.5058 24.7036 22.1822 23.7589 22.9949 22.6933Z" fill="#2F3234"/>
<path fill-rule="evenodd" clip-rule="evenodd" d="M21.7913 16.7435C21.7913 15.7876 21.369 14.9567 20.7415 14.5094C20.112 14.9567 19.6897 15.7876 19.6897 16.7435C19.6897 17.601 20.1722 18.3551 20.6929 18.8243H20.7407C21.2639 18.3551 21.7913 17.601 21.7913 16.7435Z" fill="#FA5560"/>
<path fill-rule="evenodd" clip-rule="evenodd" d="M24.5446 18.0903C25.023 17.2644 25.0736 16.33 24.7531 15.6324C23.984 15.7026 23.2033 16.2113 22.7262 17.0372C22.2977 17.7818 22.3774 18.702 22.5942 19.3651C23.2793 19.221 24.1186 18.8286 24.5446 18.0903Z" fill="#FA5560"/>
<path fill-rule="evenodd" clip-rule="evenodd" d="M25.2387 20.7661C25.9068 20.3811 26.3183 19.7491 26.3752 19.1312C25.8113 18.8729 25.058 18.9136 24.3907 19.2969C23.7915 19.6424 23.4739 20.3168 23.3592 20.874C23.8991 21.0505 24.6407 21.1149 25.2387 20.7661Z" fill="#FA5560"/>
<path fill-rule="evenodd" clip-rule="evenodd" d="M25.5619 23.7444C26.5161 23.7444 27.3499 23.325 27.7968 22.6913C27.3499 22.0655 26.5161 21.6449 25.5619 21.6449C24.7085 21.6449 23.9503 22.2158 23.4819 22.7416C23.9503 23.2639 24.7085 23.7444 25.5619 23.7444Z" fill="#FA5560"/>
<path fill-rule="evenodd" clip-rule="evenodd" d="M24.6497 25.686C25.2153 26.0132 25.8568 26.0443 26.336 25.8268C26.2874 25.301 25.9361 24.7629 25.3706 24.4344C24.8615 24.1433 24.2303 24.1981 23.7735 24.3439C23.8728 24.8164 24.141 25.3891 24.6497 25.686Z" fill="#FA5560"/>
<path fill-rule="evenodd" clip-rule="evenodd" d="M16.1519 23.9356C15.3251 24.4127 14.8168 25.1951 14.7437 25.9645C15.4438 26.2868 16.3769 26.2336 17.2033 25.7565C17.9441 25.3325 18.3361 24.4908 18.4818 23.8073C17.8145 23.5897 16.8927 23.5116 16.1519 23.9356Z" fill="#FA5560"/>
<path fill-rule="evenodd" clip-rule="evenodd" d="M16.3004 21.7156C15.5729 21.7156 14.9363 22.0378 14.5958 22.5199C14.9363 22.9987 15.5729 23.321 16.3004 23.321C16.9524 23.321 17.5308 22.8953 17.8892 22.4946C17.5308 22.0972 16.9519 21.7156 16.3004 21.7156Z" fill="#FA5560"/>
<path fill-rule="evenodd" clip-rule="evenodd" d="M16.3441 18.6177C15.5173 18.1389 14.5851 18.0907 13.8837 18.4142C13.9564 19.1779 14.4651 19.9602 15.2918 20.4386C16.0327 20.8671 16.9524 20.7861 17.6202 20.5685C17.4765 19.8834 17.0849 19.0462 16.3441 18.6177Z" fill="#FA5560"/>
<path fill-rule="evenodd" clip-rule="evenodd" d="M18.5702 16.6186C18.0931 15.7927 17.3108 15.284 16.5434 15.2088C16.2224 15.911 16.2718 16.8437 16.7489 17.6696C17.1775 18.4079 18.013 18.8008 18.7006 18.9461C18.9199 18.2796 18.9971 17.3615 18.5702 16.6186Z" fill="#FA5560"/>
<path fill-rule="evenodd" clip-rule="evenodd" d="M22.8297 20.5628C22.6055 19.8245 22.081 19.2814 21.4905 19.0858C21.1097 19.5816 20.9798 20.3232 21.2073 21.0587C21.4087 21.7206 21.9967 22.179 22.512 22.4165C22.804 21.9348 23.0319 21.2214 22.8297 20.5628Z" fill="#FA5560"/>
<path fill-rule="evenodd" clip-rule="evenodd" d="M20.5087 21.1273C20.6681 20.4641 20.5776 19.7972 20.3122 19.3546C19.8962 19.5315 19.5299 20.0194 19.3729 20.6813C19.2309 21.2739 19.3908 21.9096 19.5963 22.3444C19.9572 22.1318 20.3671 21.7203 20.5087 21.1273Z" fill="#FA5560"/>
<path fill-rule="evenodd" clip-rule="evenodd" d="M18.9148 19.9819C19.0805 19.6817 19.0913 19.3466 18.9725 19.0949C18.6964 19.1311 18.4169 19.3154 18.2537 19.6157C18.1059 19.8848 18.1412 20.2194 18.2234 20.4541C18.4684 20.3963 18.7657 20.2527 18.9148 19.9819Z" fill="#FA5560"/>
<path d="M22.4156 2.29801V1.57588C22.4156 0.705548 21.71 0 20.8397 0C19.9694 0 19.2638 0.705546 19.2638 1.57588V2.29801C19.2638 3.16835 19.9694 3.8739 20.8397 3.8739C21.71 3.8739 22.4156 3.16835 22.4156 2.29801Z" fill="#2F3234"/>
<path d="M12.9331 3.99223L12.5719 3.36692C12.1366 2.61336 11.1729 2.35531 10.4194 2.79055C9.66581 3.2258 9.40777 4.18951 9.84301 4.94307L10.2042 5.56838C10.6394 6.32194 11.6031 6.57999 12.3567 6.14475C13.1103 5.7095 13.3683 4.74579 12.9331 3.99223Z" fill="#2F3234"/>
<path d="M2.79256 10.4203C3.22777 9.66662 4.19157 9.40841 4.94529 9.84359L5.56997 10.2043C6.32379 10.6395 6.58195 11.6035 6.14654 12.3572C5.71135 13.1105 4.74802 13.3687 3.99448 12.9339L3.36971 12.5734C2.61567 12.1383 2.35724 11.1742 2.79256 10.4203Z" fill="#2F3234"/>
<path d="M2.29759 19.2659H1.57547C0.705362 19.2659 0 19.9713 0 20.8414C0 21.7115 0.705362 22.4169 1.57547 22.4169H2.29759C3.1677 22.4169 3.87306 21.7115 3.87306 20.8414C3.87306 19.9713 3.1677 19.2659 2.29759 19.2659Z" fill="#2F3234"/>
<path d="M3.99546 28.7456L3.37181 29.1055C2.6178 29.5407 2.35932 30.5047 2.79447 31.2587C3.22962 32.0127 4.19363 32.2712 4.94763 31.836L5.57128 31.4761C6.32529 31.041 6.58377 30.077 6.14862 29.323C5.71347 28.569 4.74947 28.3105 3.99546 28.7456Z" fill="#2F3234"/>
<path d="M31.2607 2.79172C32.0142 3.22676 32.2725 4.19027 31.8376 4.9439L31.4768 5.569C31.0418 6.32274 30.0781 6.58111 29.3244 6.14605C28.5707 5.71101 28.3124 4.74734 28.7475 3.99365L29.1083 3.36859C29.5434 2.61491 30.507 2.35664 31.2607 2.79172Z" fill="#2F3234"/>
<path d="M38.888 10.4207C39.323 11.1744 39.0645 12.1381 38.3107 12.5731L37.6857 12.9337C36.9321 13.3686 35.9687 13.1102 35.5337 12.3567C35.0987 11.6032 35.3569 10.6397 36.1104 10.2046L36.7353 9.84376C37.4891 9.40852 38.4529 9.66684 38.888 10.4207Z" fill="#2F3234"/>
<path d="M40.1047 19.2659H39.3826C38.5125 19.2659 37.8071 19.9713 37.8071 20.8414C37.8071 21.7115 38.5125 22.4169 39.3826 22.4169H40.1047C40.9748 22.4169 41.6802 21.7115 41.6802 20.8414C41.6802 19.9713 40.9748 19.2659 40.1047 19.2659Z" fill="#2F3234"/>
<path d="M38.8878 31.2598C38.4528 32.0135 37.4891 32.272 36.7353 31.8371L36.1112 31.477C35.3573 31.0421 35.0987 30.0783 35.5336 29.3244C35.9686 28.5704 36.9324 28.3119 37.6864 28.7469L38.3105 29.107C39.0644 29.542 39.3229 30.5059 38.8878 31.2598Z" fill="#2F3234"/>
<path d="M29.389 12.3942C27.2018 10.2054 24.1796 8.85205 20.8406 8.85205C17.5015 8.85205 14.4801 10.2054 12.2922 12.3942C10.105 14.5813 8.75215 17.6039 8.75215 20.9426C8.75215 24.2812 10.1055 27.3022 12.2922 29.4893C14.4806 31.6781 17.5028 33.0297 20.8406 33.0297C24.1784 33.0297 27.2018 31.6781 29.389 29.4893C31.5774 27.3022 32.9303 24.2795 32.9303 20.9426C32.9303 17.6056 31.5769 14.5813 29.389 12.3942ZM20.8406 5.70111C25.05 5.70111 28.8595 7.40656 31.6181 10.1647C34.3766 12.9232 36.0824 16.7323 36.0824 20.9426C36.0824 25.1528 34.3766 28.9607 31.6181 31.7188C28.8595 34.4752 25.0504 36.1823 20.8406 36.1823C16.6307 36.1823 12.822 34.4752 10.0643 31.7188C7.30582 28.9603 5.59996 25.1511 5.59996 20.9426C5.59996 16.734 7.30582 12.9228 10.0643 10.1647C12.822 7.40614 16.632 5.70111 20.8406 5.70111Z" fill="#2F3234"/>
<path d="M27.4068 37.704H14.2331C13.4805 37.704 12.8703 38.3142 12.8703 39.0668C12.8703 39.8195 13.4805 40.4296 14.2331 40.4296H27.4068C28.1595 40.4296 28.7696 39.8195 28.7696 39.0668C28.7696 38.3142 28.1594 37.704 27.4068 37.704Z" fill="#2F3234"/>
<path d="M24.9061 42.2744H16.7753C16.0227 42.2744 15.4125 42.8846 15.4125 43.6372C15.4125 44.3899 16.0227 45 16.7753 45H24.9061C25.6588 45 26.2689 44.3899 26.2689 43.6372C26.2689 42.8846 25.6588 42.2744 24.9061 42.2744Z" fill="#2F3234"/>
<path d="M60.7113 21.0172V17.8244H47.6702V21.0172H52.4594V33.5636H55.9221V21.0172H60.7113Z" fill="#2F3234"/>
<path d="M77.0473 33.5636V17.8244H73.5847V24.0526H67.1991V17.8244H63.7364V33.5636H67.1991V27.2454H73.5847V33.5636H77.0473Z" fill="#2F3234"/>
<path d="M84.8016 33.5636V17.8244H81.339V33.5636H84.8016Z" fill="#2F3234"/>
<path d="M103.083 33.5636V17.8244H99.6649V27.5152L92.2899 17.8244H89.0971V33.5636H92.5147V23.5579L100.137 33.5636H103.083Z" fill="#2F3234"/>
<path d="M119.97 33.5636L113.27 24.5023L119.678 17.8244H115.496L109.11 24.7047V17.8244H105.647V33.5636H109.11V28.7519L110.931 26.8632L115.81 33.5636H119.97Z" fill="#2F3234"/>
<path d="M136.371 33.5636L129.67 24.5023L136.079 17.8244H131.896L125.511 24.7047V17.8244H122.048V33.5636H125.511V28.7519L127.332 26.8632L132.211 33.5636H136.371Z" fill="#2F3234"/>
<path d="M152.171 33.5636L145.47 24.5023L151.878 17.8244H147.696L141.311 24.7047V17.8244H137.848V33.5636H141.311V28.7519L143.132 26.8632L148.011 33.5636H152.171Z" fill="#FA5560"/>
</svg>
