<svg width="13" height="11" viewBox="0 0 13 11" fill="none" xmlns="http://www.w3.org/2000/svg">
<path d="M12.4583 5.66659H0.541667C0.242666 5.66659 0 5.36792 0 4.99992C0 4.63192 0.242666 4.33325 0.541667 4.33325H12.4583C12.7573 4.33325 13 4.63192 13 4.99992C13 5.36792 12.7573 5.66659 12.4583 5.66659Z" fill="#002A3A"/>
<path d="M12.4583 1.33333H0.541667C0.242666 1.33333 0 1.03467 0 0.666667C0 0.298665 0.242666 0 0.541667 0H12.4583C12.7573 0 13 0.298665 13 0.666667C13 1.03467 12.7573 1.33333 12.4583 1.33333Z" fill="#002A3A"/>
<path d="M12.4583 10.3333H0.541667C0.242666 10.3333 0 10.0347 0 9.66667C0 9.29867 0.242666 9 0.541667 9H12.4583C12.7573 9 13 9.29867 13 9.66667C13 10.0347 12.7573 10.3333 12.4583 10.3333Z" fill="#002A3A"/>
</svg>
