<svg width="17" height="17" viewBox="0 0 17 17" fill="none" xmlns="http://www.w3.org/2000/svg">
<path d="M16.2904 11.7118L14.7725 10.1939C14.32 9.74499 13.7092 9.49192 13.0719 9.48921C12.4345 9.4865 11.8216 9.73436 11.3654 10.1794C11.1219 10.4242 10.8007 10.5766 10.457 10.6102C10.1133 10.6438 9.76871 10.5566 9.4824 10.3636C8.35234 9.60941 7.38154 8.64047 6.62518 7.51187C6.43555 7.22236 6.3515 6.87634 6.38719 6.5321C6.42288 6.18785 6.57614 5.86644 6.82114 5.62199C7.2621 5.16527 7.50676 4.55408 7.50277 3.91923C7.49877 3.28438 7.24643 2.67632 6.79975 2.22518L5.28179 0.70721C4.82733 0.254307 4.21189 0 3.57029 0C2.92869 0 2.31325 0.254307 1.85879 0.70721L1.42203 1.14466C-0.854911 3.42162 -0.684486 8.20876 4.05293 12.9435C6.90945 15.8007 9.78461 16.9971 12.1161 16.9971C12.8024 17.02 13.4863 16.906 14.1282 16.6619C14.77 16.4177 15.3568 16.0483 15.8544 15.5751L16.2918 15.1376C16.7456 14.6829 17.0003 14.0668 17 13.4244C16.9997 12.7821 16.7445 12.1661 16.2904 11.7118ZM15.3148 14.162L14.8774 14.5994C13.0834 16.3934 9.1236 16.0656 5.02718 11.9685C0.930762 7.87135 0.60233 3.90875 2.39628 2.11479L2.83028 1.67802C3.02569 1.48332 3.2903 1.374 3.56615 1.374C3.842 1.374 4.1066 1.48332 4.30201 1.67802L5.81997 3.196C6.01183 3.38882 6.12073 3.64899 6.12344 3.92099C6.12615 4.19298 6.02244 4.45527 5.83446 4.65187C5.36822 5.12108 5.07739 5.73627 5.01069 6.39437C4.94399 7.05246 5.10547 7.7135 5.46808 8.26672C6.32749 9.55279 7.43263 10.6563 8.71996 11.5138C9.27152 11.8765 9.93082 12.0389 10.5877 11.974C11.2446 11.909 11.8594 11.6207 12.3293 11.1571C12.5255 10.9669 12.7885 10.8612 13.0618 10.8629C13.3351 10.8646 13.5968 10.9734 13.7906 11.166L15.3086 12.684C15.4064 12.7804 15.4842 12.8953 15.5375 13.0219C15.5908 13.1485 15.6186 13.2843 15.6191 13.4217C15.6197 13.5591 15.5931 13.6952 15.5409 13.8222C15.4887 13.9493 15.4118 14.0647 15.3148 14.162Z" fill="#FA5560"/>
</svg>
