<svg width="30" height="30" viewBox="0 0 30 30" fill="none" xmlns="http://www.w3.org/2000/svg">
<rect width="30" height="30" rx="5" fill="#FA5560"/>
<path d="M14.5568 17.2273H16.2841L17.5 18.8125L18.0739 19.517L20.0114 22.0455H18.2159L16.9205 20.358L16.4773 19.7443L14.5568 17.2273ZM20.3864 15.1818C20.3864 16.4242 20.1591 17.4924 19.7045 18.3864C19.25 19.2765 18.6269 19.9621 17.8352 20.4432C17.0473 20.9205 16.1515 21.1591 15.1477 21.1591C14.1402 21.1591 13.2405 20.9205 12.4489 20.4432C11.661 19.9621 11.0398 19.2746 10.5852 18.3807C10.1307 17.4867 9.90341 16.4205 9.90341 15.1818C9.90341 13.9394 10.1307 12.8731 10.5852 11.983C11.0398 11.089 11.661 10.4034 12.4489 9.92614C13.2405 9.44508 14.1402 9.20455 15.1477 9.20455C16.1515 9.20455 17.0473 9.44508 17.8352 9.92614C18.6269 10.4034 19.25 11.089 19.7045 11.983C20.1591 12.8731 20.3864 13.9394 20.3864 15.1818ZM18.6477 15.1818C18.6477 14.2348 18.4943 13.4375 18.1875 12.7898C17.8845 12.1383 17.4678 11.6458 16.9375 11.3125C16.411 10.9754 15.8144 10.8068 15.1477 10.8068C14.4773 10.8068 13.8788 10.9754 13.3523 11.3125C12.8258 11.6458 12.4091 12.1383 12.1023 12.7898C11.7992 13.4375 11.6477 14.2348 11.6477 15.1818C11.6477 16.1288 11.7992 16.928 12.1023 17.5795C12.4091 18.2273 12.8258 18.7197 13.3523 19.0568C13.8788 19.3902 14.4773 19.5568 15.1477 19.5568C15.8144 19.5568 16.411 19.3902 16.9375 19.0568C17.4678 18.7197 17.8845 18.2273 18.1875 17.5795C18.4943 16.928 18.6477 16.1288 18.6477 15.1818Z" fill="white"/>
</svg>
