<svg width="72" height="72" viewBox="0 0 72 72" fill="none" xmlns="http://www.w3.org/2000/svg">
<rect width="72" height="72" rx="5" fill="#FAFBFC"/>
<path d="M20.7224 51.3294C20.7802 51.6591 21.0942 51.8797 21.424 51.8219L26.3735 50.9561C26.7033 50.8984 26.9238 50.5843 26.8661 50.2546L26.7696 49.7019L27.924 48.7645C28.3763 48.3877 28.9577 48.2021 29.5444 48.2462L37.6159 48.8361C37.6296 48.8373 37.6429 48.8376 37.6565 48.8379H37.7062C39.4873 48.834 41.2213 48.2666 42.6596 47.216C42.6827 47.1992 42.7046 47.1805 42.7253 47.1604L52.3391 37.7471C52.5685 37.5227 52.583 37.1586 52.3729 36.9164C51.2634 35.6359 49.3441 35.453 48.0129 36.5006L43.5971 39.8025C42.6788 38.6851 41.2308 38.1478 39.8061 38.3959L35.2923 39.1853C34.573 39.3103 33.835 39.2718 33.1326 39.0729L32.6279 38.9287C30.034 38.1836 27.2394 38.7638 25.1561 40.4798L24.966 39.3928C24.9083 39.0631 24.5942 38.8426 24.2645 38.9003L19.3152 39.7661C18.9855 39.8242 18.7649 40.1382 18.8227 40.468L20.7224 51.3294ZM32.2964 40.0953L32.8011 40.2391C33.6793 40.4881 34.602 40.536 35.5012 40.38L40.0151 39.5906C41.3083 39.3659 42.5844 40.068 43.0868 41.2808L36.3295 42.4627C36.0193 42.5166 35.802 42.7987 35.8292 43.1122C35.8562 43.4257 36.1184 43.6663 36.4331 43.6663C36.4683 43.6663 36.5036 43.6634 36.5385 43.6571L43.9579 42.3595C44.2877 42.3014 44.5082 41.9874 44.4505 41.6576C44.4022 41.3814 44.325 41.1109 44.2202 40.8507L48.745 37.4673C48.7491 37.464 48.7532 37.4608 48.7574 37.4576C49.411 36.9407 50.3198 36.8927 51.0239 37.3382L41.9084 46.2662C40.6847 47.1494 39.215 47.6269 37.7059 47.6308H37.6832L29.6323 47.0399C28.7354 46.9718 27.8471 47.2546 27.1547 47.8288L26.5301 48.3353L25.4032 41.8924C27.2003 40.0796 29.8428 39.3908 32.2964 40.0953ZM23.8764 40.1992L25.5675 49.8662L21.8123 50.5233L20.1212 40.8563L23.8764 40.1992Z" fill="#FA5560" stroke="#FA5560" stroke-width="0.5"/>
<path d="M37.1832 37.464C41.7295 37.464 45.4151 33.7787 45.4151 29.2323C45.4151 24.6859 41.7298 21.0003 37.1834 21C32.6371 21 28.9515 24.6856 28.9512 29.232C28.9562 33.7763 32.6388 37.459 37.1832 37.464ZM37.1832 22.2125C41.06 22.2125 44.2027 25.3555 44.2027 29.2323C44.2027 33.1091 41.06 36.2518 37.1832 36.2516C33.3064 36.2516 30.1636 33.1088 30.1636 29.232C30.1681 25.3569 33.3084 22.2169 37.1832 22.2125Z" fill="#FA5560" stroke="#FA5560" stroke-width="0.5"/>
<path d="M36.7588 30.5049H40.1505C40.4852 30.5049 40.7567 30.2334 40.7567 29.8987C40.7567 29.5638 40.4852 29.2924 40.1505 29.2924H37.3345V25.4168C37.3345 25.0817 37.063 24.8105 36.7283 24.8105C36.3935 24.8105 36.1221 25.0817 36.1221 25.4168V29.8685C36.1342 30.2147 36.4121 30.493 36.7588 30.5049Z" fill="#FA5560" stroke="#FA5560" stroke-width="0.5"/>
</svg>
