<svg width="72" height="72" viewBox="0 0 72 72" fill="none" xmlns="http://www.w3.org/2000/svg">
<rect width="72" height="72" rx="5" fill="#FAFBFC"/>
<path d="M29.6804 45V42.5256L36.245 36.0902C36.8729 35.4562 37.3961 34.893 37.8146 34.4006C38.2332 33.9081 38.5471 33.4311 38.7564 32.9695C38.9657 32.5078 39.0703 32.0154 39.0703 31.4922C39.0703 30.8951 38.9349 30.3842 38.6641 29.9595C38.3932 29.5286 38.0208 29.1963 37.5469 28.9624C37.0729 28.7285 36.5343 28.6115 35.9311 28.6115C35.3094 28.6115 34.7647 28.7408 34.2969 28.9993C33.8291 29.2517 33.4659 29.6117 33.2074 30.0795C32.955 30.5473 32.8288 31.1044 32.8288 31.7507H29.5696C29.5696 30.5504 29.8435 29.5071 30.3913 28.6207C30.9392 27.7344 31.6932 27.0481 32.6534 26.5618C33.6198 26.0755 34.7277 25.8324 35.9773 25.8324C37.2453 25.8324 38.3594 26.0694 39.3196 26.5433C40.2798 27.0173 41.0246 27.6667 41.554 28.4915C42.0895 29.3163 42.3572 30.258 42.3572 31.3168C42.3572 32.0246 42.2218 32.7202 41.951 33.4034C41.6802 34.0866 41.2031 34.8437 40.5199 35.6747C39.8428 36.5057 38.8918 37.5121 37.6669 38.6939L34.4077 42.0085V42.1378H42.6435V45H29.6804Z" fill="#FA5560"/>
</svg>
