<svg width="72" height="72" viewBox="0 0 72 72" fill="none" xmlns="http://www.w3.org/2000/svg">
<rect width="72" height="72" rx="5" fill="#FAFBFC"/>
<path d="M36.4666 45.2585C35.1371 45.2585 33.9553 45.0308 32.9212 44.5753C31.8932 44.1198 31.0807 43.4858 30.4837 42.6733C29.8866 41.8608 29.5696 40.9221 29.5327 39.8572H33.0043C33.035 40.3681 33.2043 40.8144 33.5121 41.196C33.8198 41.5715 34.2292 41.8639 34.7401 42.0732C35.2509 42.2824 35.8234 42.3871 36.4574 42.3871C37.1345 42.3871 37.7346 42.2701 38.2578 42.0362C38.781 41.7962 39.1903 41.4638 39.4858 41.0391C39.7813 40.6143 39.9259 40.125 39.9197 39.571C39.9259 38.9986 39.7782 38.4938 39.4766 38.0568C39.175 37.6198 38.7379 37.2782 38.1655 37.032C37.5992 36.7857 36.916 36.6626 36.1158 36.6626H34.4446V34.022H36.1158C36.7744 34.022 37.3499 33.9081 37.8423 33.6804C38.3409 33.4527 38.7318 33.1326 39.0149 32.7202C39.2981 32.3016 39.4366 31.8184 39.4304 31.2706C39.4366 30.7351 39.3165 30.2704 39.0703 29.8764C38.8303 29.4763 38.4886 29.1655 38.0455 28.9439C37.6084 28.7223 37.0945 28.6115 36.5036 28.6115C35.925 28.6115 35.3894 28.7161 34.897 28.9254C34.4046 29.1347 34.0076 29.4332 33.706 29.821C33.4044 30.2027 33.2443 30.6581 33.2259 31.1875H29.9297C29.9543 30.1288 30.259 29.1993 30.8438 28.3991C31.4347 27.5928 32.2225 26.965 33.2074 26.5156C34.1922 26.0601 35.2971 25.8324 36.522 25.8324C37.7839 25.8324 38.8795 26.0694 39.8089 26.5433C40.7446 27.0111 41.4678 27.642 41.9787 28.4361C42.4896 29.2301 42.745 30.1072 42.745 31.0675C42.7512 32.1323 42.4373 33.0249 41.8033 33.745C41.1754 34.4652 40.3506 34.9361 39.3288 35.1577V35.3054C40.6584 35.4901 41.6771 35.9825 42.3849 36.7827C43.099 37.5767 43.4529 38.5646 43.4467 39.7464C43.4467 40.8052 43.1451 41.7531 42.5419 42.5902C41.9448 43.4212 41.12 44.0736 40.0675 44.5476C39.0211 45.0215 37.8208 45.2585 36.4666 45.2585Z" fill="#FA5560"/>
</svg>
