<svg width="72" height="72" viewBox="0 0 72 72" fill="none" xmlns="http://www.w3.org/2000/svg">
<rect width="72" height="72" rx="5" fill="#FAFBFC"/>
<path d="M21.8593 23.3461L15.0851 35.3614C15.0407 35.4401 15.013 35.5268 15.0036 35.6162C14.9942 35.7057 15.0033 35.7961 15.0304 35.882C15.0575 35.9679 15.102 36.0475 15.1612 36.116C15.2204 36.1845 15.2932 36.2406 15.375 36.2807L19.4395 38.2792C19.5954 38.356 19.7754 38.3708 19.9421 38.3204C20.1088 38.27 20.2493 38.1584 20.3344 38.0087L20.5119 37.6943C20.8566 38.7068 21.2663 39.6967 21.7387 40.658C21.4839 41.01 21.3328 41.4243 21.3018 41.8553C21.2709 42.2863 21.3613 42.7173 21.5632 43.1011C21.765 43.4849 22.0706 43.8065 22.4462 44.0306C22.8218 44.2548 23.253 44.3728 23.6924 44.3718H23.7716C23.7845 44.3718 23.796 44.3685 23.8089 44.3678V44.3885V44.7215C23.8096 45.3353 24.0578 45.9237 24.4991 46.3576C24.9405 46.7916 25.5388 47.0357 26.1629 47.0364H26.4108C26.5245 47.0323 26.6377 47.0201 26.7496 46.9998C26.7821 47.3118 26.8802 47.6137 27.0374 47.8866C27.1947 48.1595 27.4078 48.3973 27.6632 48.5851C27.9187 48.7728 28.2109 48.9065 28.5216 48.9776C28.8322 49.0487 29.1545 49.0557 29.468 48.9982C29.4822 49.1361 29.5104 49.2722 29.5521 49.4046L29.5859 49.5012C29.735 49.9228 30.0105 50.2903 30.376 50.5551C30.7415 50.8198 31.18 50.9696 31.6338 50.9847L32.1459 51H32.2299C32.6411 51.0003 33.047 50.9079 33.4162 50.7299C33.7854 50.5518 34.1082 50.2928 34.3596 49.9728L34.5629 50.0441C35.7875 50.4768 37.1116 50.56 38.3822 50.2841C39.6529 50.0081 40.8182 49.3843 41.7435 48.4846C41.7828 48.4846 41.8221 48.4926 41.8614 48.4926C42.5453 48.4894 43.2189 48.3288 43.8284 48.0237C44.4379 47.7185 44.9662 47.2773 45.3711 46.7353L46.0208 45.7767C46.4671 45.6356 46.8807 45.4093 47.238 45.1109C47.5953 44.8124 47.8893 44.4476 48.1032 44.0374L48.5773 43.3419C49.1186 43.1228 49.5737 42.7382 49.8752 42.2448C50.1149 41.8465 50.247 41.3945 50.2588 40.9318C50.2707 40.4691 50.162 40.0112 49.943 39.6015L51.6095 37.9361L51.6738 38.044C51.7612 38.1901 51.9019 38.2979 52.0673 38.3456C52.2326 38.3932 52.4103 38.3771 52.564 38.3005L56.6284 36.2767C56.7111 36.2356 56.7843 36.1783 56.8435 36.1082C56.9027 36.0382 56.9467 35.9569 56.9727 35.8696C56.9987 35.7822 57.0062 35.6904 56.9948 35.6001C56.9834 35.5097 56.9532 35.4226 56.9062 35.3441L50.132 24.0195C50.0447 23.8735 49.9039 23.7656 49.7386 23.718C49.5732 23.6703 49.3956 23.6865 49.2419 23.7631L45.1774 25.7868C45.0947 25.8279 45.0215 25.8853 44.9624 25.9553C44.9031 26.0254 44.8592 26.1066 44.8331 26.194C44.8071 26.2814 44.7995 26.3731 44.811 26.4635C44.8224 26.5539 44.8526 26.641 44.8996 26.7194L45.493 27.7113C44.2161 28.0248 42.8778 28.0018 41.6128 27.6447C40.1644 27.2391 38.6352 27.2004 37.1675 27.5321L31.1995 28.8864C29.6879 28.5898 28.2998 27.8588 27.2108 26.7861L26.8633 26.4443L27.1079 26.012C27.1522 25.9336 27.18 25.8473 27.1895 25.7582C27.1991 25.669 27.1903 25.5789 27.1636 25.4932C27.1369 25.4075 27.0929 25.328 27.0342 25.2594C26.9755 25.1908 26.9033 25.1345 26.822 25.094L22.7575 23.0709C22.6007 22.9934 22.4194 22.9788 22.2519 23.0301C22.0843 23.0815 21.9436 23.1947 21.8593 23.3461ZM23.6924 43.0375C23.4987 43.0372 23.3089 42.9839 23.1442 42.8836C22.9796 42.7833 22.8465 42.64 22.76 42.4696C22.6734 42.2992 22.6368 42.1085 22.6542 41.9188C22.6716 41.7291 22.7423 41.5479 22.8584 41.3954L23.8332 40.1177C23.9306 39.9903 24.0567 39.8869 24.2017 39.8155C24.3466 39.7442 24.5064 39.707 24.6685 39.7068H24.7959C25.0724 39.7071 25.3376 39.8153 25.5331 40.0076C25.7287 40.1999 25.8388 40.4606 25.8391 40.7326V41.0064C25.838 41.2783 25.7283 41.5388 25.5336 41.7318L24.5093 42.7384C24.4127 42.834 24.2977 42.9097 24.1711 42.9613C24.0445 43.0128 23.9086 43.0392 23.7716 43.0388L23.6924 43.0375ZM26.1608 45.7021C25.896 45.7017 25.6421 45.5981 25.4547 45.4139C25.2674 45.2297 25.1621 44.98 25.1617 44.7195V44.3865C25.1624 44.126 25.2676 43.8764 25.4543 43.6917C25.4584 43.6876 25.4645 43.6843 25.4685 43.6804L26.4907 42.6718C26.4982 42.6651 26.503 42.6564 26.5104 42.6491L27.8578 41.3242C27.9503 41.2328 28.0603 41.1604 28.1815 41.1111C28.3026 41.0618 28.4325 41.0366 28.5637 41.037H28.6931C28.8829 41.037 29.0687 41.0902 29.2289 41.1904C29.3891 41.2905 29.517 41.4334 29.5976 41.6024C29.6782 41.7714 29.7081 41.9595 29.684 42.1446C29.6599 42.3297 29.5826 42.5043 29.4613 42.6478L27.2711 45.2365L27.1783 45.3464C27.0847 45.4572 26.9674 45.5463 26.8347 45.6074C26.7021 45.6686 26.5573 45.7002 26.4108 45.7001L26.1608 45.7021ZM29.0798 47.7005C28.8901 47.7005 28.7043 47.6474 28.5441 47.5474C28.384 47.4474 28.2561 47.3045 28.1754 47.1356C28.0948 46.9667 28.0647 46.7788 28.0887 46.5937C28.1127 46.4086 28.1898 46.2341 28.311 46.0905L30.5038 43.5031L30.5966 43.3939C30.6953 43.2791 30.819 43.1877 30.9586 43.1265C31.0982 43.0652 31.25 43.0357 31.4027 43.0402C31.5925 43.0402 31.7784 43.0934 31.9386 43.1935C32.0988 43.2936 32.2266 43.4365 32.3073 43.6055C32.3879 43.7745 32.4178 43.9626 32.3937 44.1477C32.3695 44.3329 32.2923 44.5074 32.1709 44.6509L29.8846 47.3488C29.7859 47.463 29.6623 47.554 29.523 47.6149C29.3837 47.6758 29.2322 47.7051 29.0798 47.7005ZM32.1845 49.6664L31.6724 49.6511C31.4932 49.6452 31.32 49.5861 31.1757 49.4814C31.0314 49.3767 30.9228 49.2315 30.8642 49.0648L30.8303 48.9683C30.7813 48.8271 30.7699 48.6759 30.7973 48.5291C30.8247 48.3824 30.89 48.245 30.9868 48.1302L33.2135 45.5023L33.3415 45.3517C33.4242 45.2539 33.5277 45.1752 33.6448 45.1212C33.7619 45.0672 33.8896 45.0392 34.0189 45.0393H34.4423C34.6024 45.0386 34.7596 45.0808 34.8971 45.1614C35.0345 45.242 35.1471 45.3579 35.2226 45.4967C35.2981 45.6355 35.3337 45.7919 35.3256 45.9491C35.3176 46.1063 35.266 46.2583 35.1766 46.3889L33.3544 49.0762C33.2263 49.2641 33.0518 49.4169 32.8471 49.5202C32.6425 49.6235 32.4144 49.6738 32.1845 49.6664ZM49.2873 25.2373L55.3745 35.4107L52.5212 36.8309L46.4326 26.6575L49.2873 25.2373ZM37.4731 28.8345C38.7171 28.553 40.0133 28.5857 41.2409 28.9297C42.8645 29.3886 44.5879 29.3796 46.2064 28.9037L50.8988 36.749L49.0501 38.5976C46.0884 36.2863 42.9289 34.2313 39.6069 32.4557L40.1442 32.3704L39.9294 31.0548L37.8972 31.3765C36.594 31.5833 35.2772 31.6958 33.9573 31.7129C33.8078 31.7148 33.6631 31.7653 33.5459 31.8566C33.4286 31.9478 33.3453 32.0746 33.309 32.2172L33.1444 32.864C33.0344 33.2963 32.7807 33.68 32.4235 33.9543C32.0663 34.2285 31.6262 34.3775 31.1731 34.3775H29.5263L31.0843 30.2827L37.4731 28.8345ZM26.253 27.732C27.2474 28.7097 28.458 29.4483 29.7905 29.8904L27.914 34.8112C27.8759 34.9119 27.8631 35.0202 27.8767 35.1269C27.8904 35.2336 27.9301 35.3354 27.9925 35.4237C28.0549 35.512 28.138 35.5842 28.2349 35.6339C28.3317 35.6838 28.4394 35.7098 28.5488 35.7098H31.1751C31.9307 35.7106 32.6647 35.4626 33.2603 35.0054C33.8559 34.5482 34.2787 33.9081 34.4613 33.1871L34.4999 33.0339C35.4518 32.9994 36.4014 32.9178 37.345 32.7894C41.2589 34.7414 44.9589 37.083 48.387 39.7773C48.6508 39.9864 48.829 40.2819 48.8888 40.6098C48.9487 40.9377 48.8862 41.2758 48.7128 41.562C48.6165 41.7196 48.4891 41.8567 48.3381 41.9652C48.187 42.0737 48.0155 42.1513 47.8335 42.1935C47.6515 42.2357 47.4627 42.2417 47.2783 42.211C47.0939 42.1803 46.9176 42.1137 46.7598 42.015L41.1088 38.4783L40.3806 39.6028L46.0309 43.1381C46.287 43.2965 46.5678 43.4124 46.8621 43.4812C46.7213 43.7346 46.5311 43.9583 46.3024 44.1394C46.0736 44.3206 45.8108 44.4556 45.529 44.5369C45.2472 44.6181 44.9518 44.6439 44.6598 44.6128C44.3678 44.5818 44.0849 44.4944 43.8273 44.3558L39.0352 41.7864L38.3863 42.9562L43.181 45.5269C43.5334 45.7143 43.915 45.8426 44.3103 45.9066L44.269 45.9686C43.8188 46.5649 43.156 46.9719 42.4135 47.1078C41.6709 47.2437 40.9036 47.0985 40.2654 46.7013L37.7183 45.1358L36.9995 46.2683L39.5467 47.8338C39.7176 47.9381 39.8955 48.0312 40.0791 48.1122C39.371 48.6 38.5569 48.9185 37.7015 49.0423C36.8462 49.1662 35.9733 49.092 35.1522 48.8257L36.3039 47.1256C36.5296 46.7945 36.6594 46.4091 36.6795 46.0109C36.6996 45.6127 36.6092 45.2166 36.4179 44.865C36.2267 44.5135 35.9418 44.2196 35.5938 44.0151C35.2458 43.8105 34.8477 43.7029 34.4423 43.7036H34.0237C33.9283 43.7078 33.8332 43.718 33.7392 43.7343C33.7208 43.5827 33.6877 43.4333 33.6402 43.288C33.4806 42.8216 33.1746 42.4172 32.7663 42.1328C32.358 41.8484 31.8685 41.6986 31.3682 41.7052C31.2545 41.7093 31.1413 41.7215 31.0295 41.7418C31.0112 41.5882 30.9778 41.4368 30.9299 41.2895C30.7738 40.8281 30.4737 40.4268 30.0724 40.1426C29.6711 39.8585 29.189 39.706 28.6944 39.7068H28.565C28.0426 39.7084 27.536 39.8829 27.1268 40.2024C27.0049 39.6836 26.7081 39.2206 26.2846 38.8888C25.8611 38.5569 25.336 38.3756 24.7945 38.3744H24.6672C24.2949 38.3754 23.928 38.461 23.595 38.6246C23.2621 38.7883 22.9722 39.0255 22.748 39.3177L22.6525 39.4429C22.1901 38.4225 21.8012 37.3714 21.4887 36.2974L21.421 36.0762L26.1778 27.6601L26.253 27.732ZM19.4653 36.8016L16.6127 35.3994L22.7284 24.5524L25.5824 25.9734L19.4653 36.8016Z" fill="#FA5560" stroke="#FA5560" stroke-width="0.5"/>
</svg>
