<svg width="72" height="72" viewBox="0 0 72 72" fill="none" xmlns="http://www.w3.org/2000/svg">
<rect width="72" height="72" rx="5" fill="#FAFBFC"/>
<path d="M53.8023 33.14C53.6358 32.9735 53.3967 32.9014 53.1662 32.9478L47.1044 34.1677C46.8503 34.2189 46.6448 34.4057 46.5699 34.6538C46.4949 34.902 46.5625 35.1712 46.7458 35.3546L47.5659 36.1747L44.3472 39.3934L41.8555 36.9017C41.7236 36.7698 41.5447 36.6957 41.3582 36.6957C41.1717 36.6957 40.9928 36.7698 40.8609 36.9017L37.8034 39.9593L38.9502 35.8383C39.2291 34.8365 39.0282 33.7871 38.3991 32.9591C38.0139 32.452 37.5052 32.078 36.9301 31.8638L37.847 29.2449C38.0999 29.267 38.3523 29.2783 38.6018 29.2783C40.6328 29.2783 42.613 28.5625 44.1778 27.2628L44.3454 27.1236C45.1703 26.4382 45.3113 25.247 44.6664 24.412C44.3395 23.9885 43.867 23.723 43.3359 23.6643C42.8047 23.6056 42.2856 23.7614 41.8746 24.1029L41.6842 24.2611C41.4036 24.4941 41.0968 24.6953 40.7723 24.859C39.6877 25.4061 38.3333 25.1624 37.4334 24.2718C38.7425 23.8663 39.6961 22.6443 39.6961 21.2037C39.6962 19.4331 38.2556 17.9927 36.485 17.9927C34.7143 17.9927 33.2739 19.4331 33.2739 21.2038C33.2739 21.9084 33.5025 22.5602 33.8887 23.0903C33.1582 23.2476 32.5008 23.6242 31.9977 24.1567C31.9684 24.1825 31.9403 24.2103 31.9148 24.2417C30.6749 25.7647 29.0219 26.8572 27.1346 27.4008C26.6236 27.5481 26.2192 27.8873 25.9764 28.3176L24.5348 26.8759C23.9041 26.2452 22.8779 26.2453 22.2471 26.8759L20.3604 28.7626L18.4738 30.6492C18.1682 30.9547 18 31.3609 18 31.7932C18 32.2253 18.1683 32.6314 18.4738 32.937L23.6719 38.1352C23.9775 38.4408 24.3837 38.6089 24.8158 38.6089C25.2481 38.6089 25.6542 38.4407 25.9598 38.1352L27.9132 36.1818L24.9279 44.0098C24.7895 44.3727 24.9715 44.7791 25.3344 44.9176C25.4169 44.9491 25.5016 44.964 25.5849 44.964C25.8682 44.964 26.1353 44.7915 26.2423 44.511L30.6082 33.063H35.0119H35.7731C36.3695 33.063 36.9183 33.3353 37.2791 33.8101C37.6398 34.285 37.7551 34.8868 37.5951 35.4612L35.9968 41.2038C35.925 41.4622 35.6874 41.6427 35.4192 41.6427C35.1784 41.6427 35.0301 41.5108 34.963 41.4323C34.896 41.3537 34.7891 41.1864 34.8269 40.9488L35.6772 35.6025C35.7096 35.3991 35.6512 35.192 35.5176 35.0354C35.3839 34.8788 35.1885 34.7886 34.9826 34.7886H33.3151C33.0499 34.7886 32.8072 34.9379 32.6875 35.1745C32.6464 35.2556 28.5655 43.3246 27.1903 46.0511C27.0526 46.3241 26.7533 46.4799 26.4465 46.4379L26.4131 46.4334C26.2037 46.4051 26.0219 46.2847 25.9139 46.103C25.8059 45.9214 25.7873 45.704 25.8626 45.5066L26.296 44.3702C26.4345 44.0073 26.2524 43.6009 25.8895 43.4624C25.5266 43.3239 25.1201 43.506 24.9817 43.8689L24.5483 45.0053C24.3191 45.6064 24.376 46.2683 24.7045 46.8214C25.0331 47.3745 25.5871 47.7413 26.2241 47.8275L26.2574 47.8319C26.3539 47.845 26.4499 47.8513 26.5454 47.8513C27.3417 47.8513 28.0823 47.4063 28.4463 46.6846C29.6475 44.303 32.9143 37.843 33.7476 36.1953H34.1586L33.4377 40.7278C33.3453 41.3086 33.5113 41.8983 33.8932 42.3455C34.1388 42.6333 34.4568 42.8415 34.8089 42.9539L26.9738 50.789C26.8419 50.921 26.7678 51.0998 26.7678 51.2863C26.7678 51.4728 26.8419 51.6518 26.9738 51.7836L28.9912 53.801C29.1285 53.9383 29.3085 54.007 29.4885 54.007C29.6685 54.007 29.8485 53.9383 29.9859 53.801L33.8642 49.9226C34.1389 49.648 34.1389 49.2026 33.8642 48.9279C33.5895 48.6534 33.1443 48.6534 32.8695 48.9279L29.4885 52.309L28.4659 51.2862L41.3583 38.3937L43.85 40.8853C43.9819 41.0172 44.1608 41.0913 44.3473 41.0913C44.5339 41.0913 44.7127 41.0172 44.8447 40.8853L49.0579 36.672C49.3327 36.3974 49.3327 35.952 49.0579 35.6772L48.6685 35.2878L52.4067 34.5354L51.6544 38.2737L51.0755 37.6948C50.8008 37.4202 50.3555 37.4202 50.0807 37.6948L44.3473 43.4282L41.8556 40.9365C41.5809 40.6619 41.1357 40.6619 40.8609 40.9365L32.4429 49.3545C32.1682 49.6291 32.1682 50.0745 32.4429 50.3493C32.7177 50.6238 33.1629 50.6238 33.4377 50.3493L41.3582 42.4286L43.8498 44.9204C44.1246 45.195 44.5698 45.195 44.8446 44.9204L50.578 39.1869L51.5877 40.1965C51.7709 40.3798 52.0404 40.4476 52.2884 40.3724C52.5365 40.2975 52.7234 40.0921 52.7746 39.8379L53.9945 33.776C54.041 33.5453 53.9688 33.3065 53.8023 33.14ZM36.485 19.3994C37.48 19.3994 38.2894 20.2089 38.2894 21.2038C38.2894 22.1987 37.4799 23.0082 36.485 23.0082C35.49 23.0082 34.6805 22.1987 34.6805 21.2038C34.6805 20.2089 35.49 19.3994 36.485 19.3994ZM29.5252 31.8663L28.6692 31.0103C29.0757 30.8777 29.4751 30.7259 29.866 30.5562L29.5252 31.8663ZM27.1514 29.4265C27.0683 29.138 27.2355 28.8357 27.524 28.7525C28.6802 28.4194 29.7587 27.9051 30.7303 27.2335L30.3332 28.7605C29.5424 29.1974 28.7005 29.5469 27.8252 29.799C27.809 29.8037 27.7919 29.8077 27.7751 29.8109C27.6453 29.8356 27.5155 29.8098 27.4065 29.7477L27.2005 29.5416C27.1802 29.5057 27.1632 29.4674 27.1514 29.4265ZM23.2417 27.8706C23.2828 27.8295 23.3369 27.809 23.3909 27.809C23.4449 27.809 23.499 27.8295 23.5401 27.8706L26.1039 30.4345C26.2229 30.5969 26.3647 30.7384 26.5244 30.8549L28.7383 33.0688C28.8205 33.151 28.8205 33.2849 28.7383 33.3672L27.349 34.7564L25.804 33.2114L26.0982 32.9171C26.3729 32.6424 26.3729 32.1971 26.0982 31.9224L24.515 30.3391C24.2403 30.0645 23.7951 30.0645 23.5203 30.3391L23.226 30.6334L21.8524 29.2598L23.2417 27.8706ZM24.2044 32.8216C24.1371 32.8889 24.0585 32.899 24.0177 32.899C23.9769 32.899 23.8983 32.8889 23.831 32.8217L23.6158 32.6065C23.5486 32.5392 23.5385 32.4606 23.5385 32.4198C23.5385 32.379 23.5486 32.3004 23.6159 32.2331L24.0177 31.8313L24.6062 32.4198L24.2044 32.8216ZM24.965 37.1405C24.9139 37.1916 24.8557 37.2023 24.8158 37.2023C24.776 37.2023 24.7177 37.1916 24.6667 37.1404L19.4685 31.9423C19.4174 31.8912 19.4067 31.8329 19.4067 31.7932C19.4067 31.7533 19.4174 31.6951 19.4685 31.644L20.8577 30.2547L22.2971 31.694C22.1891 31.9175 22.1318 32.1643 22.1318 32.4198C22.1318 32.8662 22.3056 33.2857 22.6212 33.6012L22.8362 33.8162V33.8163C23.1518 34.1319 23.5714 34.3057 24.0177 34.3057C24.2733 34.3057 24.52 34.2485 24.7435 34.1404L26.3544 35.7513L24.965 37.1405ZM35.0118 31.6562H31.0334L32.4783 26.1017C32.7367 25.1086 33.6338 24.415 34.66 24.415C35.2939 24.415 35.8803 24.6706 36.3111 25.1347C37.6326 26.5586 39.7278 26.9617 41.4059 26.1151C41.825 25.9037 42.2211 25.6441 42.5832 25.3432L42.7736 25.185C42.8884 25.0896 43.0332 25.0459 43.1816 25.0626C43.3297 25.0789 43.4616 25.1532 43.5532 25.2719C43.7299 25.5007 43.682 25.846 43.4466 26.0416L43.279 26.1808C41.9663 27.2713 40.3052 27.8718 38.6019 27.8718C38.232 27.8718 37.854 27.8422 37.4781 27.7838C37.1427 27.7312 36.8183 27.9261 36.7061 28.2463L35.5124 31.6562H35.0118Z" fill="#FA5560"/>
<path d="M35.3694 46.7456C35.1844 46.7456 35.003 46.8208 34.8722 46.9517C34.7413 47.0825 34.666 47.2639 34.666 47.449C34.666 47.6347 34.7412 47.8154 34.8722 47.9462C35.003 48.0777 35.1844 48.1523 35.3694 48.1523C35.5543 48.1523 35.7359 48.0777 35.8666 47.9462C35.9974 47.8154 36.0727 47.6346 36.0727 47.449C36.0727 47.2639 35.9975 47.0825 35.8666 46.9517C35.7359 46.8208 35.5543 46.7456 35.3694 46.7456Z" fill="#FA5560"/>
<path d="M26.6399 42.1977C26.8249 42.1977 27.0063 42.1225 27.1372 41.9916C27.2679 41.8608 27.3432 41.6793 27.3432 41.4944C27.3432 41.3094 27.268 41.1279 27.1372 40.9971C27.0056 40.8663 26.8249 40.791 26.6399 40.791C26.4549 40.791 26.2734 40.8662 26.1419 40.9971C26.0111 41.1279 25.9365 41.3094 25.9365 41.4944C25.9365 41.6793 26.0111 41.8608 26.1419 41.9916C26.2734 42.1224 26.4542 42.1977 26.6399 42.1977Z" fill="#FA5560"/>
</svg>
