<svg width="72" height="72" viewBox="0 0 72 72" fill="none" xmlns="http://www.w3.org/2000/svg">
<rect width="72" height="72" rx="5" fill="#FAFBFC"/>
<path d="M21 34.6324C21.1112 33.6506 21.294 32.6829 21.5798 31.736C22.217 29.6219 23.1459 27.6621 24.6457 26.0045C24.8658 25.7617 25.1076 25.5434 25.3478 25.3213C25.6881 25.0057 26.0716 24.9092 26.4977 25.0919C26.9207 25.2731 27.0729 25.6414 27.0916 26.0744C27.1132 26.5868 27.0886 27.0992 27.1401 27.6131C27.2923 29.128 27.9131 30.438 28.8503 31.6151C29.5397 32.4816 30.4799 33.0253 31.4379 33.5273C34.1241 34.9368 36.8229 36.3225 39.5135 37.7239C40.6425 38.312 41.7333 38.9573 42.613 39.8989C43.3734 40.7129 43.8293 41.662 43.9584 42.7721C44.1837 44.7119 43.4726 46.359 42.3437 47.8636C41.0969 49.5263 39.4389 50.5815 37.3765 50.9061C36.4416 51.0531 35.4761 51.0123 34.5285 50.8883C32.675 50.6454 30.9022 50.1293 29.2286 49.2916C27.5117 48.4324 26.0455 47.2643 24.7972 45.808C22.9467 43.65 21.6954 41.212 21.197 38.4078C21.1142 37.9429 21.0649 37.4721 21 37.0042V34.6324ZM25.2486 28.528C25.1277 28.5696 25.0979 28.6594 25.0553 28.7329C23.6182 31.1903 22.7646 33.7983 22.9795 36.6842C23.0706 37.902 23.3205 39.0836 23.7391 40.2324C24.336 41.8691 25.2523 43.3128 26.3895 44.628C27.6363 46.0702 29.1458 47.1454 30.8985 47.8933C32.1647 48.4339 33.4861 48.7785 34.8493 48.953C35.6865 49.0599 36.5402 49.1342 37.3639 48.9233C39.7016 48.3225 41.1506 46.7712 41.8631 44.5278C42.19 43.4969 42.0856 42.4691 41.4251 41.5595C40.9566 40.9142 40.3172 40.4574 39.6359 40.0638C37.9018 39.0613 36.0924 38.1976 34.321 37.2641C32.7863 36.4554 31.2283 35.6913 29.718 34.8358C27.7751 33.7353 26.476 32.1163 25.6963 30.0548C25.5083 29.5587 25.3725 29.0478 25.2508 28.5287L25.2486 28.528Z" fill="#FA5560"/>
<path d="M36.9545 21C37.7222 21.1072 38.4899 21.2165 39.2459 21.3915C41.7761 21.9783 44.0725 23.0323 46.0316 24.7665C48.4442 26.9017 49.8525 29.6054 50.623 32.6948C50.9824 34.1366 51.0672 35.5967 50.9518 37.0525C50.7575 39.4981 50.0723 41.8097 48.7057 43.885C48.5077 44.1861 48.2784 44.4623 48.0154 44.7094C47.7203 44.9865 47.3756 45.0827 46.9965 44.9224C46.6064 44.7568 46.3778 44.4594 46.3851 44.0192C46.4027 42.9702 46.3748 41.9255 46.0776 40.908C45.5648 39.1497 44.5349 37.7756 42.9886 36.7893C42.0616 36.1981 41.0669 35.7308 40.0968 35.2184C37.8215 34.0171 35.5002 32.901 33.2681 31.6203C32.1702 30.9904 31.2001 30.2082 30.5895 29.0572C29.3792 26.7748 30.0928 23.6352 32.1775 22.1722C33.0102 21.5875 33.9663 21.2945 34.9568 21.1013C35.0992 21.0736 35.2395 21.035 35.3804 21.0015H36.9552L36.9545 21ZM48.0804 40.8861C48.6918 39.4668 48.9328 38.0359 49.0549 36.5896C49.1607 35.3372 48.9934 34.1001 48.6758 32.8784C47.6407 28.8998 45.3472 25.9533 41.5818 24.2045C39.8975 23.4223 38.1086 23.0433 36.2701 22.8895C35.5192 22.8268 34.8173 23.1016 34.119 23.3349C33.2395 23.6294 32.618 24.2052 32.2724 25.0698C31.7487 26.3812 31.7838 27.6357 32.7297 28.7532C33.3016 29.4283 34.0584 29.8831 34.834 30.2913C37.6009 31.7464 40.3773 33.1831 43.1398 34.6462C44.6101 35.4246 45.8768 36.4452 46.7934 37.8609C47.3843 38.7742 47.808 39.7548 48.0804 40.8854V40.8861Z" fill="#FA5560"/>
</svg>
