<svg width="72" height="72" viewBox="0 0 72 72" fill="none" xmlns="http://www.w3.org/2000/svg">
<rect width="72" height="72" rx="5" fill="#FAFBFC"/>
<path d="M39.9997 21C40.4477 21.2127 40.634 21.5617 40.6105 22.0596C40.5856 22.5949 40.6076 23.1317 40.6039 23.6677C40.5995 24.2213 40.2263 24.5953 39.6924 24.5902C39.1784 24.585 38.8139 24.2081 38.8103 23.6677C38.8059 23.1317 38.8286 22.5949 38.8037 22.0596C38.7802 21.5617 38.9672 21.2127 39.4145 21H39.9997Z" fill="#FA5560"/>
<path d="M23.0011 42.1878C23.0011 39.6022 23.0011 37.0174 23.0011 34.4318C23.0011 33.7205 23.3266 33.3935 24.0335 33.3928C25.7406 33.3928 27.4477 33.392 29.1555 33.3928C30.2203 33.3935 31.002 33.8841 31.5116 34.8014C31.6267 35.0089 31.7345 35.0221 31.9252 34.9517C32.9554 34.5697 33.7474 33.8701 34.4374 33.0459C35.6796 31.5625 36.4261 29.8437 36.8199 27.9599C36.8859 27.6453 36.9658 27.3329 37.0574 27.0249C37.2048 26.5314 37.5113 26.3085 38.029 26.3092C38.7389 26.31 39.4487 26.263 40.135 26.5395C41.4645 27.0755 42.3371 28.3573 42.3664 29.7901C42.4024 31.528 42.2146 33.2329 41.7292 34.9026C41.6573 35.1504 41.7849 35.1512 41.9653 35.1504C43.5265 35.1468 45.0869 35.1519 46.6481 35.1475C47.7429 35.1446 48.5744 35.608 49.0819 36.5745C49.59 37.5424 49.4947 38.4942 48.8641 39.3852C48.7666 39.5238 48.7776 39.6096 48.87 39.7416C49.5834 40.7608 49.582 41.863 48.8619 42.8998C48.7644 43.0406 48.7805 43.1257 48.8714 43.2562C49.887 44.7103 49.3686 46.5809 47.7488 47.2849C47.5229 47.3831 47.4972 47.4865 47.5559 47.7058C47.9871 49.3161 46.728 50.9843 45.0627 50.9916C42.3899 51.0026 39.7163 51.0056 37.0435 50.985C36.1628 50.9784 35.3071 50.7636 34.4711 50.4842C33.5927 50.1909 32.712 49.9042 31.8379 49.6006C31.6341 49.5302 31.5387 49.5698 31.4192 49.7546C30.9015 50.5546 30.1638 50.9909 29.1981 50.9938C27.4616 50.999 25.7252 50.996 23.9888 50.9953C23.342 50.9953 23.0011 50.6514 23.0003 50.0002C22.9996 47.3956 23.0003 44.791 23.0003 42.1856L23.0011 42.1878ZM31.8232 42.2758C31.8232 43.9733 31.8284 45.6716 31.8174 47.3692C31.8159 47.609 31.8988 47.7138 32.1195 47.785C33.0845 48.0952 34.0473 48.4134 35.0064 48.7426C35.9392 49.0631 36.9034 49.1914 37.8809 49.1973C40.1541 49.2098 42.428 49.201 44.7012 49.2024C44.8787 49.2024 45.0525 49.1878 45.2219 49.1372C45.645 49.011 45.8884 48.5791 45.7828 48.148C45.686 47.752 45.4206 47.5547 44.8911 47.4843C44.372 47.4154 44.0552 47.0385 44.0801 46.5186C44.1029 46.0412 44.4834 45.6936 44.9982 45.6892C45.4961 45.6848 45.9933 45.6856 46.4912 45.6892C46.6591 45.6907 46.8226 45.6702 46.9817 45.6225C47.3264 45.5206 47.5713 45.1884 47.5735 44.8328C47.5757 44.4793 47.3301 44.1413 46.9876 44.0379C46.8285 43.9902 46.665 43.9682 46.497 43.9697C45.9698 43.9733 45.4433 43.9792 44.9161 43.9667C44.4409 43.9558 44.0838 43.5693 44.0787 43.0883C44.0735 42.5896 44.4292 42.1907 44.9139 42.1783C45.4404 42.1651 45.9676 42.1717 46.4948 42.1753C46.6628 42.1768 46.8263 42.1555 46.9854 42.1079C47.3286 42.0052 47.5735 41.6686 47.5735 41.3152C47.5735 40.9603 47.3271 40.6259 46.9839 40.5232C46.8248 40.4756 46.6613 40.455 46.4934 40.4558C45.9661 40.4594 45.4396 40.466 44.9124 40.4528C44.4387 40.4411 44.0823 40.0517 44.0794 39.5707C44.0757 39.0721 44.4314 38.6768 44.919 38.6651C45.436 38.6526 45.9529 38.66 46.4706 38.6622C46.6276 38.6622 46.7816 38.649 46.9341 38.6086C47.3139 38.5074 47.5779 38.1745 47.5742 37.7976C47.5706 37.4178 47.3073 37.0966 46.9238 36.9939C46.7515 36.9477 46.5777 36.9433 46.4017 36.9441C43.6306 36.9441 40.8595 36.9448 38.0884 36.9441C37.4431 36.9441 37.0567 36.6104 37.0538 36.0539C37.0508 35.4812 37.4351 35.1482 38.1016 35.1475C38.502 35.1475 38.9039 35.1233 39.3013 35.1548C39.6393 35.1812 39.7831 35.0441 39.8784 34.7354C40.3565 33.175 40.578 31.5786 40.5589 29.9515C40.5479 29.0349 40.0045 28.3485 39.2294 28.1747C38.6839 28.053 38.6736 28.0508 38.5519 28.5956C38.062 30.7882 37.1234 32.7585 35.6371 34.4524C34.6809 35.5413 33.5692 36.4117 32.1378 36.7886C31.89 36.8539 31.8174 36.9617 31.8188 37.2095C31.8291 38.8975 31.824 40.5856 31.824 42.2736L31.8232 42.2758ZM24.7976 42.1812C24.7976 44.395 24.8027 46.6088 24.7917 48.8233C24.7903 49.11 24.8548 49.2127 25.1621 49.2083C26.4101 49.1907 27.6589 49.2024 28.907 49.201C29.6967 49.1995 30.0259 48.8688 30.0267 48.0761C30.0274 44.1552 30.0274 40.2343 30.0267 36.3142C30.0267 35.5222 29.696 35.1915 28.9055 35.1908C27.6765 35.1893 26.4475 35.1908 25.2185 35.1908C24.9384 35.1908 24.7981 35.3269 24.7976 35.5992C24.7976 37.7939 24.7976 39.9879 24.7976 42.1827V42.1812Z" fill="#FA5560"/>
<path d="M36.2712 25.5207C36.2536 25.8529 36.0981 26.1403 35.7601 26.3061C35.4228 26.471 35.0774 26.4542 34.8039 26.2005C34.3184 25.751 33.8462 25.2839 33.4011 24.7948C33.0887 24.4516 33.1481 23.9331 33.4818 23.6039C33.8147 23.2747 34.3294 23.2241 34.6733 23.5401C35.1544 23.9801 35.6061 24.453 36.0607 24.9201C36.2066 25.0705 36.2697 25.2692 36.2719 25.52L36.2712 25.5207Z" fill="#FA5560"/>
<path d="M43.9953 26.4046C43.6946 26.3884 43.4072 26.2337 43.2414 25.8949C43.0764 25.5576 43.0933 25.2122 43.3463 24.9387C43.7958 24.4533 44.2622 23.981 44.7513 23.5352C45.0944 23.2221 45.6121 23.2822 45.9421 23.6151C46.2626 23.9393 46.3256 24.4489 46.0235 24.7833C45.5733 25.2812 45.0856 25.7453 44.6031 26.2124C44.4609 26.3503 44.2673 26.4053 43.9953 26.4046Z" fill="#FA5560"/>
<path d="M27.4027 45.6895C27.9226 45.6866 28.3083 46.0679 28.3091 46.5849C28.3091 47.104 27.9263 47.4861 27.4064 47.4839C26.9012 47.4824 26.5198 47.1055 26.5147 46.6032C26.5088 46.0818 26.888 45.6925 27.4027 45.6895Z" fill="#FA5560"/>
</svg>
