<svg width="72" height="72" viewBox="0 0 72 72" fill="none" xmlns="http://www.w3.org/2000/svg">
<rect width="72" height="72" rx="5" fill="#FAFBFC"/>
<path d="M38.9373 23C39.7041 23.2181 40.3545 23.6097 40.815 24.2776C40.8925 24.3901 40.9904 24.4192 41.1252 24.4162C44.1738 24.3474 46.8648 26.5886 47.4619 29.4647C47.5017 29.6557 47.5918 29.7643 47.8003 29.8302C49.4802 30.3663 50.3313 31.9114 49.896 33.6234C49.8408 33.8405 49.866 34.013 49.9619 34.2098C50.815 35.9663 50.6696 37.6443 49.5403 39.237C49.4482 39.3669 49.3765 39.5016 49.3357 39.6567C48.9625 41.0846 48.2064 42.2663 47.0315 43.1649C46.8154 43.3297 46.8212 43.4518 46.9317 43.6728C47.2506 44.3087 47.5938 44.9408 47.5957 45.6833C47.5986 46.6711 47.1343 47.3787 46.2522 47.7781C45.3565 48.1824 44.4763 48.0321 43.8064 47.3448C43.1065 46.6265 42.3078 46.1544 41.3675 45.85C40.6531 45.6184 39.9861 45.2733 39.3968 44.7934C38.9247 44.4096 38.5747 43.9384 38.3867 43.3626C38.3101 43.129 38.1821 43.0389 37.9543 43.0069C37.6199 42.9603 37.2806 42.9177 36.9607 42.8169C36.6534 42.7199 36.4392 42.7985 36.2037 42.9933C35.3506 43.698 34.3473 44.0538 33.2548 44.0315C31.5448 43.9966 30.1848 43.2531 29.2581 41.7942C29.0923 41.5325 28.9508 41.4501 28.6251 41.5092C25.1412 42.1364 21.9093 39.8167 21.3762 36.3085C21.1581 34.8709 21.4508 33.5206 22.1866 32.2691C22.2893 32.0937 22.331 31.9337 22.3116 31.7263C22.1837 30.3323 22.7255 29.2776 23.9576 28.601C24.1602 28.4895 24.2155 28.3316 24.2475 28.1377C24.5577 26.2833 25.8876 25.0463 27.7517 24.8806C28.1171 24.8476 28.4749 24.9097 28.8287 24.9882C28.9993 25.026 29.133 25.0018 29.2484 24.8612C30.0898 23.8327 31.1978 23.2656 32.4793 23.0029H34.0759C34.7467 23.1512 35.3942 23.3645 35.9817 23.7299C36.0999 23.8036 36.194 23.8114 36.3035 23.7135C36.7068 23.3548 37.1914 23.1512 37.7033 23.0019H38.9373V23ZM47.3631 40.8733C47.1547 40.9285 47.0519 40.9557 46.9482 40.9828C45.5125 41.3502 44.1893 41.0962 42.997 40.2277C42.7547 40.0513 42.5589 40.0105 42.2729 40.09C41.1736 40.3925 39.9658 39.8622 39.4258 38.8677C39.3328 38.6951 39.2514 38.5197 39.3086 38.3151C39.3832 38.0476 39.5548 37.8692 39.8243 37.8081C40.118 37.7422 40.3477 37.8673 40.5096 38.1057C40.7403 38.446 41.003 38.7378 41.4373 38.7969C42.4929 38.9413 43.1618 38.1048 42.8186 37.0743C42.6597 36.5984 42.7876 36.2542 43.1734 36.1117C43.536 35.9789 43.8704 36.1583 44.0527 36.5935C44.3726 37.3564 44.3377 38.1125 43.9228 38.8231C43.7522 39.1148 43.8152 39.2428 44.0866 39.3756C44.7884 39.7168 45.5067 39.871 46.2948 39.7498C48.2151 39.4541 49.5286 37.5513 49.0866 35.6629C48.9645 35.1395 48.9654 35.1414 48.5273 35.4041C48.4139 35.4719 48.2927 35.533 48.1677 35.5728C47.8584 35.6707 47.5414 35.5379 47.3951 35.2626C47.2458 34.9814 47.3272 34.616 47.5918 34.4182C47.6878 34.3465 47.7983 34.2932 47.9001 34.2273C48.8297 33.6195 48.9674 32.3486 48.189 31.5576C47.5938 30.9527 46.7698 30.882 45.9294 31.3637C45.5494 31.5818 45.1849 31.5198 44.9707 31.2028C44.7613 30.8926 44.8466 30.5078 45.2052 30.2606C45.403 30.1249 45.6172 29.994 45.8441 29.9262C46.1484 29.836 46.1698 29.6732 46.0864 29.4143C45.9517 28.9985 45.7878 28.5952 45.5591 28.2239C44.7167 26.8552 43.4895 26.0545 41.9103 25.7908C41.6263 25.7433 41.3355 25.6842 41.3316 26.1689C41.3297 26.4936 41.0447 26.672 40.7248 26.6788C40.4039 26.6846 40.1723 26.512 40.087 26.1912C40.0462 26.04 40.0346 25.8819 40.0133 25.7259C39.9464 25.2441 39.7118 24.8602 39.3182 24.583C38.1618 23.7687 36.6961 24.5258 36.5662 26.0002C36.5284 26.4306 36.2492 26.7069 35.877 26.6827C35.4863 26.6574 35.213 26.3269 35.2469 25.8984C35.2634 25.6949 35.2837 25.4835 35.3535 25.2945C35.4601 25.0085 35.338 24.8835 35.1044 24.7565C33.0038 23.6165 30.399 24.614 29.5945 26.8736C29.5421 27.021 29.5024 27.1761 29.4306 27.3147C29.2736 27.6171 28.9334 27.7422 28.628 27.6278C28.3256 27.5144 28.1462 27.1925 28.2141 26.8697C28.2383 26.7515 28.2713 26.6342 28.3159 26.5227C28.406 26.2968 28.3265 26.2251 28.0948 26.2115C27.1032 26.1524 26.0853 26.8009 25.7199 27.7412C25.5396 28.2055 25.5522 28.2278 26.0282 28.3412C26.762 28.5167 27.3678 28.8889 27.7973 29.5171C28.0008 29.8157 27.9504 30.1462 27.7003 30.3701C27.4434 30.6009 27.0828 30.6018 26.8104 30.3624C26.6931 30.2596 26.5962 30.1326 26.4808 30.026C25.9681 29.5559 25.1402 29.458 24.5179 29.7905C23.8839 30.1297 23.5282 30.8461 23.628 31.5528C23.7085 32.1189 24.0109 32.5241 24.4714 32.8449C24.7884 33.0669 24.8427 33.4789 24.6313 33.7736C24.4239 34.0625 24.0604 34.1313 23.7288 33.9277C23.5757 33.8337 23.4225 33.7271 23.2984 33.5982C23.1084 33.4014 23.0425 33.4799 22.965 33.6912C22.6267 34.6102 22.5326 35.5427 22.7575 36.5024C23.3498 39.0276 25.7025 40.63 28.2519 40.2374C28.3672 40.2199 28.5485 40.219 28.5572 40.0939C28.5757 39.8322 28.565 39.5588 28.5039 39.3058C28.4632 39.1371 28.2403 39.1701 28.0948 39.1342C26.9403 38.8463 26.1067 37.7907 26.1425 36.6546C26.1551 36.2523 26.3829 35.9925 26.7426 35.9692C27.0945 35.946 27.3475 36.1524 27.425 36.5295C27.4522 36.6594 27.4667 36.7932 27.4997 36.9212C27.6169 37.3806 27.9107 37.6792 28.3566 37.8256C28.5824 37.8993 28.7501 37.8576 28.8345 37.5968C28.9285 37.3099 29.0487 37.0297 29.2339 36.7874C29.4384 36.5198 29.7583 36.4433 30.0423 36.578C30.337 36.7186 30.4795 37.0404 30.3855 37.3719C30.3593 37.464 30.3108 37.5493 30.2653 37.6346C29.9929 38.1464 29.8649 38.6893 29.8678 39.2719C29.8756 40.6833 30.6899 41.926 31.9549 42.4349C33.2897 42.972 34.7729 42.6628 35.751 41.6236C36.0456 41.3105 36.3578 41.2223 36.7581 41.3793C37.49 41.6662 38.2548 41.737 39.0362 41.7166C39.5732 41.7031 40.0879 41.5868 40.6075 41.4753C40.9914 41.3929 41.3035 41.5867 41.4005 41.9299C41.4964 42.2702 41.321 42.6046 40.9594 42.7345C40.7665 42.8033 40.5619 42.8382 40.3652 42.8944C40.1519 42.9545 39.7952 42.8847 39.7525 43.0699C39.6934 43.3239 39.9842 43.5197 40.1742 43.7039C40.3933 43.9152 40.6531 44.0722 40.9226 44.2108C41.3316 44.4202 41.7553 44.5986 42.1934 44.7382C43.124 45.0338 43.9266 45.5195 44.5742 46.262C44.9193 46.6575 45.3894 46.7399 45.7849 46.5238C46.2008 46.296 46.3578 45.8578 46.2056 45.3324C46.098 44.9592 45.9216 44.6141 45.7578 44.2642C45.6589 44.0528 45.5445 44.017 45.3322 44.1061C44.9639 44.2603 44.5742 44.3553 44.1797 44.4144C43.8258 44.4668 43.5069 44.2477 43.4294 43.9288C43.3441 43.5769 43.5234 43.2579 43.885 43.131C43.9751 43.099 44.073 43.0883 44.167 43.067C45.4844 42.7694 46.5284 42.0705 47.3621 40.8723L47.3631 40.8733Z" fill="#FA5560" stroke="#FA5560" stroke-width="0.3"/>
<path d="M54.1742 33.8124C53.9784 34.0935 53.7079 34.2088 53.3677 34.1982C53.0313 34.1866 52.693 34.204 52.3567 34.1914C51.9437 34.1759 51.682 33.9219 51.6703 33.5487C51.6587 33.19 51.8913 32.8973 52.2791 32.8701C52.7221 32.8391 53.169 32.8527 53.6139 32.8701C53.8592 32.8798 54.022 33.0563 54.1742 33.2317V33.8124Z" fill="#FA5560" stroke="#FA5560" stroke-width="0.3"/>
<path d="M51.0628 27.3741C50.7982 27.3644 50.6014 27.2394 50.4822 27.0067C50.36 26.7683 50.3862 26.5162 50.5539 26.3253C50.9843 25.8357 51.4341 25.3617 51.9391 24.9497C52.2173 24.7229 52.5479 24.7781 52.7873 25.0282C53.0035 25.2541 53.052 25.607 52.8436 25.8571C52.4258 26.3572 51.9498 26.8051 51.469 27.2433C51.3604 27.3421 51.215 27.3799 51.0628 27.3732V27.3741Z" fill="#FA5560" stroke="#FA5560" stroke-width="0.3"/>
<path d="M20.7501 40.3498C20.7704 40.5659 20.657 40.7453 20.4971 40.9052C20.1384 41.2639 19.7836 41.6284 19.4191 41.9812C19.0798 42.3079 18.6979 42.3321 18.4207 42.0597C18.1434 41.7873 18.1638 41.3589 18.4876 41.0274C18.8675 40.6386 19.2514 40.2528 19.6479 39.8806C19.8544 39.6867 20.1074 39.6159 20.3836 39.7526C20.6221 39.8709 20.753 40.057 20.7501 40.3498Z" fill="#FA5560" stroke="#FA5560" stroke-width="0.3"/>
<path d="M20.7503 26.6885C20.76 26.9542 20.6543 27.1577 20.4198 27.2857C20.1861 27.4136 19.9428 27.4088 19.7402 27.2392C19.241 26.8204 18.7825 26.3561 18.3589 25.8626C18.1466 25.6155 18.1921 25.2616 18.4054 25.0348C18.6313 24.7944 18.9589 24.7217 19.2206 24.9253C19.7528 25.3411 20.2133 25.8374 20.6582 26.3454C20.7397 26.4385 20.7542 26.5645 20.7513 26.6885H20.7503Z" fill="#FA5560" stroke="#FA5560" stroke-width="0.3"/>
<path d="M50.4484 40.3593C50.4349 40.1063 50.5386 39.9144 50.7538 39.7835C50.9826 39.6449 51.2298 39.6304 51.4343 39.7971C51.9587 40.2246 52.4473 40.6957 52.8612 41.2308C53.0609 41.4886 52.996 41.7891 52.7691 42.0237C52.553 42.2477 52.268 42.3272 52.014 42.1401C51.4498 41.7232 50.9748 41.2066 50.5241 40.6705C50.4514 40.5842 50.4494 40.4689 50.4484 40.3593Z" fill="#FA5560" stroke="#FA5560" stroke-width="0.3"/>
<path d="M18.2702 34.1894C18.053 34.1894 17.834 34.2059 17.6188 34.1855C17.2436 34.1496 17.01 33.8986 17.0003 33.5515C16.9906 33.189 17.2213 32.8962 17.6052 32.8691C18.0375 32.8381 18.4747 32.8381 18.907 32.8681C19.2987 32.8953 19.5342 33.1793 19.5274 33.5389C19.5207 33.916 19.2628 34.17 18.8489 34.1923C18.656 34.203 18.4631 34.1942 18.2702 34.1942V34.1894Z" fill="#FA5560" stroke="#FA5560" stroke-width="0.3"/>
<path d="M34.2535 39.1307C33.4809 39.1374 33.164 38.836 33.2502 38.3513C33.3103 38.011 33.5701 37.8269 34.0752 37.7939C34.7537 37.7503 35.2946 37.4498 35.7415 36.9505C35.916 36.7557 35.9461 36.6481 35.631 36.5764C34.8352 36.3961 34.1566 35.988 33.5653 35.4306C33.1892 35.0758 33.1252 34.6434 33.4121 34.3517C33.6991 34.0599 34.0936 34.0948 34.4649 34.4457C36.3416 36.2177 39.208 35.4024 39.8681 32.9092C39.9457 32.6165 40.0581 32.3538 40.3838 32.2694C40.9112 32.1328 41.3173 32.569 41.1797 33.1428C40.8647 34.4525 40.1386 35.4664 38.9598 36.1382C38.5905 36.3486 38.2008 36.5143 37.7821 36.5938C37.5252 36.6432 37.3778 36.7664 37.2547 37.0135C36.6023 38.3193 35.5263 39.0163 34.2545 39.1297L34.2535 39.1307Z" fill="#FA5560" stroke="#FA5560" stroke-width="0.3"/>
<path d="M29.9912 32.4239C30.0144 30.7208 31.5926 29.1582 33.2987 29.1485C33.7494 29.1456 34.0645 29.3947 34.0906 29.7737C34.1168 30.1498 33.8299 30.4358 33.3781 30.4862C32.1218 30.6258 31.4704 31.2695 31.3279 32.5131C31.2717 32.9997 31.0032 33.2731 30.6019 33.2498C30.2005 33.2266 29.9854 32.9348 29.9921 32.4249L29.9912 32.4239Z" fill="#FA5560" stroke="#FA5560" stroke-width="0.3"/>
</svg>
