<svg width="72" height="72" viewBox="0 0 72 72" fill="none" xmlns="http://www.w3.org/2000/svg">
<rect width="72" height="72" rx="5" fill="#FAFBFC"/>
<path d="M35.3614 50.9994C34.267 50.7639 33.4041 50.1991 32.8354 49.219C32.5616 48.7473 32.4154 48.2325 32.37 47.6928C32.3543 47.5027 32.28 47.4503 32.0985 47.444C31.5142 47.4244 31.1856 47.0787 31.1849 46.4959C31.1825 45.3835 31.1723 44.2711 31.188 43.1587C31.1974 42.4719 30.9337 41.9392 30.4159 41.5011C28.831 40.1595 27.7922 38.4729 27.4636 36.4218C26.9051 32.9376 28.0949 30.1043 30.8688 27.9577C32.5663 26.6443 34.5361 26.1085 36.6678 26.2845C40.5447 26.6036 43.6612 29.4198 44.3825 33.1215C45.0388 36.4891 44.0007 39.3154 41.4036 41.5613C40.9389 41.9634 40.7004 42.4492 40.7066 43.0703C40.7183 44.1921 40.7105 45.3147 40.7097 46.4372C40.7097 47.0896 40.4164 47.4119 39.7663 47.4432C39.5567 47.4534 39.5418 47.5613 39.5223 47.7217C39.3611 49.0828 38.6891 50.0912 37.4477 50.7021C37.1567 50.8453 36.8422 50.9149 36.5324 50.9994H35.3614ZM35.9301 42.0784C36.8477 42.0784 37.7645 42.0737 38.6821 42.0815C38.8831 42.0831 38.9997 42.037 39.0685 41.825C39.2774 41.1788 39.6576 40.6469 40.1794 40.2072C42.279 38.4354 43.0949 36.1793 42.5966 33.4883C41.9332 29.9064 38.2354 27.4821 34.6722 28.2049C31.5079 28.8472 29.0109 31.8252 29.1619 35.1139C29.2519 37.0703 30.0122 38.6967 31.4743 39.9905C32.0532 40.5021 32.5679 41.0544 32.8034 41.8078C32.8722 42.0284 32.9919 42.0839 33.2078 42.0815C34.1152 42.0714 35.0227 42.0776 35.9301 42.0776V42.0784ZM35.9457 43.8753C35.0594 43.8753 34.1723 43.8808 33.286 43.8714C33.0662 43.869 32.9661 43.923 32.9762 44.1655C32.9935 44.5645 32.9895 44.9642 32.977 45.3632C32.9708 45.5752 33.0388 45.6549 33.2594 45.6534C35.0524 45.6463 36.8446 45.6463 38.6375 45.6534C38.862 45.6542 38.923 45.5681 38.9168 45.3592C38.905 44.9697 38.9019 44.5793 38.9176 44.1905C38.927 43.9527 38.8526 43.8659 38.6054 43.8698C37.7191 43.8823 36.832 43.8745 35.9457 43.8745V43.8753ZM35.9379 47.4471C35.4607 47.4471 34.9835 47.4581 34.5064 47.4424C34.2506 47.4338 34.1755 47.5246 34.2224 47.7694C34.3796 48.5845 35.1126 49.2033 35.9418 49.2096C36.7702 49.2158 37.5353 48.5697 37.6738 47.7506C37.7082 47.5488 37.6675 47.4377 37.4273 47.4432C36.9314 47.4549 36.4339 47.4471 35.9379 47.4463V47.4471Z" fill="#FA5560"/>
<path d="M27.9275 27.898C27.7343 27.9074 27.516 27.7916 27.3291 27.6062C26.9285 27.2081 26.5249 26.8122 26.1322 26.407C25.727 25.9885 25.7152 25.4542 26.0907 25.0787C26.4631 24.7056 27.0076 24.7111 27.4222 25.11C27.843 25.5152 28.2576 25.9275 28.6605 26.3507C28.9398 26.6433 29.0203 26.9945 28.8459 27.3747C28.6832 27.7291 28.3953 27.8973 27.9283 27.8988L27.9275 27.898Z" fill="#FA5560"/>
<path d="M43.9526 27.8995C43.5067 27.8917 43.2329 27.7352 43.0655 27.4114C42.8856 27.0625 42.9185 26.7081 43.1743 26.4296C43.628 25.9352 44.1013 25.4557 44.6003 25.0075C44.9602 24.6844 45.4851 24.7493 45.8152 25.0912C46.1359 25.4229 46.1821 25.9282 45.8598 26.2841C45.41 26.7816 44.9211 27.244 44.4384 27.711C44.2874 27.8573 44.0833 27.9089 43.9518 27.8995H43.9526Z" fill="#FA5560"/>
<path d="M23.8097 35.8492C23.5273 35.8492 23.2441 35.857 22.9617 35.8476C22.4102 35.8296 21.9878 35.4142 22.0003 34.9112C22.012 34.4129 22.425 34.0179 22.9648 34.0093C23.5398 33.9999 24.1147 33.9991 24.6897 34.0093C25.2287 34.0186 25.6417 34.4168 25.6511 34.9143C25.6605 35.4181 25.2389 35.8312 24.6866 35.8476C24.3948 35.8562 24.1014 35.8492 23.8097 35.8492Z" fill="#FA5560"/>
<path d="M48.047 35.8481C47.7646 35.8481 47.4814 35.8559 47.199 35.8465C46.66 35.8285 46.2478 35.4303 46.2423 34.9344C46.2361 34.429 46.66 34.016 47.2123 34.0074C47.7873 33.998 48.363 33.9972 48.9372 34.0074C49.4746 34.0176 49.8885 34.4204 49.8939 34.9172C49.9002 35.41 49.4879 35.823 48.9529 35.8441C48.6509 35.8559 48.349 35.8465 48.0462 35.8465L48.047 35.8481Z" fill="#FA5560"/>
<path d="M26.4825 30.6399C26.4818 31.2696 25.8966 31.7085 25.2927 31.4918C24.6888 31.2751 24.0966 31.0224 23.5123 30.7557C23.0531 30.5468 22.8794 30.0188 23.0812 29.569C23.2768 29.1333 23.7728 28.9142 24.2288 29.0903C24.8101 29.3148 25.3858 29.5526 25.9553 29.8045C26.3065 29.9593 26.4865 30.248 26.4833 30.6399H26.4825Z" fill="#FA5560"/>
<path d="M26.4825 39.2051C26.4872 39.6087 26.3003 39.8997 25.9365 40.0585C25.3748 40.3042 24.8085 40.5404 24.2366 40.7618C23.7688 40.9425 23.2611 40.7156 23.0718 40.2674C22.8802 39.8129 23.0656 39.2974 23.5295 39.0893C24.0974 38.8343 24.6724 38.5926 25.2559 38.3743C25.8739 38.1435 26.4786 38.5668 26.4825 39.2059V39.2051Z" fill="#FA5560"/>
<path d="M46.4136 38.3047C47.1043 38.5769 47.9367 38.7826 48.6258 39.288C48.9622 39.5344 48.9794 40.0202 48.7619 40.3808C48.5437 40.743 48.0962 40.9253 47.7012 40.7743C47.1012 40.5451 46.5067 40.301 45.9207 40.039C45.503 39.852 45.3184 39.403 45.4326 38.9602C45.5273 38.5941 45.9121 38.3062 46.4136 38.3047Z" fill="#FA5560"/>
<path d="M30.9572 21.9942C31.3483 21.9926 31.6362 22.1725 31.7911 22.5237C32.043 23.0932 32.2855 23.6674 32.5061 24.2494C32.6876 24.729 32.4411 25.2374 31.9725 25.4213C31.5337 25.5934 31.0283 25.3955 30.8257 24.9402C30.5723 24.3715 30.3267 23.7981 30.1131 23.2137C29.8862 22.5926 30.3157 21.9949 30.9572 21.9942Z" fill="#FA5560"/>
<path d="M45.4102 30.6508C45.4055 30.2471 45.5916 29.9561 45.9554 29.7973C46.5171 29.5525 47.0834 29.3162 47.6545 29.0941C48.1215 28.9126 48.63 29.1387 48.8201 29.5869C49.0125 30.0414 48.8279 30.5569 48.3648 30.7658C47.7969 31.0216 47.2235 31.2664 46.6391 31.48C46.0125 31.7092 45.4149 31.2899 45.4109 30.6508H45.4102Z" fill="#FA5560"/>
<path d="M40.926 21.9922C41.5807 21.9898 42.0094 22.6 41.7732 23.2321C41.558 23.8055 41.3194 24.3711 41.0715 24.9312C40.8642 25.399 40.3487 25.5992 39.902 25.4123C39.4365 25.2175 39.2073 24.7074 39.3943 24.2287C39.6133 23.667 39.848 23.1108 40.0858 22.557C40.2423 22.1925 40.5247 21.9977 40.9268 21.9922H40.926Z" fill="#FA5560"/>
<path d="M35.0489 22.7945C35.0489 22.4832 35.0426 22.1711 35.0504 21.8597C35.0629 21.3661 35.4408 21.0039 35.9352 21C36.446 20.9961 36.8348 21.3591 36.8418 21.866C36.8504 22.4895 36.8496 23.1129 36.8418 23.7364C36.8356 24.2457 36.4507 24.6118 35.9422 24.611C35.4353 24.6102 35.059 24.2418 35.0489 23.7301C35.0426 23.4188 35.0481 23.1067 35.0481 22.7953L35.0489 22.7945Z" fill="#FA5560"/>
<path d="M31.6531 36.4004C31.6453 36.1157 31.7642 35.8818 31.9801 35.7128C33.1238 34.8171 34.2698 33.9238 35.4245 33.0421C35.7108 32.8239 36.0464 32.8208 36.3655 32.9843C36.687 33.1493 36.8513 33.4223 36.845 33.7908C36.8419 33.9566 36.8419 34.1225 36.8466 34.2883C36.8482 34.3524 36.8153 34.4385 36.8904 34.4745C36.964 34.5089 37.0132 34.4322 37.0641 34.3931C37.6046 33.977 38.1436 33.5577 38.6826 33.1391C38.8383 33.0187 39.001 32.9139 39.2036 32.8904C39.6284 32.8411 39.9984 33.0374 40.165 33.4028C40.334 33.7712 40.262 34.1882 39.9334 34.4674C39.5024 34.8328 39.0471 35.1691 38.6005 35.5165C37.9074 36.0547 37.2151 36.5944 36.5181 37.1264C36.2122 37.3595 35.8703 37.3939 35.5277 37.2187C35.1812 37.0411 35.0286 36.7423 35.0474 36.3535C35.0537 36.2174 35.0529 36.0805 35.0466 35.9444C35.0435 35.8708 35.0857 35.7699 35.0012 35.7316C34.9207 35.6948 34.8628 35.7848 34.8049 35.8294C34.2401 36.2627 33.687 36.711 33.1121 37.1311C32.5966 37.5081 31.9261 37.3102 31.7048 36.7446C31.6609 36.632 31.6523 36.5178 31.6523 36.4004H31.6531Z" fill="#FA5560"/>
</svg>
