<svg width="72" height="72" viewBox="0 0 72 72" fill="none" xmlns="http://www.w3.org/2000/svg">
<rect width="72" height="72" rx="5" fill="#FAFBFC"/>
<path d="M20 44.8955C20.1915 44.3787 20.4226 43.8936 20.857 43.5209C21.4371 43.0231 22.1192 42.8799 22.8512 42.8751C23.5302 42.8704 23.4748 42.9242 23.4574 42.2603C23.4179 40.7828 23.7724 39.4399 24.7822 38.3241C25.7698 37.2328 27.0059 36.6258 28.4817 36.6076C30.6295 36.5799 32.7772 36.5997 34.9257 36.5989C35.2407 36.5989 35.3984 36.4364 35.399 36.1114C35.399 34.9529 35.3918 33.7951 35.4045 32.6366C35.4077 32.366 35.3349 32.2647 35.05 32.2718C34.3029 32.2892 33.5551 32.2789 32.8073 32.2773C31.1597 32.2742 30.0605 31.2169 30.0415 29.5661C30.0201 27.6186 30.0249 25.6703 30.0407 23.7228C30.0518 22.3917 30.7838 21.431 31.9977 21.1034C32.2715 21.0298 32.5556 21.0021 32.8405 21.0021C35.2098 21.0013 37.5784 20.9974 39.9477 21.0029C41.3294 21.0061 42.2972 21.727 42.6478 22.9868C42.7 23.1736 42.7048 23.3603 42.7048 23.5495C42.7063 25.603 42.7127 27.6558 42.7048 29.7094C42.6984 31.1417 41.6032 32.2481 40.17 32.275C39.37 32.29 38.5691 32.2916 37.7699 32.2718C37.4565 32.2639 37.3789 32.3762 37.3829 32.6714C37.3971 33.8505 37.3971 35.0297 37.3829 36.2088C37.3789 36.5087 37.4644 36.6068 37.773 36.6052C39.7633 36.5926 41.7528 36.595 43.743 36.6005C46.1962 36.6068 48.2387 38.2307 48.7926 40.6174C48.9335 41.2252 48.9383 41.848 48.9398 42.4684C48.9414 42.8593 48.9549 42.8767 49.3529 42.8736C50.1625 42.8664 50.9301 42.9883 51.5489 43.5715C52.0514 44.0456 52.3609 44.6209 52.3688 45.3228C52.3806 46.3967 52.3822 47.4705 52.3688 48.5444C52.3537 49.7219 51.3305 50.8314 50.153 50.9153C48.6304 51.0237 47.1039 51.0213 45.5813 50.9129C44.5201 50.837 43.5009 49.7805 43.428 48.713C43.3473 47.5251 43.3481 46.3365 43.4265 45.1487C43.4985 44.0487 44.5621 42.9931 45.6644 42.9203C46.0102 42.8973 46.3576 42.887 46.7043 42.8744C46.8443 42.8688 46.9551 42.8419 46.9583 42.6678C46.9741 41.7807 46.9915 40.8944 46.4779 40.1054C45.8765 39.1811 45.0448 38.6129 43.9274 38.5987C41.8533 38.5718 39.7791 38.5908 37.705 38.5844C37.4794 38.5844 37.3837 38.6533 37.3853 38.8915C37.3932 40.1125 37.394 41.3344 37.3853 42.5554C37.3837 42.8118 37.4905 42.8791 37.7255 42.8783C38.3476 42.8767 38.9696 42.8854 39.5338 43.2107C40.375 43.6958 40.8474 44.4151 40.868 45.3901C40.8894 46.4109 40.8815 47.4326 40.8712 48.4542C40.8585 49.7267 39.8796 50.8211 38.6134 50.9153C37.0917 51.0293 35.5644 51.0293 34.0426 50.909C32.9909 50.8259 31.9977 49.7639 31.9257 48.7098C31.845 47.5331 31.8395 46.3555 31.9257 45.1788C32.012 44.0012 33.0463 42.9899 34.2238 42.9179C34.5277 42.8989 34.8324 42.8823 35.137 42.8759C35.3206 42.8728 35.4029 42.8023 35.4021 42.6116C35.3982 41.3589 35.3958 40.1054 35.4037 38.8527C35.4053 38.5765 35.2383 38.5852 35.05 38.5852C33.8076 38.5868 32.5651 38.5852 31.3227 38.586C30.3644 38.586 29.406 38.5749 28.4485 38.5939C26.869 38.6256 25.4825 40.035 25.4564 41.6169C25.4516 41.9224 25.4675 42.2286 25.4501 42.5325C25.435 42.7976 25.5411 42.8823 25.7983 42.8783C26.3989 42.8696 26.998 42.8886 27.5503 43.1798C28.5545 43.71 28.9637 44.5845 28.9684 45.6718C28.9724 46.6602 29.0072 47.6502 28.9344 48.6386C28.8505 49.7837 27.8645 50.833 26.7202 50.9145C25.2293 51.0214 23.7336 51.0285 22.2435 50.9137C21.1981 50.833 20.5183 50.2142 20.125 49.2614C20.0815 49.1545 20.0427 49.0461 20.0016 48.9385V44.8947L20 44.8955ZM36.3953 30.2886C37.595 30.2886 38.7955 30.2902 39.9952 30.2886C40.5262 30.2879 40.7588 30.0805 40.7612 29.5535C40.7699 27.617 40.7699 25.6798 40.7612 23.7434C40.7588 23.2274 40.5072 22.9924 39.9967 22.9916C37.5966 22.9892 35.1972 22.9892 32.797 22.9916C32.2518 22.9916 32.0254 23.2163 32.0246 23.7576C32.0223 25.6838 32.0223 27.6099 32.0246 29.5361C32.0246 30.0742 32.2335 30.2863 32.7638 30.2879C33.9745 30.291 35.1845 30.2886 36.3953 30.2886ZM24.4545 48.9828C25.0544 48.9828 25.6542 48.9868 26.2533 48.9812C26.7352 48.9773 26.9797 48.7517 26.9869 48.269C26.9995 47.3748 26.9987 46.4806 26.9877 45.5863C26.9821 45.1083 26.7368 44.8614 26.2604 44.8575C25.0615 44.848 23.8618 44.848 22.6621 44.8575C22.192 44.8607 21.9428 45.0775 21.9309 45.5468C21.9072 46.4616 21.9064 47.3772 21.9309 48.292C21.9444 48.7818 22.192 48.9789 22.6867 48.982C23.2754 48.986 23.865 48.9828 24.4537 48.982L24.4545 48.9828ZM47.9032 48.9828C48.4919 48.9828 49.0815 48.986 49.6703 48.982C50.1609 48.9789 50.4062 48.7771 50.4197 48.2848C50.4434 47.3811 50.4418 46.475 50.4212 45.5713C50.4102 45.0838 50.1641 44.8607 49.6797 44.8575C48.4911 44.8496 47.3017 44.8496 46.1131 44.8575C45.6161 44.8607 45.3669 45.1036 45.3613 45.595C45.351 46.479 45.351 47.3621 45.3613 48.2461C45.3677 48.7597 45.6098 48.9804 46.1353 48.9836C46.724 48.9868 47.3136 48.9836 47.9024 48.9836L47.9032 48.9828ZM36.3945 48.9828C36.9833 48.9828 37.572 48.986 38.1616 48.982C38.6815 48.9789 38.8865 48.7787 38.8904 48.2548C38.8968 47.3716 38.8968 46.4877 38.8904 45.6045C38.8873 45.0704 38.6775 44.8591 38.1418 44.8559C36.9746 44.8496 35.8073 44.8504 34.6401 44.8559C34.1004 44.8583 33.8637 45.0917 33.8598 45.6235C33.8535 46.4964 33.8535 47.3692 33.8598 48.2421C33.8629 48.7422 34.1004 48.9773 34.5965 48.982C35.1956 48.9876 35.7954 48.9836 36.3953 48.9836L36.3945 48.9828Z" fill="#FA5560"/>
</svg>
