<svg width="72" height="72" viewBox="0 0 72 72" fill="none" xmlns="http://www.w3.org/2000/svg">
<rect width="72" height="72" rx="5" fill="#FAFBFC"/>
<path d="M37.5242 50.999C37.0755 50.7864 36.909 50.437 36.9122 49.9391C36.927 47.404 36.9122 44.8698 36.9207 42.3348C36.9278 40.1453 37.9229 38.5163 39.7825 37.4008C40.6353 36.8896 41.5014 36.4018 42.3644 35.9078C43.3634 35.3363 44.3929 35.2676 45.4419 35.7569C45.6553 35.8562 45.7007 35.8202 45.6999 35.592C45.6936 33.7886 45.6936 31.9845 45.6975 30.1811C45.7015 28.2926 47.3477 26.7925 49.2222 27.002C50.0093 27.0895 50.5549 27.5586 50.8684 28.2879C50.9106 28.3864 50.945 28.488 50.9825 28.588V38.9454C50.9692 38.9923 50.9513 39.0376 50.9442 39.0853C50.6675 40.9238 49.8569 42.4786 48.478 43.734C48.0231 44.1475 47.5111 44.4883 47.0491 44.8917C46.3143 45.5335 45.8891 46.3394 45.7851 47.3149C45.6913 48.1896 45.7382 49.0659 45.7452 49.9414C45.7491 50.4378 45.5803 50.788 45.1316 50.9998H37.525L37.5242 50.999ZM49.2065 33.5908C49.2065 32.1971 49.2065 30.8026 49.2065 29.4088C49.2065 29.3306 49.2097 29.2525 49.205 29.1751C49.1878 28.8796 49.0635 28.7788 48.7719 28.821C48.1708 28.907 47.6854 29.3166 47.5619 29.8567C47.5118 30.0748 47.4892 30.2968 47.49 30.5235C47.4931 32.8826 47.4946 35.2418 47.49 37.6009C47.4884 38.5413 47.0811 39.2893 46.2963 39.7849C45.4068 40.347 44.4805 40.8496 43.5682 41.3749C43.3884 41.4781 43.1922 41.5359 42.9804 41.5039C42.5817 41.4437 42.2667 41.1662 42.1971 40.8144C42.1135 40.39 42.2745 40.0187 42.6568 39.7951C43.4392 39.3378 44.2264 38.8883 45.0112 38.4342C45.363 38.2309 45.3888 38.0465 45.1128 37.7416C44.6415 37.221 43.9481 37.1131 43.3032 37.479C42.4637 37.955 41.6375 38.4537 40.7948 38.9235C39.4479 39.6739 38.746 40.8254 38.7233 42.3489C38.6905 44.5517 38.7163 46.7552 38.7108 48.958C38.7108 49.1644 38.7851 49.2269 38.9852 49.2269C40.5447 49.2215 42.1049 49.2199 43.6644 49.2277C43.8895 49.2285 43.9489 49.1417 43.9434 48.933C43.9317 48.5242 43.9395 48.1146 43.9403 47.705C43.945 45.9227 44.6704 44.486 46.0337 43.358C46.6113 42.8804 47.2398 42.4646 47.737 41.8916C48.7563 40.7167 49.1964 39.3362 49.2042 37.8018C49.2112 36.3979 49.2058 34.994 49.2058 33.5901L49.2065 33.5908Z" fill="#FA5560"/>
<path d="M26.8754 50.9991C26.4267 50.7865 26.2578 50.4363 26.2618 49.9392C26.2688 49.073 26.3118 48.2054 26.2235 47.3385C26.1234 46.3489 25.6974 45.5297 24.9485 44.8871C24.2763 44.3102 23.5298 43.8217 22.9419 43.1455C21.7037 41.7244 21.0174 40.0844 21.008 38.1919C20.9932 35.1793 21.0033 32.1659 21.0041 29.1533C21.0041 27.7025 22.1634 26.7551 23.5962 27.013C25.3902 27.3366 26.354 28.9039 26.3204 30.2945C26.2782 32.0487 26.3133 33.8043 26.3063 35.56C26.3055 35.8031 26.3329 35.8633 26.5877 35.7468C27.5938 35.2833 28.5959 35.3278 29.5612 35.8664C30.4969 36.3894 31.4295 36.9209 32.3464 37.4759C33.9129 38.4241 34.8048 39.8265 35.0659 41.6329C35.0925 41.8151 35.0862 42.0027 35.0862 42.1879C35.0878 44.7722 35.0792 47.3557 35.094 49.9399C35.0972 50.4371 34.9314 50.7881 34.482 50.9999H26.8754V50.9991ZM24.5147 34.0881C24.5147 32.8601 24.5194 31.6312 24.5131 30.4032C24.5092 29.5816 24.0535 28.9672 23.3758 28.8414C22.9068 28.7538 22.8004 28.8414 22.8004 29.3252C22.7997 30.8558 22.7903 32.3864 22.8028 33.9169C22.8153 35.4177 22.7543 36.9186 22.8427 38.4186C22.9169 39.6787 23.3742 40.7801 24.159 41.7596C24.6163 42.3302 25.1986 42.757 25.7716 43.194C26.9262 44.0741 27.679 45.206 27.9744 46.635C28.13 47.3885 28.051 48.1499 28.0612 48.9081C28.0643 49.1442 28.1261 49.2309 28.3747 49.2294C29.9146 49.22 31.4553 49.2208 32.9952 49.2294C33.2258 49.2309 33.2969 49.1567 33.2962 48.9276C33.2891 46.7538 33.304 44.5799 33.2868 42.406C33.2774 41.1968 32.8662 40.1274 31.8797 39.3887C30.8182 38.5937 29.6293 37.9911 28.4583 37.3743C27.9346 37.0984 27.2936 37.2993 26.8902 37.7464C26.6158 38.0505 26.644 38.2342 26.9973 38.4382C27.7649 38.8814 28.5341 39.3238 29.3017 39.7686C29.7981 40.0555 29.9724 40.5831 29.7246 41.0381C29.4714 41.5016 28.9179 41.6478 28.4098 41.3609C27.5195 40.8575 26.6237 40.3596 25.7552 39.8194C24.9462 39.3168 24.5217 38.564 24.517 37.6002C24.5108 36.43 24.5155 35.2606 24.5155 34.0904L24.5147 34.0881Z" fill="#FA5560"/>
<path d="M35.9909 33.3479C34.4697 33.3479 32.9494 33.3479 31.4282 33.3479C30.7615 33.3479 30.4519 33.0087 30.4199 32.3403C30.3487 30.8708 30.7091 29.5395 31.633 28.3811C32.0559 27.8511 32.5554 27.4001 33.1456 27.0632C33.3394 26.9522 33.33 26.8756 33.2042 26.7122C31.547 24.5618 32.8251 21.4131 35.5039 21.0348C36.9383 20.8323 38.3422 21.5257 39.0848 22.8037C39.7891 24.0161 39.6852 25.5787 38.8073 26.7059C38.6611 26.8943 38.701 26.9584 38.8831 27.0757C40.6458 28.2091 41.5808 29.81 41.5831 31.926C41.5831 32.0433 41.5831 32.1598 41.5831 32.277C41.5831 33.0306 41.2696 33.3479 40.5255 33.3479C39.0145 33.3479 37.5035 33.3479 35.9917 33.3479H35.9909ZM35.994 31.5524C37.1439 31.5524 38.293 31.5454 39.4428 31.5579C39.7141 31.561 39.7633 31.4469 39.7195 31.221C39.3529 29.3605 37.8513 28.0856 35.9839 28.1005C34.0484 28.1161 32.65 29.4489 32.2998 31.1748C32.2333 31.5031 32.2708 31.5524 32.6046 31.5524C33.735 31.5532 34.8645 31.5524 35.9948 31.5524H35.994ZM37.7255 24.5571C37.7333 23.6331 36.9547 22.8452 36.0167 22.828C35.0873 22.8108 34.2712 23.6245 34.2806 24.5586C34.2899 25.492 35.0771 26.2752 36.0042 26.2744C36.9336 26.2729 37.7176 25.4904 37.7262 24.5578L37.7255 24.5571Z" fill="#FA5560"/>
</svg>
