<svg width="710" height="812" viewBox="0 0 710 812" fill="none" xmlns="http://www.w3.org/2000/svg">
<path d="M2.72993 1.36842C2.72993 2.12413 2.11881 2.73684 1.36496 2.73684C0.611116 2.73684 0 2.12413 0 1.36842C0 0.612716 0.611116 0 1.36496 0C2.11881 0 2.72993 0.612716 2.72993 1.36842Z" fill="#BDBDBD"/>
<path d="M2.72993 62.9474C2.72993 63.7031 2.11881 64.3158 1.36496 64.3158C0.611116 64.3158 0 63.7031 0 62.9474C0 62.1917 0.611116 61.5789 1.36496 61.5789C2.11881 61.5789 2.72993 62.1917 2.72993 62.9474Z" fill="#BDBDBD"/>
<path d="M2.72993 124.526C2.72993 125.282 2.11881 125.895 1.36496 125.895C0.611116 125.895 0 125.282 0 124.526C0 123.771 0.611116 123.158 1.36496 123.158C2.11881 123.158 2.72993 123.771 2.72993 124.526Z" fill="#BDBDBD"/>
<path d="M2.72993 186.105C2.72993 186.861 2.11881 187.474 1.36496 187.474C0.611116 187.474 0 186.861 0 186.105C0 185.35 0.611116 184.737 1.36496 184.737C2.11881 184.737 2.72993 185.35 2.72993 186.105Z" fill="#BDBDBD"/>
<path d="M2.72993 21.8947C2.72993 22.6504 2.11881 23.2632 1.36496 23.2632C0.611116 23.2632 0 22.6504 0 21.8947C0 21.139 0.611116 20.5263 1.36496 20.5263C2.11881 20.5263 2.72993 21.139 2.72993 21.8947Z" fill="#BDBDBD"/>
<path d="M2.72993 83.4737C2.72993 84.2294 2.11881 84.8421 1.36496 84.8421C0.611116 84.8421 0 84.2294 0 83.4737C0 82.718 0.611116 82.1053 1.36496 82.1053C2.11881 82.1053 2.72993 82.718 2.72993 83.4737Z" fill="#BDBDBD"/>
<path d="M2.72993 145.053C2.72993 145.808 2.11881 146.421 1.36496 146.421C0.611116 146.421 0 145.808 0 145.053C0 144.297 0.611116 143.684 1.36496 143.684C2.11881 143.684 2.72993 144.297 2.72993 145.053Z" fill="#BDBDBD"/>
<path d="M2.72993 206.632C2.72993 207.387 2.11881 208 1.36496 208C0.611116 208 0 207.387 0 206.632C0 205.876 0.611116 205.263 1.36496 205.263C2.11881 205.263 2.72993 205.876 2.72993 206.632Z" fill="#BDBDBD"/>
<path d="M2.72993 42.4211C2.72993 43.1768 2.11881 43.7895 1.36496 43.7895C0.611116 43.7895 0 43.1768 0 42.4211C0 41.6653 0.611116 41.0526 1.36496 41.0526C2.11881 41.0526 2.72993 41.6653 2.72993 42.4211Z" fill="#BDBDBD"/>
<path d="M2.72993 104C2.72993 104.756 2.11881 105.368 1.36496 105.368C0.611116 105.368 0 104.756 0 104C0 103.244 0.611116 102.632 1.36496 102.632C2.11881 102.632 2.72993 103.244 2.72993 104Z" fill="#BDBDBD"/>
<path d="M2.72993 165.579C2.72993 166.335 2.11881 166.947 1.36496 166.947C0.611116 166.947 0 166.335 0 165.579C0 164.823 0.611116 164.211 1.36496 164.211C2.11881 164.211 2.72993 164.823 2.72993 165.579Z" fill="#BDBDBD"/>
<path d="M23.2044 1.36842C23.2044 2.12413 22.5933 2.73684 21.8394 2.73684C21.0856 2.73684 20.4745 2.12413 20.4745 1.36842C20.4745 0.612716 21.0856 0 21.8394 0C22.5933 0 23.2044 0.612716 23.2044 1.36842Z" fill="#BDBDBD"/>
<path d="M23.2044 62.9474C23.2044 63.7031 22.5933 64.3158 21.8394 64.3158C21.0856 64.3158 20.4745 63.7031 20.4745 62.9474C20.4745 62.1917 21.0856 61.5789 21.8394 61.5789C22.5933 61.5789 23.2044 62.1917 23.2044 62.9474Z" fill="#BDBDBD"/>
<path d="M23.2044 124.526C23.2044 125.282 22.5933 125.895 21.8394 125.895C21.0856 125.895 20.4745 125.282 20.4745 124.526C20.4745 123.771 21.0856 123.158 21.8394 123.158C22.5933 123.158 23.2044 123.771 23.2044 124.526Z" fill="#BDBDBD"/>
<path d="M23.2044 186.105C23.2044 186.861 22.5933 187.474 21.8394 187.474C21.0856 187.474 20.4745 186.861 20.4745 186.105C20.4745 185.35 21.0856 184.737 21.8394 184.737C22.5933 184.737 23.2044 185.35 23.2044 186.105Z" fill="#BDBDBD"/>
<path d="M23.2044 21.8947C23.2044 22.6504 22.5933 23.2632 21.8394 23.2632C21.0856 23.2632 20.4745 22.6504 20.4745 21.8947C20.4745 21.139 21.0856 20.5263 21.8394 20.5263C22.5933 20.5263 23.2044 21.139 23.2044 21.8947Z" fill="#BDBDBD"/>
<path d="M23.2044 83.4737C23.2044 84.2294 22.5933 84.8421 21.8394 84.8421C21.0856 84.8421 20.4745 84.2294 20.4745 83.4737C20.4745 82.718 21.0856 82.1053 21.8394 82.1053C22.5933 82.1053 23.2044 82.718 23.2044 83.4737Z" fill="#BDBDBD"/>
<path d="M23.2044 145.053C23.2044 145.808 22.5933 146.421 21.8394 146.421C21.0856 146.421 20.4745 145.808 20.4745 145.053C20.4745 144.297 21.0856 143.684 21.8394 143.684C22.5933 143.684 23.2044 144.297 23.2044 145.053Z" fill="#BDBDBD"/>
<path d="M23.2044 206.632C23.2044 207.387 22.5933 208 21.8394 208C21.0856 208 20.4745 207.387 20.4745 206.632C20.4745 205.876 21.0856 205.263 21.8394 205.263C22.5933 205.263 23.2044 205.876 23.2044 206.632Z" fill="#BDBDBD"/>
<path d="M23.2044 42.4211C23.2044 43.1768 22.5933 43.7895 21.8394 43.7895C21.0856 43.7895 20.4745 43.1768 20.4745 42.4211C20.4745 41.6653 21.0856 41.0526 21.8394 41.0526C22.5933 41.0526 23.2044 41.6653 23.2044 42.4211Z" fill="#BDBDBD"/>
<path d="M23.2044 104C23.2044 104.756 22.5933 105.368 21.8394 105.368C21.0856 105.368 20.4745 104.756 20.4745 104C20.4745 103.244 21.0856 102.632 21.8394 102.632C22.5933 102.632 23.2044 103.244 23.2044 104Z" fill="#BDBDBD"/>
<path d="M23.2044 165.579C23.2044 166.335 22.5933 166.947 21.8394 166.947C21.0856 166.947 20.4745 166.335 20.4745 165.579C20.4745 164.823 21.0856 164.211 21.8394 164.211C22.5933 164.211 23.2044 164.823 23.2044 165.579Z" fill="#BDBDBD"/>
<path d="M42.3139 2.73684C43.0677 2.73684 43.6788 2.12413 43.6788 1.36842C43.6788 0.612716 43.0677 0 42.3139 0C41.56 0 40.9489 0.612716 40.9489 1.36842C40.9489 2.12413 41.56 2.73684 42.3139 2.73684Z" fill="#BDBDBD"/>
<path d="M42.3139 64.3158C43.0677 64.3158 43.6788 63.7031 43.6788 62.9474C43.6788 62.1917 43.0677 61.5789 42.3139 61.5789C41.56 61.5789 40.9489 62.1917 40.9489 62.9474C40.9489 63.7031 41.56 64.3158 42.3139 64.3158Z" fill="#BDBDBD"/>
<path d="M42.3139 125.895C43.0677 125.895 43.6788 125.282 43.6788 124.526C43.6788 123.771 43.0677 123.158 42.3139 123.158C41.56 123.158 40.9489 123.771 40.9489 124.526C40.9489 125.282 41.56 125.895 42.3139 125.895Z" fill="#BDBDBD"/>
<path d="M42.3139 187.474C43.0677 187.474 43.6788 186.861 43.6788 186.105C43.6788 185.35 43.0677 184.737 42.3139 184.737C41.56 184.737 40.9489 185.35 40.9489 186.105C40.9489 186.861 41.56 187.474 42.3139 187.474Z" fill="#BDBDBD"/>
<path d="M42.3139 23.2632C43.0677 23.2632 43.6788 22.6504 43.6788 21.8947C43.6788 21.139 43.0677 20.5263 42.3139 20.5263C41.56 20.5263 40.9489 21.139 40.9489 21.8947C40.9489 22.6504 41.56 23.2632 42.3139 23.2632Z" fill="#BDBDBD"/>
<path d="M42.3139 84.8421C43.0677 84.8421 43.6788 84.2294 43.6788 83.4737C43.6788 82.718 43.0677 82.1053 42.3139 82.1053C41.56 82.1053 40.9489 82.718 40.9489 83.4737C40.9489 84.2294 41.56 84.8421 42.3139 84.8421Z" fill="#BDBDBD"/>
<path d="M42.3139 146.421C43.0677 146.421 43.6788 145.808 43.6788 145.053C43.6788 144.297 43.0677 143.684 42.3139 143.684C41.56 143.684 40.9489 144.297 40.9489 145.053C40.9489 145.808 41.56 146.421 42.3139 146.421Z" fill="#BDBDBD"/>
<path d="M42.3139 208C43.0677 208 43.6788 207.387 43.6788 206.632C43.6788 205.876 43.0677 205.263 42.3139 205.263C41.56 205.263 40.9489 205.876 40.9489 206.632C40.9489 207.387 41.56 208 42.3139 208Z" fill="#BDBDBD"/>
<path d="M42.3139 43.7895C43.0677 43.7895 43.6788 43.1768 43.6788 42.4211C43.6788 41.6653 43.0677 41.0526 42.3139 41.0526C41.56 41.0526 40.9489 41.6653 40.9489 42.4211C40.9489 43.1768 41.56 43.7895 42.3139 43.7895Z" fill="#BDBDBD"/>
<path d="M42.3139 105.368C43.0677 105.368 43.6788 104.756 43.6788 104C43.6788 103.244 43.0677 102.632 42.3139 102.632C41.56 102.632 40.9489 103.244 40.9489 104C40.9489 104.756 41.56 105.368 42.3139 105.368Z" fill="#BDBDBD"/>
<path d="M42.3139 166.947C43.0677 166.947 43.6788 166.335 43.6788 165.579C43.6788 164.823 43.0677 164.211 42.3139 164.211C41.56 164.211 40.9489 164.823 40.9489 165.579C40.9489 166.335 41.56 166.947 42.3139 166.947Z" fill="#BDBDBD"/>
<path d="M64.1533 1.36842C64.1533 2.12413 63.5422 2.73684 62.7883 2.73684C62.0345 2.73684 61.4234 2.12413 61.4234 1.36842C61.4234 0.612716 62.0345 0 62.7883 0C63.5422 0 64.1533 0.612716 64.1533 1.36842Z" fill="#BDBDBD"/>
<path d="M64.1533 62.9474C64.1533 63.7031 63.5422 64.3158 62.7883 64.3158C62.0345 64.3158 61.4234 63.7031 61.4234 62.9474C61.4234 62.1917 62.0345 61.5789 62.7883 61.5789C63.5422 61.5789 64.1533 62.1917 64.1533 62.9474Z" fill="#BDBDBD"/>
<path d="M64.1533 124.526C64.1533 125.282 63.5422 125.895 62.7883 125.895C62.0345 125.895 61.4234 125.282 61.4234 124.526C61.4234 123.771 62.0345 123.158 62.7883 123.158C63.5422 123.158 64.1533 123.771 64.1533 124.526Z" fill="#BDBDBD"/>
<path d="M64.1533 186.105C64.1533 186.861 63.5422 187.474 62.7883 187.474C62.0345 187.474 61.4234 186.861 61.4234 186.105C61.4234 185.35 62.0345 184.737 62.7883 184.737C63.5422 184.737 64.1533 185.35 64.1533 186.105Z" fill="#BDBDBD"/>
<path d="M64.1533 21.8947C64.1533 22.6504 63.5422 23.2632 62.7883 23.2632C62.0345 23.2632 61.4234 22.6504 61.4234 21.8947C61.4234 21.139 62.0345 20.5263 62.7883 20.5263C63.5422 20.5263 64.1533 21.139 64.1533 21.8947Z" fill="#BDBDBD"/>
<path d="M64.1533 83.4737C64.1533 84.2294 63.5422 84.8421 62.7883 84.8421C62.0345 84.8421 61.4234 84.2294 61.4234 83.4737C61.4234 82.718 62.0345 82.1053 62.7883 82.1053C63.5422 82.1053 64.1533 82.718 64.1533 83.4737Z" fill="#BDBDBD"/>
<path d="M64.1533 145.053C64.1533 145.808 63.5422 146.421 62.7883 146.421C62.0345 146.421 61.4234 145.808 61.4234 145.053C61.4234 144.297 62.0345 143.684 62.7883 143.684C63.5422 143.684 64.1533 144.297 64.1533 145.053Z" fill="#BDBDBD"/>
<path d="M64.1533 206.632C64.1533 207.387 63.5422 208 62.7883 208C62.0345 208 61.4234 207.387 61.4234 206.632C61.4234 205.876 62.0345 205.263 62.7883 205.263C63.5422 205.263 64.1533 205.876 64.1533 206.632Z" fill="#BDBDBD"/>
<path d="M64.1533 42.4211C64.1533 43.1768 63.5422 43.7895 62.7883 43.7895C62.0345 43.7895 61.4234 43.1768 61.4234 42.4211C61.4234 41.6653 62.0345 41.0526 62.7883 41.0526C63.5422 41.0526 64.1533 41.6653 64.1533 42.4211Z" fill="#BDBDBD"/>
<path d="M64.1533 104C64.1533 104.756 63.5422 105.368 62.7883 105.368C62.0345 105.368 61.4234 104.756 61.4234 104C61.4234 103.244 62.0345 102.632 62.7883 102.632C63.5422 102.632 64.1533 103.244 64.1533 104Z" fill="#BDBDBD"/>
<path d="M64.1533 165.579C64.1533 166.335 63.5422 166.947 62.7883 166.947C62.0345 166.947 61.4234 166.335 61.4234 165.579C61.4234 164.823 62.0345 164.211 62.7883 164.211C63.5422 164.211 64.1533 164.823 64.1533 165.579Z" fill="#BDBDBD"/>
<path d="M83.2628 2.73684C84.0166 2.73684 84.6277 2.12413 84.6277 1.36842C84.6277 0.612716 84.0166 0 83.2628 0C82.5089 0 81.8978 0.612716 81.8978 1.36842C81.8978 2.12413 82.5089 2.73684 83.2628 2.73684Z" fill="#BDBDBD"/>
<path d="M83.2628 64.3158C84.0166 64.3158 84.6277 63.7031 84.6277 62.9474C84.6277 62.1917 84.0166 61.5789 83.2628 61.5789C82.5089 61.5789 81.8978 62.1917 81.8978 62.9474C81.8978 63.7031 82.5089 64.3158 83.2628 64.3158Z" fill="#BDBDBD"/>
<path d="M83.2628 125.895C84.0166 125.895 84.6277 125.282 84.6277 124.526C84.6277 123.771 84.0166 123.158 83.2628 123.158C82.5089 123.158 81.8978 123.771 81.8978 124.526C81.8978 125.282 82.5089 125.895 83.2628 125.895Z" fill="#BDBDBD"/>
<path d="M83.2628 187.474C84.0166 187.474 84.6277 186.861 84.6277 186.105C84.6277 185.35 84.0166 184.737 83.2628 184.737C82.5089 184.737 81.8978 185.35 81.8978 186.105C81.8978 186.861 82.5089 187.474 83.2628 187.474Z" fill="#BDBDBD"/>
<path d="M83.2628 23.2632C84.0166 23.2632 84.6277 22.6504 84.6277 21.8947C84.6277 21.139 84.0166 20.5263 83.2628 20.5263C82.5089 20.5263 81.8978 21.139 81.8978 21.8947C81.8978 22.6504 82.5089 23.2632 83.2628 23.2632Z" fill="#BDBDBD"/>
<path d="M83.2628 84.8421C84.0166 84.8421 84.6277 84.2294 84.6277 83.4737C84.6277 82.718 84.0166 82.1053 83.2628 82.1053C82.5089 82.1053 81.8978 82.718 81.8978 83.4737C81.8978 84.2294 82.5089 84.8421 83.2628 84.8421Z" fill="#BDBDBD"/>
<path d="M83.2628 146.421C84.0166 146.421 84.6277 145.808 84.6277 145.053C84.6277 144.297 84.0166 143.684 83.2628 143.684C82.5089 143.684 81.8978 144.297 81.8978 145.053C81.8978 145.808 82.5089 146.421 83.2628 146.421Z" fill="#BDBDBD"/>
<path d="M83.2628 208C84.0166 208 84.6277 207.387 84.6277 206.632C84.6277 205.876 84.0166 205.263 83.2628 205.263C82.5089 205.263 81.8978 205.876 81.8978 206.632C81.8978 207.387 82.5089 208 83.2628 208Z" fill="#BDBDBD"/>
<path d="M83.2628 43.7895C84.0166 43.7895 84.6277 43.1768 84.6277 42.4211C84.6277 41.6653 84.0166 41.0526 83.2628 41.0526C82.5089 41.0526 81.8978 41.6653 81.8978 42.4211C81.8978 43.1768 82.5089 43.7895 83.2628 43.7895Z" fill="#BDBDBD"/>
<path d="M83.2628 105.368C84.0166 105.368 84.6277 104.756 84.6277 104C84.6277 103.244 84.0166 102.632 83.2628 102.632C82.5089 102.632 81.8978 103.244 81.8978 104C81.8978 104.756 82.5089 105.368 83.2628 105.368Z" fill="#BDBDBD"/>
<path d="M83.2628 166.947C84.0166 166.947 84.6277 166.335 84.6277 165.579C84.6277 164.823 84.0166 164.211 83.2628 164.211C82.5089 164.211 81.8978 164.823 81.8978 165.579C81.8978 166.335 82.5089 166.947 83.2628 166.947Z" fill="#BDBDBD"/>
<path d="M105.102 1.36842C105.102 2.12413 104.491 2.73684 103.737 2.73684C102.983 2.73684 102.372 2.12413 102.372 1.36842C102.372 0.612716 102.983 0 103.737 0C104.491 0 105.102 0.612716 105.102 1.36842Z" fill="#BDBDBD"/>
<path d="M105.102 62.9474C105.102 63.7031 104.491 64.3158 103.737 64.3158C102.983 64.3158 102.372 63.7031 102.372 62.9474C102.372 62.1917 102.983 61.5789 103.737 61.5789C104.491 61.5789 105.102 62.1917 105.102 62.9474Z" fill="#BDBDBD"/>
<path d="M105.102 124.526C105.102 125.282 104.491 125.895 103.737 125.895C102.983 125.895 102.372 125.282 102.372 124.526C102.372 123.771 102.983 123.158 103.737 123.158C104.491 123.158 105.102 123.771 105.102 124.526Z" fill="#BDBDBD"/>
<path d="M105.102 186.105C105.102 186.861 104.491 187.474 103.737 187.474C102.983 187.474 102.372 186.861 102.372 186.105C102.372 185.35 102.983 184.737 103.737 184.737C104.491 184.737 105.102 185.35 105.102 186.105Z" fill="#BDBDBD"/>
<path d="M105.102 21.8947C105.102 22.6504 104.491 23.2632 103.737 23.2632C102.983 23.2632 102.372 22.6504 102.372 21.8947C102.372 21.139 102.983 20.5263 103.737 20.5263C104.491 20.5263 105.102 21.139 105.102 21.8947Z" fill="#BDBDBD"/>
<path d="M105.102 83.4737C105.102 84.2294 104.491 84.8421 103.737 84.8421C102.983 84.8421 102.372 84.2294 102.372 83.4737C102.372 82.718 102.983 82.1053 103.737 82.1053C104.491 82.1053 105.102 82.718 105.102 83.4737Z" fill="#BDBDBD"/>
<path d="M105.102 145.053C105.102 145.808 104.491 146.421 103.737 146.421C102.983 146.421 102.372 145.808 102.372 145.053C102.372 144.297 102.983 143.684 103.737 143.684C104.491 143.684 105.102 144.297 105.102 145.053Z" fill="#BDBDBD"/>
<path d="M105.102 206.632C105.102 207.387 104.491 208 103.737 208C102.983 208 102.372 207.387 102.372 206.632C102.372 205.876 102.983 205.263 103.737 205.263C104.491 205.263 105.102 205.876 105.102 206.632Z" fill="#BDBDBD"/>
<path d="M105.102 42.4211C105.102 43.1768 104.491 43.7895 103.737 43.7895C102.983 43.7895 102.372 43.1768 102.372 42.4211C102.372 41.6653 102.983 41.0526 103.737 41.0526C104.491 41.0526 105.102 41.6653 105.102 42.4211Z" fill="#BDBDBD"/>
<path d="M105.102 104C105.102 104.756 104.491 105.368 103.737 105.368C102.983 105.368 102.372 104.756 102.372 104C102.372 103.244 102.983 102.632 103.737 102.632C104.491 102.632 105.102 103.244 105.102 104Z" fill="#BDBDBD"/>
<path d="M105.102 165.579C105.102 166.335 104.491 166.947 103.737 166.947C102.983 166.947 102.372 166.335 102.372 165.579C102.372 164.823 102.983 164.211 103.737 164.211C104.491 164.211 105.102 164.823 105.102 165.579Z" fill="#BDBDBD"/>
<path d="M124.212 2.73684C124.966 2.73684 125.577 2.12413 125.577 1.36842C125.577 0.612716 124.966 0 124.212 0C123.458 0 122.847 0.612716 122.847 1.36842C122.847 2.12413 123.458 2.73684 124.212 2.73684Z" fill="#BDBDBD"/>
<path d="M124.212 64.3158C124.966 64.3158 125.577 63.7031 125.577 62.9474C125.577 62.1917 124.966 61.5789 124.212 61.5789C123.458 61.5789 122.847 62.1917 122.847 62.9474C122.847 63.7031 123.458 64.3158 124.212 64.3158Z" fill="#BDBDBD"/>
<path d="M124.212 125.895C124.966 125.895 125.577 125.282 125.577 124.526C125.577 123.771 124.966 123.158 124.212 123.158C123.458 123.158 122.847 123.771 122.847 124.526C122.847 125.282 123.458 125.895 124.212 125.895Z" fill="#BDBDBD"/>
<path d="M124.212 187.474C124.966 187.474 125.577 186.861 125.577 186.105C125.577 185.35 124.966 184.737 124.212 184.737C123.458 184.737 122.847 185.35 122.847 186.105C122.847 186.861 123.458 187.474 124.212 187.474Z" fill="#BDBDBD"/>
<path d="M124.212 23.2632C124.966 23.2632 125.577 22.6504 125.577 21.8947C125.577 21.139 124.966 20.5263 124.212 20.5263C123.458 20.5263 122.847 21.139 122.847 21.8947C122.847 22.6504 123.458 23.2632 124.212 23.2632Z" fill="#BDBDBD"/>
<path d="M124.212 84.8421C124.966 84.8421 125.577 84.2294 125.577 83.4737C125.577 82.718 124.966 82.1053 124.212 82.1053C123.458 82.1053 122.847 82.718 122.847 83.4737C122.847 84.2294 123.458 84.8421 124.212 84.8421Z" fill="#BDBDBD"/>
<path d="M124.212 146.421C124.966 146.421 125.577 145.808 125.577 145.053C125.577 144.297 124.966 143.684 124.212 143.684C123.458 143.684 122.847 144.297 122.847 145.053C122.847 145.808 123.458 146.421 124.212 146.421Z" fill="#BDBDBD"/>
<path d="M124.212 208C124.966 208 125.577 207.387 125.577 206.632C125.577 205.876 124.966 205.263 124.212 205.263C123.458 205.263 122.847 205.876 122.847 206.632C122.847 207.387 123.458 208 124.212 208Z" fill="#BDBDBD"/>
<path d="M124.212 43.7895C124.966 43.7895 125.577 43.1768 125.577 42.4211C125.577 41.6653 124.966 41.0526 124.212 41.0526C123.458 41.0526 122.847 41.6653 122.847 42.4211C122.847 43.1768 123.458 43.7895 124.212 43.7895Z" fill="#BDBDBD"/>
<path d="M124.212 105.368C124.966 105.368 125.577 104.756 125.577 104C125.577 103.244 124.966 102.632 124.212 102.632C123.458 102.632 122.847 103.244 122.847 104C122.847 104.756 123.458 105.368 124.212 105.368Z" fill="#BDBDBD"/>
<path d="M124.212 166.947C124.966 166.947 125.577 166.335 125.577 165.579C125.577 164.823 124.966 164.211 124.212 164.211C123.458 164.211 122.847 164.823 122.847 165.579C122.847 166.335 123.458 166.947 124.212 166.947Z" fill="#BDBDBD"/>
<path d="M146.051 1.36842C146.051 2.12413 145.44 2.73684 144.686 2.73684C143.932 2.73684 143.321 2.12413 143.321 1.36842C143.321 0.612716 143.932 0 144.686 0C145.44 0 146.051 0.612716 146.051 1.36842Z" fill="#BDBDBD"/>
<path d="M146.051 62.9474C146.051 63.7031 145.44 64.3158 144.686 64.3158C143.932 64.3158 143.321 63.7031 143.321 62.9474C143.321 62.1917 143.932 61.5789 144.686 61.5789C145.44 61.5789 146.051 62.1917 146.051 62.9474Z" fill="#BDBDBD"/>
<path d="M146.051 124.526C146.051 125.282 145.44 125.895 144.686 125.895C143.932 125.895 143.321 125.282 143.321 124.526C143.321 123.771 143.932 123.158 144.686 123.158C145.44 123.158 146.051 123.771 146.051 124.526Z" fill="#BDBDBD"/>
<path d="M146.051 186.105C146.051 186.861 145.44 187.474 144.686 187.474C143.932 187.474 143.321 186.861 143.321 186.105C143.321 185.35 143.932 184.737 144.686 184.737C145.44 184.737 146.051 185.35 146.051 186.105Z" fill="#BDBDBD"/>
<path d="M146.051 21.8947C146.051 22.6504 145.44 23.2632 144.686 23.2632C143.932 23.2632 143.321 22.6504 143.321 21.8947C143.321 21.139 143.932 20.5263 144.686 20.5263C145.44 20.5263 146.051 21.139 146.051 21.8947Z" fill="#BDBDBD"/>
<path d="M146.051 83.4737C146.051 84.2294 145.44 84.8421 144.686 84.8421C143.932 84.8421 143.321 84.2294 143.321 83.4737C143.321 82.718 143.932 82.1053 144.686 82.1053C145.44 82.1053 146.051 82.718 146.051 83.4737Z" fill="#BDBDBD"/>
<path d="M146.051 145.053C146.051 145.808 145.44 146.421 144.686 146.421C143.932 146.421 143.321 145.808 143.321 145.053C143.321 144.297 143.932 143.684 144.686 143.684C145.44 143.684 146.051 144.297 146.051 145.053Z" fill="#BDBDBD"/>
<path d="M146.051 206.632C146.051 207.387 145.44 208 144.686 208C143.932 208 143.321 207.387 143.321 206.632C143.321 205.876 143.932 205.263 144.686 205.263C145.44 205.263 146.051 205.876 146.051 206.632Z" fill="#BDBDBD"/>
<path d="M146.051 42.4211C146.051 43.1768 145.44 43.7895 144.686 43.7895C143.932 43.7895 143.321 43.1768 143.321 42.4211C143.321 41.6653 143.932 41.0526 144.686 41.0526C145.44 41.0526 146.051 41.6653 146.051 42.4211Z" fill="#BDBDBD"/>
<path d="M146.051 104C146.051 104.756 145.44 105.368 144.686 105.368C143.932 105.368 143.321 104.756 143.321 104C143.321 103.244 143.932 102.632 144.686 102.632C145.44 102.632 146.051 103.244 146.051 104Z" fill="#BDBDBD"/>
<path d="M146.051 165.579C146.051 166.335 145.44 166.947 144.686 166.947C143.932 166.947 143.321 166.335 143.321 165.579C143.321 164.823 143.932 164.211 144.686 164.211C145.44 164.211 146.051 164.823 146.051 165.579Z" fill="#BDBDBD"/>
<path d="M165.161 2.73684C165.914 2.73684 166.526 2.12413 166.526 1.36842C166.526 0.612716 165.914 0 165.161 0C164.407 0 163.796 0.612716 163.796 1.36842C163.796 2.12413 164.407 2.73684 165.161 2.73684Z" fill="#BDBDBD"/>
<path d="M165.161 64.3158C165.914 64.3158 166.526 63.7031 166.526 62.9474C166.526 62.1917 165.914 61.5789 165.161 61.5789C164.407 61.5789 163.796 62.1917 163.796 62.9474C163.796 63.7031 164.407 64.3158 165.161 64.3158Z" fill="#BDBDBD"/>
<path d="M165.161 125.895C165.914 125.895 166.526 125.282 166.526 124.526C166.526 123.771 165.914 123.158 165.161 123.158C164.407 123.158 163.796 123.771 163.796 124.526C163.796 125.282 164.407 125.895 165.161 125.895Z" fill="#BDBDBD"/>
<path d="M165.161 187.474C165.914 187.474 166.526 186.861 166.526 186.105C166.526 185.35 165.914 184.737 165.161 184.737C164.407 184.737 163.796 185.35 163.796 186.105C163.796 186.861 164.407 187.474 165.161 187.474Z" fill="#BDBDBD"/>
<path d="M165.161 23.2632C165.914 23.2632 166.526 22.6504 166.526 21.8947C166.526 21.139 165.914 20.5263 165.161 20.5263C164.407 20.5263 163.796 21.139 163.796 21.8947C163.796 22.6504 164.407 23.2632 165.161 23.2632Z" fill="#BDBDBD"/>
<path d="M165.161 84.8421C165.914 84.8421 166.526 84.2294 166.526 83.4737C166.526 82.718 165.914 82.1053 165.161 82.1053C164.407 82.1053 163.796 82.718 163.796 83.4737C163.796 84.2294 164.407 84.8421 165.161 84.8421Z" fill="#BDBDBD"/>
<path d="M165.161 146.421C165.914 146.421 166.526 145.808 166.526 145.053C166.526 144.297 165.914 143.684 165.161 143.684C164.407 143.684 163.796 144.297 163.796 145.053C163.796 145.808 164.407 146.421 165.161 146.421Z" fill="#BDBDBD"/>
<path d="M165.161 208C165.914 208 166.526 207.387 166.526 206.632C166.526 205.876 165.914 205.263 165.161 205.263C164.407 205.263 163.796 205.876 163.796 206.632C163.796 207.387 164.407 208 165.161 208Z" fill="#BDBDBD"/>
<path d="M165.161 43.7895C165.914 43.7895 166.526 43.1768 166.526 42.4211C166.526 41.6653 165.914 41.0526 165.161 41.0526C164.407 41.0526 163.796 41.6653 163.796 42.4211C163.796 43.1768 164.407 43.7895 165.161 43.7895Z" fill="#BDBDBD"/>
<path d="M165.161 105.368C165.914 105.368 166.526 104.756 166.526 104C166.526 103.244 165.914 102.632 165.161 102.632C164.407 102.632 163.796 103.244 163.796 104C163.796 104.756 164.407 105.368 165.161 105.368Z" fill="#BDBDBD"/>
<path d="M165.161 166.947C165.914 166.947 166.526 166.335 166.526 165.579C166.526 164.823 165.914 164.211 165.161 164.211C164.407 164.211 163.796 164.823 163.796 165.579C163.796 166.335 164.407 166.947 165.161 166.947Z" fill="#BDBDBD"/>
<path d="M187 1.36842C187 2.12413 186.389 2.73684 185.635 2.73684C184.881 2.73684 184.27 2.12413 184.27 1.36842C184.27 0.612716 184.881 0 185.635 0C186.389 0 187 0.612716 187 1.36842Z" fill="#BDBDBD"/>
<path d="M187 62.9474C187 63.7031 186.389 64.3158 185.635 64.3158C184.881 64.3158 184.27 63.7031 184.27 62.9474C184.27 62.1917 184.881 61.5789 185.635 61.5789C186.389 61.5789 187 62.1917 187 62.9474Z" fill="#BDBDBD"/>
<path d="M187 124.526C187 125.282 186.389 125.895 185.635 125.895C184.881 125.895 184.27 125.282 184.27 124.526C184.27 123.771 184.881 123.158 185.635 123.158C186.389 123.158 187 123.771 187 124.526Z" fill="#BDBDBD"/>
<path d="M187 186.105C187 186.861 186.389 187.474 185.635 187.474C184.881 187.474 184.27 186.861 184.27 186.105C184.27 185.35 184.881 184.737 185.635 184.737C186.389 184.737 187 185.35 187 186.105Z" fill="#BDBDBD"/>
<path d="M187 21.8947C187 22.6504 186.389 23.2632 185.635 23.2632C184.881 23.2632 184.27 22.6504 184.27 21.8947C184.27 21.139 184.881 20.5263 185.635 20.5263C186.389 20.5263 187 21.139 187 21.8947Z" fill="#BDBDBD"/>
<path d="M187 83.4737C187 84.2294 186.389 84.8421 185.635 84.8421C184.881 84.8421 184.27 84.2294 184.27 83.4737C184.27 82.718 184.881 82.1053 185.635 82.1053C186.389 82.1053 187 82.718 187 83.4737Z" fill="#BDBDBD"/>
<path d="M187 145.053C187 145.808 186.389 146.421 185.635 146.421C184.881 146.421 184.27 145.808 184.27 145.053C184.27 144.297 184.881 143.684 185.635 143.684C186.389 143.684 187 144.297 187 145.053Z" fill="#BDBDBD"/>
<path d="M187 206.632C187 207.387 186.389 208 185.635 208C184.881 208 184.27 207.387 184.27 206.632C184.27 205.876 184.881 205.263 185.635 205.263C186.389 205.263 187 205.876 187 206.632Z" fill="#BDBDBD"/>
<path d="M187 42.4211C187 43.1768 186.389 43.7895 185.635 43.7895C184.881 43.7895 184.27 43.1768 184.27 42.4211C184.27 41.6653 184.881 41.0526 185.635 41.0526C186.389 41.0526 187 41.6653 187 42.4211Z" fill="#BDBDBD"/>
<path d="M187 104C187 104.756 186.389 105.368 185.635 105.368C184.881 105.368 184.27 104.756 184.27 104C184.27 103.244 184.881 102.632 185.635 102.632C186.389 102.632 187 103.244 187 104Z" fill="#BDBDBD"/>
<path d="M187 165.579C187 166.335 186.389 166.947 185.635 166.947C184.881 166.947 184.27 166.335 184.27 165.579C184.27 164.823 184.881 164.211 185.635 164.211C186.389 164.211 187 164.823 187 165.579Z" fill="#BDBDBD"/>
<path d="M44 50.0001L660 50V508H44V50.0001Z" fill="#EEF9F5"/>
<g filter="url(#filter0_d_14_1208)">
<rect x="82" y="95" width="540" height="605" rx="20" fill="white"/>
</g>
<path d="M159.918 172.656H156.185C156.116 172.173 155.977 171.744 155.767 171.369C155.557 170.989 155.287 170.665 154.957 170.398C154.628 170.131 154.247 169.926 153.815 169.784C153.389 169.642 152.926 169.571 152.426 169.571C151.523 169.571 150.736 169.795 150.065 170.244C149.395 170.687 148.875 171.335 148.506 172.188C148.136 173.034 147.952 174.062 147.952 175.273C147.952 176.517 148.136 177.562 148.506 178.409C148.881 179.256 149.403 179.895 150.074 180.327C150.744 180.759 151.52 180.974 152.401 180.974C152.895 180.974 153.352 180.909 153.773 180.778C154.199 180.648 154.577 180.457 154.906 180.207C155.236 179.952 155.509 179.642 155.724 179.278C155.946 178.915 156.099 178.5 156.185 178.034L159.918 178.051C159.821 178.852 159.58 179.625 159.193 180.369C158.813 181.108 158.298 181.77 157.651 182.355C157.009 182.935 156.241 183.395 155.349 183.736C154.463 184.071 153.46 184.239 152.341 184.239C150.784 184.239 149.392 183.886 148.165 183.182C146.943 182.477 145.977 181.457 145.267 180.122C144.562 178.787 144.21 177.17 144.21 175.273C144.21 173.369 144.568 171.75 145.284 170.415C146 169.08 146.972 168.062 148.199 167.364C149.426 166.659 150.807 166.307 152.341 166.307C153.352 166.307 154.29 166.449 155.153 166.733C156.023 167.017 156.793 167.432 157.463 167.977C158.134 168.517 158.679 169.179 159.099 169.963C159.526 170.747 159.798 171.645 159.918 172.656ZM162.496 184V170.909H166.016V173.193H166.152C166.391 172.381 166.791 171.767 167.354 171.352C167.916 170.932 168.564 170.722 169.297 170.722C169.479 170.722 169.675 170.733 169.885 170.756C170.095 170.778 170.28 170.81 170.439 170.849V174.071C170.268 174.02 170.033 173.974 169.732 173.935C169.43 173.895 169.155 173.875 168.905 173.875C168.371 173.875 167.893 173.991 167.473 174.224C167.058 174.452 166.729 174.77 166.484 175.179C166.246 175.588 166.126 176.06 166.126 176.594V184H162.496ZM177.673 184.256C176.326 184.256 175.167 183.983 174.195 183.438C173.229 182.886 172.485 182.108 171.962 181.102C171.44 180.091 171.178 178.895 171.178 177.514C171.178 176.168 171.44 174.986 171.962 173.969C172.485 172.952 173.221 172.159 174.17 171.591C175.124 171.023 176.244 170.739 177.528 170.739C178.391 170.739 179.195 170.878 179.94 171.156C180.69 171.429 181.343 171.841 181.9 172.392C182.462 172.943 182.9 173.636 183.212 174.472C183.525 175.301 183.681 176.273 183.681 177.386V178.384H172.627V176.134H180.263C180.263 175.611 180.15 175.148 179.923 174.744C179.695 174.341 179.38 174.026 178.977 173.798C178.579 173.565 178.116 173.449 177.587 173.449C177.036 173.449 176.548 173.577 176.121 173.832C175.701 174.082 175.371 174.42 175.133 174.847C174.894 175.267 174.772 175.736 174.766 176.253V178.392C174.766 179.04 174.886 179.599 175.124 180.071C175.369 180.543 175.712 180.906 176.156 181.162C176.599 181.418 177.124 181.545 177.732 181.545C178.136 181.545 178.505 181.489 178.84 181.375C179.175 181.261 179.462 181.091 179.701 180.864C179.94 180.636 180.121 180.358 180.246 180.028L183.604 180.25C183.434 181.057 183.085 181.761 182.556 182.364C182.033 182.96 181.357 183.426 180.528 183.761C179.704 184.091 178.752 184.256 177.673 184.256ZM189.783 184.247C188.948 184.247 188.204 184.102 187.55 183.812C186.897 183.517 186.38 183.082 185.999 182.509C185.624 181.929 185.437 181.207 185.437 180.344C185.437 179.616 185.57 179.006 185.837 178.511C186.104 178.017 186.468 177.619 186.928 177.318C187.388 177.017 187.911 176.79 188.496 176.636C189.087 176.483 189.707 176.375 190.354 176.312C191.116 176.233 191.729 176.159 192.195 176.091C192.661 176.017 192.999 175.909 193.21 175.767C193.42 175.625 193.525 175.415 193.525 175.136V175.085C193.525 174.545 193.354 174.128 193.013 173.832C192.678 173.537 192.201 173.389 191.582 173.389C190.928 173.389 190.408 173.534 190.022 173.824C189.636 174.108 189.38 174.466 189.255 174.898L185.897 174.625C186.067 173.83 186.403 173.142 186.903 172.562C187.403 171.977 188.048 171.528 188.837 171.216C189.633 170.898 190.553 170.739 191.599 170.739C192.326 170.739 193.022 170.824 193.687 170.994C194.357 171.165 194.951 171.429 195.468 171.787C195.991 172.145 196.403 172.605 196.704 173.168C197.005 173.724 197.156 174.392 197.156 175.17V184H193.712V182.185H193.61C193.4 182.594 193.119 182.955 192.766 183.267C192.414 183.574 191.991 183.815 191.496 183.991C191.002 184.162 190.431 184.247 189.783 184.247ZM190.823 181.741C191.357 181.741 191.829 181.636 192.238 181.426C192.647 181.21 192.968 180.92 193.201 180.557C193.434 180.193 193.55 179.781 193.55 179.321V177.932C193.437 178.006 193.281 178.074 193.082 178.136C192.888 178.193 192.67 178.247 192.425 178.298C192.181 178.344 191.937 178.386 191.692 178.426C191.448 178.46 191.227 178.491 191.028 178.52C190.602 178.582 190.229 178.682 189.911 178.818C189.593 178.955 189.346 179.139 189.17 179.372C188.994 179.599 188.906 179.884 188.906 180.224C188.906 180.719 189.085 181.097 189.442 181.358C189.806 181.614 190.266 181.741 190.823 181.741ZM206.935 170.909V173.636H199.052V170.909H206.935ZM200.842 167.773H204.472V179.977C204.472 180.312 204.523 180.574 204.626 180.761C204.728 180.943 204.87 181.071 205.052 181.145C205.239 181.219 205.455 181.256 205.7 181.256C205.87 181.256 206.04 181.241 206.211 181.213C206.381 181.179 206.512 181.153 206.603 181.136L207.174 183.838C206.992 183.895 206.737 183.96 206.407 184.034C206.077 184.114 205.677 184.162 205.205 184.179C204.33 184.213 203.563 184.097 202.904 183.83C202.251 183.562 201.742 183.148 201.379 182.585C201.015 182.023 200.836 181.312 200.842 180.455V167.773ZM215.126 184.256C213.779 184.256 212.62 183.983 211.648 183.438C210.683 182.886 209.938 182.108 209.415 181.102C208.893 180.091 208.631 178.895 208.631 177.514C208.631 176.168 208.893 174.986 209.415 173.969C209.938 172.952 210.674 172.159 211.623 171.591C212.577 171.023 213.697 170.739 214.981 170.739C215.844 170.739 216.648 170.878 217.393 171.156C218.143 171.429 218.796 171.841 219.353 172.392C219.915 172.943 220.353 173.636 220.665 174.472C220.978 175.301 221.134 176.273 221.134 177.386V178.384H210.08V176.134H217.717C217.717 175.611 217.603 175.148 217.376 174.744C217.148 174.341 216.833 174.026 216.43 173.798C216.032 173.565 215.569 173.449 215.04 173.449C214.489 173.449 214.001 173.577 213.575 173.832C213.154 174.082 212.825 174.42 212.586 174.847C212.347 175.267 212.225 175.736 212.219 176.253V178.392C212.219 179.04 212.339 179.599 212.577 180.071C212.822 180.543 213.165 180.906 213.609 181.162C214.052 181.418 214.577 181.545 215.185 181.545C215.589 181.545 215.958 181.489 216.293 181.375C216.629 181.261 216.915 181.091 217.154 180.864C217.393 180.636 217.575 180.358 217.7 180.028L221.058 180.25C220.887 181.057 220.538 181.761 220.009 182.364C219.487 182.96 218.81 183.426 217.981 183.761C217.157 184.091 216.205 184.256 215.126 184.256ZM243.726 166.545V184H240.538L232.945 173.014H232.817V184H229.126V166.545H232.365L239.899 177.523H240.053V166.545H243.726ZM252.673 184.256C251.326 184.256 250.167 183.983 249.195 183.438C248.229 182.886 247.485 182.108 246.962 181.102C246.44 180.091 246.178 178.895 246.178 177.514C246.178 176.168 246.44 174.986 246.962 173.969C247.485 172.952 248.221 172.159 249.17 171.591C250.124 171.023 251.244 170.739 252.528 170.739C253.391 170.739 254.195 170.878 254.94 171.156C255.69 171.429 256.343 171.841 256.9 172.392C257.462 172.943 257.9 173.636 258.212 174.472C258.525 175.301 258.681 176.273 258.681 177.386V178.384H247.627V176.134H255.263C255.263 175.611 255.15 175.148 254.923 174.744C254.695 174.341 254.38 174.026 253.977 173.798C253.579 173.565 253.116 173.449 252.587 173.449C252.036 173.449 251.548 173.577 251.121 173.832C250.701 174.082 250.371 174.42 250.133 174.847C249.894 175.267 249.772 175.736 249.766 176.253V178.392C249.766 179.04 249.886 179.599 250.124 180.071C250.369 180.543 250.712 180.906 251.156 181.162C251.599 181.418 252.124 181.545 252.732 181.545C253.136 181.545 253.505 181.489 253.84 181.375C254.175 181.261 254.462 181.091 254.701 180.864C254.94 180.636 255.121 180.358 255.246 180.028L258.604 180.25C258.434 181.057 258.085 181.761 257.556 182.364C257.033 182.96 256.357 183.426 255.528 183.761C254.704 184.091 253.752 184.256 252.673 184.256ZM263.539 184L259.977 170.909H263.65L265.678 179.705H265.798L267.911 170.909H271.516L273.664 179.653H273.775L275.769 170.909H279.434L275.88 184H272.036L269.786 175.767H269.624L267.374 184H263.539ZM290.002 184H286.048L292.073 166.545H296.829L302.846 184H298.891L294.519 170.534H294.383L290.002 184ZM289.755 177.139H299.096V180.02H289.755V177.139ZM310.184 184.256C308.843 184.256 307.69 183.972 306.724 183.403C305.763 182.83 305.025 182.034 304.508 181.017C303.996 180 303.741 178.83 303.741 177.506C303.741 176.165 303.999 174.989 304.516 173.977C305.039 172.96 305.781 172.168 306.741 171.599C307.701 171.026 308.843 170.739 310.167 170.739C311.309 170.739 312.309 170.946 313.167 171.361C314.025 171.776 314.704 172.358 315.204 173.108C315.704 173.858 315.979 174.739 316.031 175.75H312.604C312.508 175.097 312.252 174.571 311.837 174.173C311.428 173.77 310.891 173.568 310.227 173.568C309.664 173.568 309.173 173.722 308.752 174.028C308.337 174.33 308.013 174.77 307.781 175.349C307.548 175.929 307.431 176.631 307.431 177.455C307.431 178.29 307.545 179 307.772 179.585C308.005 180.17 308.332 180.616 308.752 180.923C309.173 181.23 309.664 181.384 310.227 181.384C310.641 181.384 311.013 181.298 311.343 181.128C311.678 180.957 311.954 180.71 312.17 180.386C312.391 180.057 312.536 179.662 312.604 179.202H316.031C315.974 180.202 315.701 181.082 315.212 181.844C314.729 182.599 314.062 183.19 313.21 183.616C312.357 184.043 311.349 184.256 310.184 184.256ZM324.27 184.256C322.929 184.256 321.776 183.972 320.81 183.403C319.849 182.83 319.111 182.034 318.594 181.017C318.082 180 317.827 178.83 317.827 177.506C317.827 176.165 318.085 174.989 318.602 173.977C319.125 172.96 319.866 172.168 320.827 171.599C321.787 171.026 322.929 170.739 324.253 170.739C325.395 170.739 326.395 170.946 327.253 171.361C328.111 171.776 328.79 172.358 329.29 173.108C329.79 173.858 330.065 174.739 330.116 175.75H326.69C326.594 175.097 326.338 174.571 325.923 174.173C325.514 173.77 324.977 173.568 324.312 173.568C323.75 173.568 323.259 173.722 322.838 174.028C322.423 174.33 322.099 174.77 321.866 175.349C321.634 175.929 321.517 176.631 321.517 177.455C321.517 178.29 321.631 179 321.858 179.585C322.091 180.17 322.418 180.616 322.838 180.923C323.259 181.23 323.75 181.384 324.312 181.384C324.727 181.384 325.099 181.298 325.429 181.128C325.764 180.957 326.04 180.71 326.256 180.386C326.477 180.057 326.622 179.662 326.69 179.202H330.116C330.06 180.202 329.787 181.082 329.298 181.844C328.815 182.599 328.148 183.19 327.295 183.616C326.443 184.043 325.435 184.256 324.27 184.256ZM338.356 184.256C337.032 184.256 335.887 183.974 334.921 183.412C333.961 182.844 333.219 182.054 332.697 181.043C332.174 180.026 331.913 178.847 331.913 177.506C331.913 176.153 332.174 174.972 332.697 173.96C333.219 172.943 333.961 172.153 334.921 171.591C335.887 171.023 337.032 170.739 338.356 170.739C339.68 170.739 340.822 171.023 341.782 171.591C342.748 172.153 343.492 172.943 344.015 173.96C344.538 174.972 344.799 176.153 344.799 177.506C344.799 178.847 344.538 180.026 344.015 181.043C343.492 182.054 342.748 182.844 341.782 183.412C340.822 183.974 339.68 184.256 338.356 184.256ZM338.373 181.443C338.975 181.443 339.478 181.273 339.881 180.932C340.285 180.585 340.589 180.114 340.793 179.517C341.004 178.92 341.109 178.241 341.109 177.48C341.109 176.719 341.004 176.04 340.793 175.443C340.589 174.847 340.285 174.375 339.881 174.028C339.478 173.682 338.975 173.509 338.373 173.509C337.765 173.509 337.254 173.682 336.839 174.028C336.43 174.375 336.12 174.847 335.91 175.443C335.705 176.04 335.603 176.719 335.603 177.48C335.603 178.241 335.705 178.92 335.91 179.517C336.12 180.114 336.43 180.585 336.839 180.932C337.254 181.273 337.765 181.443 338.373 181.443ZM355.555 178.426V170.909H359.185V184H355.7V181.622H355.563C355.268 182.389 354.776 183.006 354.089 183.472C353.407 183.937 352.575 184.17 351.592 184.17C350.717 184.17 349.947 183.972 349.282 183.574C348.617 183.176 348.097 182.611 347.722 181.878C347.353 181.145 347.165 180.267 347.16 179.244V170.909H350.79V178.597C350.796 179.369 351.004 179.98 351.413 180.429C351.822 180.878 352.37 181.102 353.058 181.102C353.495 181.102 353.904 181.003 354.285 180.804C354.665 180.599 354.972 180.298 355.205 179.901C355.444 179.503 355.56 179.011 355.555 178.426ZM365.72 176.432V184H362.089V170.909H365.55V173.219H365.703C365.993 172.457 366.479 171.855 367.161 171.412C367.842 170.963 368.669 170.739 369.641 170.739C370.55 170.739 371.342 170.938 372.018 171.335C372.695 171.733 373.22 172.301 373.595 173.04C373.97 173.773 374.158 174.648 374.158 175.665V184H370.527V176.312C370.533 175.511 370.328 174.886 369.913 174.438C369.499 173.983 368.928 173.756 368.2 173.756C367.712 173.756 367.28 173.861 366.905 174.071C366.536 174.281 366.246 174.588 366.036 174.991C365.831 175.389 365.726 175.869 365.72 176.432ZM383.982 170.909V173.636H376.099V170.909H383.982ZM377.888 167.773H381.519V179.977C381.519 180.312 381.57 180.574 381.673 180.761C381.775 180.943 381.917 181.071 382.099 181.145C382.286 181.219 382.502 181.256 382.746 181.256C382.917 181.256 383.087 181.241 383.258 181.213C383.428 181.179 383.559 181.153 383.65 181.136L384.221 183.838C384.039 183.895 383.783 183.96 383.454 184.034C383.124 184.114 382.724 184.162 382.252 184.179C381.377 184.213 380.61 184.097 379.951 183.83C379.298 183.562 378.789 183.148 378.425 182.585C378.062 182.023 377.883 181.312 377.888 180.455V167.773Z" fill="black"/>
<rect x="143" y="264" width="202" height="50" rx="3" fill="black" fill-opacity="0.03"/>
<rect x="143" y="362" width="425" height="50" rx="3" fill="black" fill-opacity="0.03"/>
<rect x="143" y="458" width="425" height="50" rx="3" fill="black" fill-opacity="0.03"/>
<rect x="143" y="554" width="143" height="50" rx="3" fill="#54BD95" fill-opacity="0.17"/>
<path d="M190.472 576.562C190.419 576.066 190.195 575.68 189.801 575.403C189.411 575.127 188.903 574.989 188.278 574.989C187.839 574.989 187.462 575.055 187.148 575.188C186.833 575.32 186.593 575.5 186.426 575.727C186.259 575.955 186.174 576.214 186.17 576.506C186.17 576.748 186.225 576.958 186.335 577.136C186.449 577.314 186.602 577.466 186.795 577.591C186.989 577.712 187.203 577.814 187.438 577.898C187.672 577.981 187.909 578.051 188.148 578.108L189.239 578.381C189.678 578.483 190.1 578.621 190.506 578.795C190.915 578.97 191.28 579.189 191.602 579.455C191.928 579.72 192.186 580.04 192.375 580.415C192.564 580.79 192.659 581.229 192.659 581.733C192.659 582.415 192.485 583.015 192.136 583.534C191.788 584.049 191.284 584.453 190.625 584.744C189.97 585.032 189.176 585.176 188.244 585.176C187.339 585.176 186.553 585.036 185.886 584.756C185.223 584.475 184.705 584.066 184.33 583.528C183.958 582.991 183.758 582.335 183.727 581.562H185.801C185.831 581.968 185.956 582.305 186.176 582.574C186.396 582.843 186.682 583.044 187.034 583.176C187.39 583.309 187.788 583.375 188.227 583.375C188.686 583.375 189.087 583.307 189.432 583.17C189.78 583.03 190.053 582.837 190.25 582.591C190.447 582.341 190.547 582.049 190.551 581.716C190.547 581.413 190.458 581.163 190.284 580.966C190.11 580.765 189.866 580.598 189.551 580.466C189.241 580.33 188.877 580.208 188.46 580.102L187.136 579.761C186.178 579.515 185.42 579.142 184.864 578.642C184.311 578.138 184.034 577.47 184.034 576.636C184.034 575.951 184.22 575.35 184.591 574.835C184.966 574.32 185.475 573.92 186.119 573.636C186.763 573.348 187.492 573.205 188.307 573.205C189.133 573.205 189.856 573.348 190.477 573.636C191.102 573.92 191.593 574.316 191.949 574.824C192.305 575.328 192.489 575.907 192.5 576.562H190.472ZM194.447 585V576.273H196.504V585H194.447ZM195.482 575.034C195.156 575.034 194.875 574.926 194.641 574.71C194.406 574.491 194.288 574.227 194.288 573.92C194.288 573.61 194.406 573.347 194.641 573.131C194.875 572.911 195.156 572.801 195.482 572.801C195.811 572.801 196.091 572.911 196.322 573.131C196.557 573.347 196.675 573.61 196.675 573.92C196.675 574.227 196.557 574.491 196.322 574.71C196.091 574.926 195.811 575.034 195.482 575.034ZM202.415 588.455C201.676 588.455 201.042 588.354 200.511 588.153C199.981 587.956 199.555 587.691 199.233 587.358C198.911 587.025 198.688 586.655 198.562 586.25L200.415 585.801C200.498 585.972 200.619 586.14 200.778 586.307C200.938 586.477 201.152 586.617 201.42 586.727C201.693 586.841 202.036 586.898 202.449 586.898C203.032 586.898 203.515 586.756 203.898 586.472C204.28 586.191 204.472 585.729 204.472 585.085V583.432H204.369C204.263 583.644 204.108 583.862 203.903 584.085C203.703 584.309 203.436 584.496 203.102 584.648C202.773 584.799 202.358 584.875 201.858 584.875C201.188 584.875 200.58 584.718 200.034 584.403C199.492 584.085 199.061 583.612 198.739 582.983C198.42 582.35 198.261 581.559 198.261 580.608C198.261 579.65 198.42 578.841 198.739 578.182C199.061 577.519 199.494 577.017 200.04 576.676C200.585 576.331 201.193 576.159 201.864 576.159C202.375 576.159 202.795 576.246 203.125 576.42C203.458 576.591 203.723 576.797 203.92 577.04C204.117 577.278 204.267 577.504 204.369 577.716H204.483V576.273H206.511V585.142C206.511 585.888 206.333 586.506 205.977 586.994C205.621 587.483 205.134 587.848 204.517 588.091C203.9 588.333 203.199 588.455 202.415 588.455ZM202.432 583.261C202.867 583.261 203.239 583.155 203.545 582.943C203.852 582.731 204.085 582.426 204.244 582.028C204.403 581.631 204.483 581.153 204.483 580.597C204.483 580.047 204.403 579.566 204.244 579.153C204.089 578.741 203.858 578.42 203.551 578.193C203.248 577.962 202.875 577.847 202.432 577.847C201.973 577.847 201.591 577.966 201.284 578.205C200.977 578.443 200.746 578.771 200.591 579.188C200.436 579.6 200.358 580.07 200.358 580.597C200.358 581.131 200.436 581.598 200.591 582C200.75 582.398 200.983 582.708 201.29 582.932C201.6 583.152 201.981 583.261 202.432 583.261ZM210.676 579.886V585H208.619V576.273H210.585V577.756H210.688C210.888 577.267 211.208 576.879 211.648 576.591C212.091 576.303 212.638 576.159 213.29 576.159C213.892 576.159 214.417 576.288 214.864 576.545C215.314 576.803 215.663 577.176 215.909 577.665C216.159 578.153 216.282 578.746 216.278 579.443V585H214.222V579.761C214.222 579.178 214.07 578.722 213.767 578.392C213.468 578.062 213.053 577.898 212.523 577.898C212.163 577.898 211.843 577.977 211.562 578.136C211.286 578.292 211.068 578.517 210.909 578.812C210.754 579.108 210.676 579.466 210.676 579.886ZM229.764 573.364H231.872V580.966C231.872 581.799 231.675 582.532 231.281 583.165C230.891 583.797 230.342 584.292 229.634 584.648C228.925 585 228.098 585.176 227.151 585.176C226.2 585.176 225.37 585 224.662 584.648C223.954 584.292 223.404 583.797 223.014 583.165C222.624 582.532 222.429 581.799 222.429 580.966V573.364H224.537V580.79C224.537 581.275 224.643 581.706 224.855 582.085C225.071 582.464 225.374 582.761 225.764 582.977C226.154 583.189 226.616 583.295 227.151 583.295C227.685 583.295 228.147 583.189 228.537 582.977C228.931 582.761 229.234 582.464 229.446 582.085C229.658 581.706 229.764 581.275 229.764 580.79V573.364ZM234.072 588.273V576.273H236.095V577.716H236.214C236.321 577.504 236.47 577.278 236.663 577.04C236.857 576.797 237.118 576.591 237.447 576.42C237.777 576.246 238.197 576.159 238.709 576.159C239.383 576.159 239.991 576.331 240.533 576.676C241.078 577.017 241.51 577.523 241.828 578.193C242.15 578.86 242.311 579.678 242.311 580.648C242.311 581.606 242.154 582.42 241.839 583.091C241.525 583.761 241.097 584.273 240.555 584.625C240.014 584.977 239.4 585.153 238.714 585.153C238.214 585.153 237.8 585.07 237.47 584.903C237.141 584.737 236.875 584.536 236.675 584.301C236.478 584.062 236.324 583.837 236.214 583.625H236.129V588.273H234.072ZM236.089 580.636C236.089 581.201 236.169 581.695 236.328 582.119C236.491 582.544 236.724 582.875 237.027 583.114C237.334 583.348 237.705 583.466 238.141 583.466C238.595 583.466 238.976 583.345 239.283 583.102C239.589 582.856 239.821 582.521 239.976 582.097C240.135 581.669 240.214 581.182 240.214 580.636C240.214 580.095 240.137 579.614 239.982 579.193C239.826 578.773 239.595 578.443 239.288 578.205C238.982 577.966 238.599 577.847 238.141 577.847C237.701 577.847 237.328 577.962 237.021 578.193C236.714 578.424 236.482 578.748 236.322 579.165C236.167 579.581 236.089 580.072 236.089 580.636Z" fill="#54BD95"/>
<rect x="143" y="246" width="43" height="12" fill="#54BD95" fill-opacity="0.2"/>
<rect x="143" y="344" width="43" height="12" fill="#54BD95" fill-opacity="0.2"/>
<rect x="143" y="440" width="43" height="12" fill="#54BD95" fill-opacity="0.2"/>
<rect x="366" y="246" width="43" height="12" fill="#54BD95" fill-opacity="0.2"/>
<rect x="366" y="264" width="202" height="50" rx="3" fill="black" fill-opacity="0.03"/>
<path d="M256.113 593.129C256.315 593.128 256.512 593.066 256.679 592.954C256.846 592.841 256.977 592.682 257.054 592.495C257.132 592.309 257.153 592.104 257.115 591.906C257.078 591.708 256.982 591.525 256.842 591.38L253.75 588.289C253.556 588.102 253.296 587.998 253.026 588C252.755 588.002 252.497 588.111 252.306 588.302C252.115 588.493 252.007 588.751 252.004 589.021C252.002 589.292 252.106 589.552 252.293 589.746L255.385 592.837C255.579 593.027 255.841 593.132 256.113 593.129V593.129Z" fill="#54BD95"/>
<path d="M253.695 598.26H255.665C255.936 598.26 256.196 598.154 256.388 597.966C256.58 597.777 256.687 597.522 256.687 597.256C256.687 596.99 256.58 596.735 256.388 596.546C256.196 596.358 255.936 596.252 255.665 596.252H253.695C253.424 596.252 253.164 596.358 252.972 596.546C252.781 596.735 252.673 596.99 252.673 597.256C252.673 597.522 252.781 597.777 252.972 597.966C253.164 598.154 253.424 598.26 253.695 598.26Z" fill="#54BD95"/>
<path d="M261.259 592.014C261.525 592.014 261.781 591.907 261.969 591.715C262.157 591.523 262.263 591.264 262.263 590.993V589.022C262.263 588.751 262.157 588.491 261.969 588.299C261.781 588.108 261.525 588 261.259 588C260.993 588 260.738 588.108 260.549 588.299C260.361 588.491 260.256 588.751 260.256 589.022V590.993C260.256 591.264 260.361 591.523 260.549 591.715C260.738 591.907 260.993 592.014 261.259 592.014Z" fill="#54BD95"/>
<path d="M253.022 606.51C253.157 606.512 253.291 606.486 253.416 606.436C253.541 606.385 253.655 606.31 253.751 606.216L256.844 603.126C257.032 602.932 257.136 602.672 257.134 602.402C257.131 602.132 257.023 601.873 256.832 601.682C256.64 601.492 256.382 601.383 256.112 601.381C255.841 601.379 255.581 601.482 255.386 601.67L252.293 604.76C252.153 604.905 252.059 605.087 252.022 605.285C251.985 605.483 252.006 605.687 252.084 605.873C252.161 606.059 252.291 606.218 252.458 606.332C252.624 606.445 252.82 606.507 253.022 606.51V606.51Z" fill="#54BD95"/>
<path d="M266.403 593.129C266.538 593.131 266.672 593.105 266.797 593.054C266.922 593.004 267.036 592.929 267.132 592.834L270.225 589.745C270.413 589.551 270.517 589.291 270.514 589.021C270.512 588.751 270.404 588.492 270.213 588.302C270.021 588.111 269.763 588.002 269.492 588C269.222 587.998 268.962 588.101 268.767 588.289L265.674 591.378C265.535 591.523 265.44 591.706 265.403 591.904C265.366 592.102 265.387 592.306 265.464 592.492C265.542 592.678 265.672 592.837 265.839 592.951C266.005 593.064 266.202 593.126 266.403 593.129Z" fill="#54BD95"/>
<path d="M259.8 595.796C260.104 595.488 260.491 595.276 260.913 595.186C261.336 595.095 261.776 595.131 262.179 595.288L281.563 602.672C282 602.839 282.373 603.137 282.632 603.527C282.89 603.916 283.019 604.377 283.002 604.844C282.985 605.311 282.823 605.761 282.537 606.13C282.251 606.5 281.857 606.771 281.409 606.905L273.415 609.304C273.389 609.311 273.366 609.325 273.347 609.344C273.328 609.363 273.314 609.386 273.307 609.412L270.909 617.407C270.778 617.856 270.508 618.253 270.138 618.539C269.768 618.825 269.316 618.986 268.848 618.999C268.381 619.015 267.921 618.884 267.532 618.627C267.143 618.369 266.844 617.996 266.676 617.56L259.292 598.174C259.135 597.771 259.099 597.331 259.189 596.909C259.28 596.486 259.492 596.099 259.8 595.796Z" fill="#54BD95"/>
<defs>
<filter id="filter0_d_14_1208" x="8" y="45" width="702" height="767" filterUnits="userSpaceOnUse" color-interpolation-filters="sRGB">
<feFlood flood-opacity="0" result="BackgroundImageFix"/>
<feColorMatrix in="SourceAlpha" type="matrix" values="0 0 0 0 0 0 0 0 0 0 0 0 0 0 0 0 0 0 127 0" result="hardAlpha"/>
<feOffset dx="7" dy="31"/>
<feGaussianBlur stdDeviation="40.5"/>
<feColorMatrix type="matrix" values="0 0 0 0 0 0 0 0 0 0 0 0 0 0 0 0 0 0 0.15 0"/>
<feBlend mode="normal" in2="BackgroundImageFix" result="effect1_dropShadow_14_1208"/>
<feBlend mode="normal" in="SourceGraphic" in2="effect1_dropShadow_14_1208" result="shape"/>
</filter>
</defs>
</svg>
