<svg width="13" height="13" viewBox="0 0 13 13" fill="none" xmlns="http://www.w3.org/2000/svg">
<path d="M8.91906 2.63967L10.3614 4.08129M9.84655 1.36965L5.94661 5.26959C5.7451 5.47082 5.60767 5.7272 5.55164 6.00641L5.19141 7.80963L6.99463 7.44871C7.27383 7.39287 7.52987 7.256 7.73144 7.05443L11.6314 3.15449C11.7486 3.03729 11.8415 2.89816 11.905 2.74504C11.9684 2.59192 12.001 2.42781 12.001 2.26207C12.001 2.09633 11.9684 1.93222 11.905 1.7791C11.8415 1.62597 11.7486 1.48685 11.6314 1.36965C11.5142 1.25246 11.3751 1.15949 11.2219 1.09607C11.0688 1.03264 10.9047 1 10.739 1C10.5732 1 10.4091 1.03264 10.256 1.09607C10.1029 1.15949 9.96374 1.25246 9.84655 1.36965V1.36965Z" stroke="#08A87C" stroke-width="1.2" stroke-linecap="round" stroke-linejoin="round"/>
<path d="M10.9525 8.50853V10.6038C10.9525 10.9743 10.8127 11.3296 10.5639 11.5915C10.315 11.8535 9.97747 12.0006 9.62553 12.0006H2.327C1.97506 12.0006 1.63753 11.8535 1.38867 11.5915C1.13981 11.3296 1 10.9743 1 10.6038V2.92114C1 2.55067 1.13981 2.19538 1.38867 1.93342C1.63753 1.67146 1.97506 1.52429 2.327 1.52429H4.31751" stroke="#08A87C" stroke-width="1.2" stroke-linecap="round" stroke-linejoin="round"/>
</svg>
