<svg width="31" height="30" viewBox="0 0 31 30" fill="none" xmlns="http://www.w3.org/2000/svg">
<path d="M13.1109 7.31042C10.2969 7.96655 8.03157 10.1982 7.33981 12.9958C6.64589 15.8024 7.44007 18.6631 9.46436 20.6482C10.1804 21.3505 10.6079 22.476 10.6079 23.6591V23.8479C10.6079 24.627 10.9478 25.328 11.4868 25.8111V27.3635C11.4868 28.8174 12.6697 30.0003 14.1236 30.0003H15.8814C17.3353 30.0003 18.5181 28.8174 18.5181 27.3635V25.8111C19.0571 25.328 19.397 24.627 19.397 23.8479V23.6556C19.397 22.4905 19.8474 21.3436 20.6019 20.5876C22.092 19.0942 22.9126 17.1099 22.9126 15.0003C22.9126 9.95657 18.2387 6.11523 13.1109 7.31042ZM16.7603 27.3635C16.7603 27.8482 16.366 28.2424 15.8814 28.2424H14.1236C13.6389 28.2424 13.2447 27.8482 13.2447 27.3635V26.4846H16.7603V27.3635ZM19.3575 19.3459C18.2655 20.4403 17.6392 22.0111 17.6392 23.6556V23.8479C17.6392 24.3325 17.2449 24.7268 16.7603 24.7268H13.2447C12.76 24.7268 12.3658 24.3325 12.3658 23.8479V23.6591C12.3658 21.9892 11.7568 20.4344 10.6951 19.3932C9.11948 17.8481 8.50313 15.6143 9.04618 13.4178C9.58085 11.2552 11.333 9.52989 13.5101 9.02236C17.5338 8.08409 21.1548 11.0878 21.1548 15.0003C21.1548 16.6411 20.5165 18.1844 19.3575 19.3459Z" fill="#08A87C"/>
<path d="M8.16602 6.92058L5.68007 4.43468C5.33688 4.09144 4.78036 4.09144 4.43712 4.43468C4.09388 4.77792 4.09388 5.33438 4.43712 5.67763L6.92308 8.16352C7.26626 8.50677 7.82284 8.50677 8.16602 8.16352C8.50927 7.82028 8.50927 7.26382 8.16602 6.92058Z" fill="#08A87C"/>
<path d="M4.45312 14.1211H0.878906C0.393516 14.1211 0 14.5146 0 15C0 15.4854 0.393516 15.8789 0.878906 15.8789H4.45312C4.93852 15.8789 5.33203 15.4854 5.33203 15C5.33203 14.5146 4.93852 14.1211 4.45312 14.1211Z" fill="#08A87C"/>
<path d="M29.125 14.1211H25.5508C25.0654 14.1211 24.6719 14.5146 24.6719 15C24.6719 15.4854 25.0654 15.8789 25.5508 15.8789H29.125C29.6104 15.8789 30.0039 15.4854 30.0039 15C30.0039 14.5146 29.6104 14.1211 29.125 14.1211Z" fill="#08A87C"/>
<path d="M25.5606 4.43468C25.2174 4.09144 24.6609 4.09144 24.3176 4.43468L21.8317 6.92058C21.4884 7.26376 21.4884 7.82028 21.8317 8.16352C22.1748 8.50677 22.7314 8.50677 23.0746 8.16352L25.5606 5.67763C25.9038 5.33444 25.9038 4.77792 25.5606 4.43468Z" fill="#08A87C"/>
<path d="M15.0039 0C14.5185 0 14.125 0.393516 14.125 0.878906V4.45312C14.125 4.93852 14.5185 5.33203 15.0039 5.33203C15.4893 5.33203 15.8828 4.93852 15.8828 4.45312V0.878906C15.8828 0.393516 15.4893 0 15.0039 0Z" fill="#08A87C"/>
<path d="M14.995 10.6055C14.6337 10.6055 14.2657 10.6488 13.9018 10.734C12.3862 11.0878 11.1175 12.3353 10.7448 13.8383C10.628 14.3094 10.9151 14.786 11.3862 14.9029C11.8574 15.0197 12.334 14.7325 12.4509 14.2614C12.6654 13.3967 13.4263 12.6501 14.302 12.4457C14.5353 12.391 14.7685 12.3633 14.995 12.3633C15.4804 12.3633 15.8739 11.9698 15.8739 11.4844C15.8739 10.999 15.4804 10.6055 14.995 10.6055Z" fill="#08A87C"/>
</svg>
