<svg width="24" height="25" viewBox="0 0 24 25" fill="none" xmlns="http://www.w3.org/2000/svg">
<path d="M23.2933 14.4871L22.2632 13.6309C21.5576 13.0444 21.5588 11.9544 22.2632 11.3691L23.2933 10.5129C24.0263 9.90361 24.2138 8.85879 23.7391 8.02847L21.7051 4.47153C21.2303 3.64126 20.2401 3.28286 19.3511 3.61909L18.1017 4.0917C17.2458 4.41533 16.3115 3.86948 16.1615 2.96079L15.9422 1.63198C15.7861 0.686377 14.9836 0 14.034 0H9.96603C9.01644 0 8.21391 0.686377 8.05785 1.63203L7.83848 2.96079C7.68821 3.87109 6.7526 4.41479 5.89837 4.09175L4.64893 3.61909C3.75988 3.28286 2.76981 3.64131 2.29494 4.47153L0.260962 8.02842C-0.213811 8.85864 -0.0263584 9.90352 0.706767 10.5129L1.73684 11.369C2.44254 11.9556 2.44114 13.0455 1.73684 13.6309L0.706719 14.487C-0.0263584 15.0964 -0.213859 16.1413 0.260914 16.9715L2.29494 20.5284C2.76976 21.3586 3.75964 21.7171 4.64893 21.3809L5.89832 20.9083C6.75429 20.5845 7.68846 21.1307 7.83843 22.0392L8.0578 23.3679C8.21391 24.3136 9.01644 25 9.96599 25H14.034C14.9835 25 15.7861 24.3136 15.9421 23.368L16.1614 22.0393C16.3117 21.1292 17.2472 20.5851 18.1016 20.9083L19.3511 21.3809C20.2403 21.7172 21.2303 21.3587 21.7051 20.5285L23.7392 16.9715C24.2138 16.1413 24.0263 15.0964 23.2933 14.4871ZM20.0298 19.5519L18.7803 19.0793C16.783 18.3239 14.6033 19.5983 14.2534 21.7181L14.034 23.0469H9.96603L9.74666 21.7181C9.39608 19.5942 7.21315 18.3253 5.2197 19.0793L3.97026 19.5519L1.93628 15.995L2.96635 15.1388C4.61304 13.7702 4.60961 11.227 2.96635 9.86118L1.93628 9.00503L3.97031 5.4481L5.2197 5.9207C7.21707 6.67607 9.39676 5.40166 9.74666 3.28188L9.96599 1.95312H14.034L14.2533 3.28188C14.6039 5.40601 16.787 6.67451 18.7803 5.9207L20.0297 5.4481L22.0642 9.00454C22.0642 9.00454 22.064 9.00469 22.0636 9.00498L21.0336 9.86113C19.387 11.2297 19.3903 13.7729 21.0336 15.1388L22.0637 15.9949L20.0298 19.5519ZM12 7.68227C9.36886 7.68227 7.22824 9.84351 7.22824 12.5C7.22824 15.1565 9.36886 17.3177 12 17.3177C14.6312 17.3177 16.7718 15.1565 16.7718 12.5C16.7718 9.84351 14.6312 7.68227 12 7.68227ZM12 15.3646C10.4355 15.3646 9.16273 14.0795 9.16273 12.5C9.16273 10.9205 10.4355 9.6354 12 9.6354C13.5645 9.6354 14.8373 10.9205 14.8373 12.5C14.8373 14.0795 13.5645 15.3646 12 15.3646Z" fill="#08A87C"/>
</svg>
