<svg width="298" height="180" viewBox="0 0 298 180" fill="none" xmlns="http://www.w3.org/2000/svg">
<path d="M271.907 90.9868C271.666 92.6369 271.461 93.6631 271.411 93.8979C270.146 99.8677 268.085 105.579 265.336 111.012C264.551 112.569 263.712 114.098 262.816 115.607C260.259 119.93 257.258 124.062 253.885 128C251.862 130.364 249.7 132.655 247.415 134.875C237.501 144.514 225.288 152.758 211.887 159.425C209.37 160.679 206.81 161.873 204.216 163.014C196.044 166.606 187.526 169.631 178.891 172.059C177.102 172.562 175.31 173.038 173.514 173.488C170.396 174.272 167.265 174.977 164.141 175.597C159.919 176.439 155.707 177.133 151.522 177.677C146.162 178.374 140.85 178.817 135.641 179.008C129.718 179.226 123.448 179.125 116.988 178.693C113.803 178.485 110.571 178.19 107.312 177.811C107.306 177.814 107.299 177.814 107.289 177.811C104.399 177.479 101.486 177.083 98.5631 176.617C97.7644 176.489 96.9657 176.355 96.1636 176.221C90.7435 175.292 85.3067 174.132 79.9269 172.733C79.8296 172.71 79.7322 172.686 79.6349 172.656C79.5812 172.646 79.5275 172.632 79.4738 172.616C79.3228 172.579 79.1718 172.538 79.0208 172.495C74.2283 171.227 69.4929 169.768 64.8615 168.111C61.6028 166.948 58.3944 165.683 55.2631 164.318C53.7731 163.671 52.3031 163 50.8499 162.306C49.5209 161.672 48.2053 161.018 46.9099 160.344C39.2547 156.373 32.2137 151.728 26.1291 146.375C23.3436 143.924 20.7561 141.321 18.4034 138.571C14.7688 134.318 11.688 129.7 9.28501 124.706C8.10032 122.251 7.08343 119.706 6.24441 117.066C5.89874 115.983 5.58327 114.883 5.29464 113.759C4.02941 108.819 3.31121 103.52 3.17361 98.1237C3.14005 96.8593 3.14005 95.5882 3.17361 94.3138C3.28436 89.8867 3.78777 85.4328 4.70062 81.1064C7.11363 69.6531 12.386 59.0583 20.8332 51.9918C35.3784 39.8174 57.8339 39.3747 71.7448 40.5351C77.1648 40.9879 81.2895 41.6821 83.142 42.0242C85.8973 42.5307 88.5956 43.1578 91.3241 43.8152C101.436 46.2467 111.974 49.0572 127.318 47.3333C128.915 47.1522 134.483 46.4815 144.676 43.6475C154.056 41.0382 161.127 38.3249 166.93 35.6955C167.252 35.548 167.571 35.4038 167.886 35.2595C168.702 34.8806 169.487 34.5083 170.255 34.136C170.45 34.0421 170.648 33.9448 170.839 33.8509C172.387 33.093 173.846 32.3451 175.243 31.6139H175.249C175.3 31.5871 175.347 31.5603 175.397 31.5334C175.588 31.4328 175.776 31.3356 175.964 31.235C175.984 31.2249 176.001 31.2182 176.018 31.2048C178.052 30.1349 179.961 29.0986 181.827 28.1159C182.213 27.9113 182.599 27.7101 182.982 27.5122C183.25 27.3747 183.519 27.2338 183.787 27.0997C183.972 27.0058 184.156 26.9119 184.338 26.818H184.341C185.462 26.2545 186.576 25.7112 187.714 25.1947C189.482 24.3864 191.298 23.6419 193.231 22.9711C194.755 22.4379 196.349 21.9549 198.054 21.5223C214.955 17.226 240.23 18.5977 256.308 33.4686C269.404 45.586 272.565 63.1131 272.814 76.1863C272.931 82.562 272.361 87.8811 271.907 90.9868Z" fill="#FAFBFC"/>
<path d="M166.032 175.211C165.401 175.342 164.774 175.473 164.143 175.597H164.14C163.613 175.704 163.086 175.805 162.559 175.905C162.183 175.976 161.807 176.05 161.431 176.117C160.978 176.201 160.522 176.284 160.069 176.362C159.736 176.425 159.407 176.482 159.079 176.536C158.659 176.61 158.24 176.68 157.82 176.747C157.31 176.831 156.803 176.915 156.293 176.995C156.243 177.002 156.196 177.009 156.145 177.016C155.652 177.093 155.159 177.167 154.669 177.24C153.618 177.395 152.571 177.539 151.524 177.676C150.853 177.764 150.185 177.847 149.517 177.924C148.923 177.995 148.329 178.062 147.738 178.126C147.403 178.166 147.067 178.2 146.735 178.23C146.473 178.26 146.211 178.287 145.95 178.31C145.627 178.344 145.305 178.374 144.986 178.401C144.557 178.444 144.124 178.481 143.694 178.515C143.607 178.525 143.52 178.532 143.436 178.538C142.822 178.592 142.208 178.639 141.597 178.682C141.563 178.686 141.526 178.689 141.493 178.689C140.922 178.729 140.352 178.77 139.781 178.803C139.684 178.81 139.587 178.817 139.489 178.82C139.003 178.85 138.519 178.877 138.036 178.9C137.234 178.944 136.435 178.978 135.64 179.008C133.619 179.082 131.562 179.118 129.468 179.118C128.877 179.118 128.283 179.115 127.689 179.108C127.159 179.105 126.622 179.098 126.088 179.085C125.86 179.082 125.632 179.078 125.404 179.072C124.931 179.061 124.454 179.048 123.974 179.035C123.951 179.035 123.927 179.035 123.904 179.031C123.276 179.014 122.648 178.991 122.018 178.964C120.866 178.917 119.709 178.86 118.544 178.793C118.477 178.79 118.41 178.783 118.346 178.78C118.148 178.77 117.953 178.756 117.755 178.743C117.265 178.713 116.772 178.682 116.279 178.646C115.826 178.615 115.373 178.582 114.916 178.545C114.148 178.488 113.379 178.424 112.61 178.354C112.359 178.334 112.104 178.31 111.852 178.287C111.557 178.26 111.258 178.23 110.959 178.203C110.738 178.179 110.513 178.159 110.291 178.136C108.962 178.002 107.63 177.854 106.291 177.693C105.704 177.623 105.116 177.552 104.529 177.475C104.11 177.421 103.69 177.364 103.274 177.307C102.942 177.264 102.613 177.217 102.28 177.17C101.042 176.999 99.8037 176.811 98.5653 176.616C98.562 176.616 98.5586 176.616 98.5553 176.613C98.1592 176.553 97.7632 176.486 97.3672 176.422C96.9678 176.355 96.5685 176.288 96.1657 176.221C95.7798 176.154 95.3938 176.087 95.0079 176.016C94.2192 175.879 93.4305 175.734 92.6385 175.58C92.2526 175.51 91.87 175.436 91.4874 175.359C91.1786 175.302 90.8699 175.241 90.5645 175.178L91.2357 165.351L91.6048 160.002H99.0083L99.1392 159.998H99.2936L99.2969 160.002L129.122 159.995H129.931L130.404 159.992H135.845L135.851 159.988H136.398L136.449 159.992H153.497L156.501 159.985H159.757H164.14H164.455V159.995L165.093 166.122L165.727 172.243V172.27L165.73 172.283L165.787 172.857L166.032 175.211Z" fill="#939393"/>
<path d="M164.452 159.985L91.2363 165.348L91.6021 159.998L164.452 159.985Z" fill="#939393"/>
<path d="M128.854 172.81L130.129 172.813L130.065 159.968L128.783 159.961L128.854 172.81Z" fill="#263238"/>
<path d="M131.589 168.963C132.881 168.97 133.935 168.587 134.737 167.823C137.258 165.415 136.133 160.092 136.083 159.867L134.835 160.129C134.845 160.176 135.858 164.975 133.851 166.89C132.965 167.736 131.546 167.9 129.633 167.38L129.311 168.618C130.139 168.842 130.901 168.956 131.593 168.96L131.589 168.963Z" fill="#263238"/>
<path d="M90.9919 174.158C92.8915 174.165 94.4655 173.534 95.6737 172.273C99.3116 168.484 98.3249 160.314 98.2813 159.968L96.9993 160.112C97.0094 160.193 97.9524 168.028 94.7339 171.378C93.6365 172.522 92.2035 173.001 90.3543 172.844L90.2637 174.128C90.512 174.148 90.7537 174.158 90.9886 174.162L90.9919 174.158Z" fill="#263238"/>
<path d="M164.387 172.964C164.749 172.964 165.125 172.927 165.514 172.847L165.256 171.596C164.118 171.831 163.175 171.616 162.373 170.938C159.269 168.322 159.423 160.055 159.423 159.971L158.151 159.935C158.144 160.3 157.99 168.909 161.561 171.918C162.383 172.612 163.333 172.961 164.39 172.964H164.387Z" fill="#263238"/>
<path d="M197.474 109.439L174.528 127.942L164.618 108.138V159.995H91.6067V107.357L80.3941 125.336L57.707 104.751L80.4679 68.0061C80.9277 67.2649 81.4344 66.5606 81.9815 65.9033C85.5121 61.6573 90.7744 59.1487 96.3824 59.1487H159.252C164.987 59.1487 170.34 61.7714 173.847 66.1481C174.559 67.0302 175.19 67.9827 175.737 68.9989L197.474 109.439Z" fill="#263238"/>
<path d="M147.305 25.9726C147.305 25.9726 148.899 33.351 147.506 34.8066C146.113 36.2621 140.616 22.0452 147.305 25.9726Z" fill="#263238"/>
<path d="M126.576 17.303L145.434 22.9273C153.056 53.7993 139.568 53.6082 139.568 53.6082L140.018 58.3941C140.061 58.8569 140.071 59.3197 140.051 59.7826C139.803 65.3432 135.091 69.6495 129.526 69.398C123.962 69.1498 119.656 64.441 119.905 58.8804L120.831 38.1705L117.213 38.0095C114.183 37.8754 111.84 35.3097 111.974 32.2845C111.984 32.0867 112.001 31.8888 112.028 31.6909C112.518 28.1057 115.824 25.5936 119.415 26.0833L121.311 26.3415L126.576 17.303Z" fill="white"/>
<path d="M146.263 26.1805C146.226 26.1805 146.203 26.1805 146.186 26.1839C139.799 26.5461 132.191 25.2649 128.758 24.5942C127.748 24.3963 126.757 24.9497 126.348 25.8955C125.445 27.9849 123.928 29.863 122.73 31.1409C122.123 31.7915 121.032 31.3186 121.082 30.4298L121.264 27.2202C121.29 26.7239 120.931 26.2879 120.438 26.2208L119.418 26.0833C115.827 25.5936 112.521 28.1023 112.031 31.6875C112.004 31.8854 111.987 32.0833 111.977 32.2845C111.974 32.3684 111.971 32.4489 111.971 32.5327C111.971 35.4472 114.27 37.8787 117.216 38.0095L120.834 38.1705L120.441 46.9072C99.372 22.7865 116.055 10.8972 116.055 10.8972C116.018 8.85131 117.743 8.24762 119.314 8.12353C120.408 8.03633 121.482 8.33482 122.438 8.86808C125.771 10.7261 131.302 6.90274 137.114 5.43376C139.339 4.87367 147.518 2.80772 150.972 6.45333C155.663 11.4103 150.656 25.8955 146.263 26.1805Z" fill="#263238"/>
<path d="M115.024 33.0089C115.018 32.9921 114.497 31.1441 115.42 30.0642C116.034 29.3465 117.176 29.0849 118.823 29.2861L118.948 28.2733C116.937 28.0284 115.487 28.4074 114.638 29.4069C113.363 30.9127 114.014 33.2 114.044 33.2973L115.024 33.0089Z" fill="#263238"/>
<path d="M143.745 39.3814L140.47 32.3115L139.54 32.7408L142.406 38.9186L138.557 40.8839L139.02 41.7928L143.745 39.3814Z" fill="#263238"/>
<path d="M144.728 32.1806C144.798 32.9016 145.198 33.4517 145.617 33.4114C146.037 33.3678 146.322 32.7507 146.251 32.0296C146.235 31.8821 146.211 31.7379 146.167 31.6104C146.107 31.3924 146.01 31.2046 145.892 31.0671C145.58 31.047 145.261 31.0537 144.953 31.0772C144.855 31.2147 144.785 31.3991 144.748 31.6104C144.718 31.7848 144.711 31.976 144.728 32.1772V32.1806Z" fill="#263238"/>
<path d="M129.662 28.4008C129.631 28.2465 129.732 28.0922 129.886 28.062L135.494 26.9016C136.088 26.7775 136.686 27.0894 136.927 27.6428L137.042 27.9077C137.095 28.0285 137.119 28.1593 137.109 28.2901C137.079 28.7395 136.689 29.0816 136.236 29.0514L129.923 28.6322C129.792 28.6255 129.682 28.5282 129.658 28.4008H129.662Z" fill="#263238"/>
<path d="M148.002 27.6832C148.016 27.5457 147.915 27.4216 147.774 27.4082L142.78 26.9219C142.253 26.8716 141.76 27.1936 141.602 27.7L141.525 27.9415C141.488 28.0521 141.481 28.1695 141.501 28.2836C141.572 28.6726 141.941 28.9309 142.33 28.8604L147.791 27.9079C147.901 27.8878 147.989 27.7973 147.999 27.6832H148.002Z" fill="#263238"/>
<path d="M140.024 58.4545C136.064 57.9447 132.406 56.0732 129.678 53.1621C132.712 54.3259 139.571 53.6048 139.571 53.6048L140.028 58.4545H140.024Z" fill="#263238"/>
<path d="M172.274 0.416468C170.569 -0.187221 168.874 -0.0933143 167.334 0.433237C166.518 0.714958 166.146 1.66074 166.552 2.4187L166.565 2.44553C166.891 3.05593 167.606 3.31753 168.267 3.11295C169.122 2.84464 169.978 2.8111 170.837 3.11295C172.398 3.66968 172.962 4.97097 172.452 6.40641C171.633 8.72055 167.763 9.13642 166.021 12.0174C165.86 12.2857 165.783 12.5774 165.783 12.8692C165.783 13.5434 166.196 14.1873 166.887 14.4355C167.626 14.6971 168.468 14.4187 168.854 13.7379C170.468 10.924 174.697 10.7731 175.912 7.35889C177.08 4.07549 175.439 1.54335 172.27 0.419822L172.274 0.416468ZM166.105 16.5819C164.833 16.1292 163.494 16.7865 163.008 18.1549C162.531 19.4998 163.152 20.8547 164.427 21.3075C165.699 21.7602 167.038 21.1029 167.515 19.7546C168.002 18.3863 167.377 17.0313 166.102 16.5819H166.105Z" fill="#263238"/>
<path d="M94.6127 14.0934C93.4078 14.4992 92.5185 15.284 91.8943 16.2398C91.5654 16.7463 91.7701 17.4304 92.3238 17.6719L92.344 17.682C92.787 17.8765 93.2937 17.7122 93.5723 17.313C93.928 16.7966 94.3845 16.4075 94.9919 16.2029C96.0961 15.834 96.9686 16.3103 97.3076 17.3198C97.858 18.9531 95.9048 20.8547 96.19 23.1957C96.2169 23.4137 96.3008 23.6082 96.4283 23.7658C96.7203 24.1381 97.227 24.3158 97.717 24.1515C98.2372 23.9771 98.5795 23.4573 98.499 22.9173C98.1701 20.6669 100.439 18.7552 99.63 16.3471C98.8514 14.0297 96.8512 13.3421 94.616 14.0934H94.6127ZM98.2104 25.6808C97.3143 25.9827 96.8612 26.9218 97.1834 27.8877C97.5022 28.8368 98.4319 29.3164 99.3313 29.0112C100.227 28.7094 100.68 27.7703 100.362 26.8212C100.039 25.8552 99.1064 25.379 98.207 25.6808H98.2104Z" fill="#263238"/>
<path d="M140.379 46.4645L140.604 45.5724C139.456 45.2839 138.278 45.0592 137.11 44.905C135.959 44.7507 134.781 44.6601 133.62 44.6333L133.6 45.5523C134.727 45.5757 135.868 45.6663 136.989 45.8138C138.127 45.9648 139.268 46.1828 140.382 46.4645H140.379Z" fill="#263238"/>
<path d="M141.797 31.6373C141.797 31.6373 141.821 31.6373 141.831 31.6373L147.16 31.3992C147.362 31.3891 147.516 31.2215 147.506 31.0202C147.496 30.819 147.325 30.6647 147.127 30.6748L141.797 30.9129C141.596 30.923 141.442 31.0907 141.452 31.2919C141.462 31.4797 141.613 31.6306 141.797 31.6373Z" fill="#263238"/>
<path d="M133.782 32.2611C133.853 32.9822 134.252 33.5322 134.672 33.492C135.091 33.4484 135.377 32.8313 135.306 32.1102C135.289 31.9626 135.266 31.8184 135.222 31.691C135.162 31.473 135.064 31.2852 134.947 31.1477C134.635 31.1275 134.316 31.1342 134.007 31.1577C133.91 31.2952 133.839 31.4797 133.803 31.691C133.772 31.8654 133.766 32.0565 133.782 32.2578V32.2611Z" fill="#263238"/>
<path d="M130.952 31.7882C130.952 31.7882 130.975 31.7882 130.985 31.7882L136.315 31.5501C136.516 31.54 136.67 31.3723 136.66 31.1711C136.65 30.9699 136.479 30.8156 136.281 30.8257L130.952 31.0638C130.75 31.0738 130.596 31.2415 130.606 31.4428C130.616 31.6306 130.767 31.7815 130.952 31.7882Z" fill="#263238"/>
<path d="M164.617 95.1084L174.528 127.942L164.617 108.138V95.1084Z" fill="#263238"/>
<path d="M91.6052 95.1084L80.3926 125.336L91.6052 107.357V95.1084Z" fill="#263238"/>
<path d="M165.023 91.7212H164.211V108.138H165.023V91.7212Z" fill="#263238"/>
<path d="M92.0133 91.7212H91.2012V108.138H92.0133V91.7212Z" fill="#263238"/>
<path d="M29.1222 71.8321L77.3513 123.204L70.839 131.888C70.839 131.888 70.8389 131.888 70.8389 131.888C67.8883 135.82 62.0631 136.037 58.8325 132.333L58.8324 132.332L16.1167 83.3845L29.1222 71.8321Z" fill="white" stroke="#263238"/>
<path d="M175.033 127.476L181.534 136.273C184.729 140.596 191.115 140.831 194.616 136.753L237.063 87.3376L224.257 75.7937L175.033 127.473V127.476Z" fill="white" stroke="#263238"/>
<path d="M294.561 34.8784L259.78 9.12146C258.045 7.83669 255.596 8.20064 254.311 9.93438L218.29 58.51C217.005 60.2438 217.369 62.6908 219.104 63.9755L253.885 89.7325C255.619 91.0172 258.068 90.6533 259.354 88.9195L295.374 40.3439C296.66 38.6102 296.296 36.1632 294.561 34.8784Z" fill="#263238"/>
<path d="M253.302 84.4332C243.166 77.209 233.034 69.9849 222.899 62.7641C221.728 61.929 221.657 60.4567 222.718 59.474C236.746 46.5248 248.214 31.0603 256.53 13.882C257.151 12.5975 258.557 12.2286 259.695 13.0704C269.216 20.1235 278.741 27.1766 288.262 34.2264C289.376 35.0514 289.822 36.735 289.245 38.0195C281.479 55.3186 270.632 70.9508 257.282 84.1347C256.265 85.1408 254.466 85.2683 253.302 84.4365V84.4332Z" fill="#263238"/>
<path d="M252.547 82.2531C243.043 75.2168 233.542 68.1771 224.038 61.1408C222.9 60.299 222.846 58.8468 223.893 57.8775C237.422 45.3744 248.49 30.4532 256.521 13.8786C257.145 12.5941 258.548 12.2252 259.686 13.067C269.19 20.1033 278.691 27.143 288.196 34.1793C289.33 35.0212 289.77 36.7551 289.145 38.0396C281.111 54.6109 270.046 69.5354 256.518 82.0385C255.471 83.0077 253.682 83.0949 252.544 82.2531H252.547Z" fill="white"/>
<path d="M283.546 23.964L273.435 16.4759C272.9 16.08 272.146 16.1921 271.749 16.7264L268.439 21.1914C268.042 21.7256 268.155 22.4797 268.689 22.8756L278.801 30.3636C279.335 30.7595 280.09 30.6474 280.486 30.1131L283.797 25.6482C284.193 25.1139 284.081 24.3599 283.546 23.964Z" fill="#263238"/>
<path d="M280.589 41.4103C273.139 35.8932 265.692 30.3762 258.241 24.8592C257.738 24.4869 257.728 23.8564 258.1 23.3499C258.476 22.8469 259.084 22.6725 259.587 23.0447C267.037 28.5618 274.485 34.0788 281.935 39.5959C282.435 39.9648 282.64 40.7395 282.264 41.246C281.891 41.7524 281.089 41.7826 280.589 41.4103Z" fill="#263238"/>
<path d="M275.013 50.9015C267.563 45.3845 260.116 39.8674 252.665 34.3504C252.162 33.9781 252.152 33.3442 252.524 32.8411C252.9 32.3381 253.507 32.1637 254.011 32.5359C261.461 38.053 268.908 43.57 276.359 49.0871C276.859 49.456 277.064 50.2307 276.688 50.7372C276.315 51.2436 275.513 51.2738 275.013 50.9015Z" fill="#263238"/>
<path d="M268.49 59.692C261.039 54.175 253.592 48.6579 246.142 43.1409C245.638 42.7686 245.628 42.1347 246.001 41.6317C246.377 41.1286 246.984 40.9542 247.487 41.3265C254.938 46.8435 262.385 52.3606 269.835 57.8776C270.336 58.2465 270.54 59.0213 270.164 59.5277C269.792 60.0341 268.99 60.0643 268.49 59.692Z" fill="#263238"/>
<path d="M245.654 83.6483C242.741 86.1872 238.805 89.058 235.502 89.5007C229.408 90.3157 223.578 77.8361 223.578 77.8361C223.578 77.8361 223.541 74.6567 225.565 68.7707C226.119 67.1609 226.827 65.3465 227.73 63.3409C228.152 62.4018 229.183 61.882 230.193 62.11L234.838 63.1464L236.163 63.4415C236.237 63.4583 236.308 63.4784 236.375 63.5086C237.137 63.8238 237.435 64.8065 236.892 65.4773C236.314 66.1916 235.321 66.9127 233.62 67.124C233.264 67.171 232.878 67.1944 232.458 67.1877C232.458 67.1877 232.572 67.6774 232.666 68.3783C232.848 69.8305 232.921 72.2017 231.586 72.9898C231.586 72.9932 231.589 72.9966 231.592 72.9966C231.603 73.0066 231.609 73.0133 231.619 73.02L242.335 81.1665L243.48 82.0385L245.651 83.6483H245.654Z" fill="white" stroke="#263238"/>
<path d="M194.586 106.951L178.077 131.595L175.033 127.476L194.586 106.951Z" fill="white"/>
<path d="M60.0176 104.01L75.7139 126.225L78.0061 123.167L60.0176 104.01Z" fill="white"/>
<path d="M37.3476 47.0392L36.7865 46.3368C36.1493 45.5392 34.9858 45.4088 34.1876 46.0455L2.50639 71.3194C1.70824 71.9561 1.57773 73.1189 2.21488 73.9165L2.77602 74.619C3.41317 75.4166 4.57672 75.547 5.37487 74.9103L37.0561 49.6364C37.8543 48.9996 37.9848 47.8369 37.3476 47.0392Z" fill="#9BCFDC"/>
<path d="M27.6103 56.7644L25.1417 53.6741C24.4421 52.7983 23.1646 52.6551 22.2882 53.3543L1.58614 69.8695C0.709766 70.5686 0.566461 71.8453 1.26606 72.7211L3.73463 75.8114C4.43423 76.6872 5.71181 76.8304 6.58819 76.1312L27.2902 59.616C28.1666 58.9169 28.3099 57.6402 27.6103 56.7644Z" fill="#263238"/>
<path d="M43.8312 56.4489C52.2035 56.4489 58.9906 49.6663 58.9906 41.2996C58.9906 32.9329 52.2035 26.1504 43.8312 26.1504C35.4589 26.1504 28.6719 32.9329 28.6719 41.2996C28.6719 49.6663 35.4589 56.4489 43.8312 56.4489Z" fill="#9BCFDC"/>
<path d="M43.833 53.7355C50.7058 53.7355 56.2773 48.1677 56.2773 41.2995C56.2773 34.4313 50.7058 28.8635 43.833 28.8635C36.9602 28.8635 31.3887 34.4313 31.3887 41.2995C31.3887 48.1677 36.9602 53.7355 43.833 53.7355Z" fill="#263238"/>
<path d="M34.5211 38.174C34.3298 37.9358 34.2761 37.6038 34.4103 37.3053C34.9104 36.1717 36.4475 33.3746 39.874 31.9392C43.1965 30.544 46.1968 31.3254 47.3312 31.7245C47.7675 31.8788 48.0024 32.3618 47.8447 32.8011C47.6903 33.2405 47.207 33.4719 46.7674 33.3143C45.8176 32.9789 43.3039 32.3249 40.5251 33.492C37.659 34.696 36.3703 37.0337 35.9508 37.9861C35.7628 38.4121 35.2628 38.6033 34.8365 38.4154C34.709 38.3584 34.6016 38.2746 34.5177 38.1706L34.5211 38.174Z" fill="white"/>
<path d="M34.4016 45.3711C34.4016 45.3711 34.3748 45.3376 34.3647 45.3208C32.7874 43.0134 33.5291 40.545 33.5626 40.441C33.7002 39.9949 34.1734 39.7468 34.6198 39.8876C35.0628 40.0251 35.3111 40.4947 35.1769 40.9407C35.1534 41.0179 34.6567 42.7551 35.7609 44.3717C36.0226 44.7574 35.9253 45.2806 35.5394 45.5422C35.1735 45.7937 34.6768 45.7132 34.405 45.3711H34.4016Z" fill="white"/>
<path d="M32.0861 74.4577L30.0167 72.109C29.5267 71.6294 29.1978 71.009 29.0837 70.3315C28.5098 66.981 26.419 56.5439 22.5528 55.9268L20.9889 54.3606C20.3043 53.2068 18.2973 52.9419 17.1764 53.7099C16.2065 54.3706 15.2433 55.6887 15.7601 56.7451L15.8071 56.6143C15.8071 56.6143 11.2328 56.6646 10.7596 59.2102C10.7596 59.2102 6.74238 58.7071 6.16178 62.0911C5.61139 62.0509 3.80918 61.9838 2.59764 63.2113C2.59764 63.2113 2.03046 63.7848 1.76533 64.573C1.56061 65.1834 1.10419 67.246 8.08816 75.7244C9.84674 77.8575 10.7529 78.9508 12.0953 80.1951C13.6894 81.6741 14.4009 82.0296 15.7064 83.5288C16.2837 84.1895 19.7115 88.3005 19.7115 88.3005C21.1322 90.0123 21.4368 90.1542 22.8576 91.8661L32.2959 74.6674L32.0861 74.4577Z" fill="white" stroke="#263238"/>
<path d="M20.9112 69.4314C20.6629 69.6863 20.3675 69.9009 20.0152 70.0518C19.0553 70.4644 17.8807 70.2967 16.5215 69.5488L16.9242 68.8143C18.0451 69.4314 18.9714 69.5857 19.6829 69.2805C20.6058 68.8847 21.022 67.7578 21.1864 67.1206L21.9986 67.3319C21.8241 68.006 21.4985 68.8243 20.9112 69.428V69.4314Z" fill="#263238" stroke="white" stroke-width="0.5"/>
<path d="M23.25 69.7232C22.4647 69.4281 21.7767 68.6466 21.2095 67.4057C20.9142 66.7618 20.6524 65.9938 20.4309 65.1218C20.2597 64.4577 20.1456 63.8607 20.0718 63.4415L17.4876 64.9105C16.4909 65.5712 15.4438 65.8898 14.3967 65.8395C11.8494 65.712 10.2351 63.4683 10.1647 63.3711L9.90625 63.0055L22.2163 55.5063L22.6526 56.2207L11.1379 63.2369C11.6615 63.8171 12.8596 64.9239 14.4369 65.0044C15.2995 65.0446 16.1787 64.773 17.048 64.1995L20.7296 62.1L20.8068 62.7238C20.8068 62.7238 20.9343 63.7266 21.2397 64.9138C21.4478 65.7389 21.6928 66.46 21.968 67.0569C22.4412 68.0933 22.9681 68.7238 23.542 68.9418L23.2466 69.7266L23.25 69.7232Z" fill="#263238" stroke="white" stroke-width="0.5"/>
<path d="M16.3188 71.7022C16.2416 71.7827 16.1544 71.8598 16.0604 71.9302C15.2717 72.5239 14.1307 72.5742 12.6708 72.0845C12.6573 72.6781 12.5063 73.5468 11.8687 74.1639C11.1639 74.8414 10.0698 75.0292 8.61328 74.724L8.78108 73.9325C9.95571 74.1806 10.8048 74.0633 11.3048 73.5837C12.0432 72.876 11.8351 71.5714 11.8351 71.558L11.7176 70.8436L12.3889 71.1186C13.8555 71.7189 14.926 71.776 15.5738 71.2896C16.3624 70.696 16.349 69.388 16.3322 69.0459L14.1575 65.4875L14.8489 65.0649L17.1209 68.7843L17.131 68.8749C17.141 68.9554 17.3156 70.686 16.3188 71.7089V71.7022Z" fill="#263238" stroke="white" stroke-width="0.5"/>
<path d="M6.46865 62.0158L5.76562 62.4734L11.8032 71.7358L12.5062 71.2782L6.46865 62.0158Z" fill="#263238" stroke="white" stroke-width="0.5"/>
<path d="M16.0183 56.4273L15.3281 56.8486L16.8432 59.3272L17.5334 58.9058L16.0183 56.4273Z" fill="#263238" stroke="white" stroke-width="0.5"/>
<path d="M130.009 73.1576C123.666 73.1576 118.202 68.261 116.729 61.2481L116.303 59.2157L116.961 59.0782L117.387 61.1106C118.796 67.8082 123.988 72.4868 130.009 72.4868C135.369 72.4868 140.248 68.6366 142.148 62.9049L143.43 59.0447L144.067 59.256L142.785 63.1162C140.792 69.1229 135.657 73.1576 130.009 73.1576Z" fill="white"/>
<path d="M91.6074 115.942L96.0811 139.687C97.5577 147.522 103.995 153.468 111.925 154.32L164.619 159.995H91.6074V115.942Z" fill="#263238"/>
</svg>
