<svg width="31" height="23" viewBox="0 0 31 23" fill="none" xmlns="http://www.w3.org/2000/svg">
<path d="M26.1242 21.7333H5.46465C4.72681 21.7333 4.13654 21.2906 3.98897 20.5528L1.03761 5.79597C0.890037 5.20569 1.18517 4.61542 1.77545 4.17272C2.21815 3.87758 2.95599 4.02515 3.3987 4.32029L9.449 9.19004L14.4663 1.66406C15.0566 0.778648 16.3847 0.778648 16.975 1.66406L21.9923 9.19004L28.0426 4.32029C28.4853 3.87758 29.2231 3.87758 29.6658 4.17272C30.2561 4.46785 30.4037 5.05813 30.4037 5.79597L27.4523 20.5528C27.4523 21.2906 26.8621 21.7333 26.1242 21.7333ZM6.6452 18.782H24.9437L26.8621 9.19004L22.5826 12.5841C22.2874 12.8792 21.8447 12.8792 21.402 12.8792C20.9593 12.8792 20.6642 12.5841 20.369 12.289L15.7944 5.2057L11.0722 12.289C10.7771 12.5841 10.482 12.8792 10.0393 12.8792C9.59656 12.8792 9.15386 12.8792 8.85872 12.5841L4.57924 9.19004L6.6452 18.782Z" fill="#08A87C" stroke="white" stroke-width="1.1"/>
</svg>
