<svg width="20" height="20" viewBox="0 0 20 20" fill="none" xmlns="http://www.w3.org/2000/svg">
<path d="M18.8466 18.1064L14.7568 14.0165C16.012 12.5851 16.7046 10.7739 16.7046 8.85231C16.7046 6.75479 15.8877 4.78302 14.4047 3.29997C12.9216 1.81693 10.9498 1 8.85231 1C6.75479 1 4.78302 1.81693 3.29997 3.29997C1.81693 4.78302 1 6.75479 1 8.85231C1 10.9498 1.81693 12.9216 3.29997 14.4047C4.78302 15.8877 6.75479 16.7046 8.85231 16.7046C10.7739 16.7046 12.5851 16.012 14.0165 14.7568L18.1064 18.8466C18.2086 18.9489 18.3426 19 18.4765 19C18.6105 19 18.7444 18.9489 18.8466 18.8466C19.0511 18.6421 19.0511 18.3109 18.8466 18.1064ZM4.04022 13.6644C2.75501 12.379 2.04698 10.67 2.04698 8.85231C2.04698 7.03468 2.75501 5.32567 4.04022 4.04022C5.32567 2.75501 7.03468 2.04698 8.85231 2.04698C10.67 2.04698 12.379 2.75501 13.6644 4.04022C14.9496 5.32567 15.6577 7.03468 15.6577 8.85231C15.6577 10.67 14.9496 12.379 13.6644 13.6644C12.379 14.9496 10.67 15.6577 8.85231 15.6577C7.03468 15.6577 5.32567 14.9496 4.04022 13.6644Z" fill="#939393" stroke="#939393" stroke-width="0.5"/>
</svg>
