<svg width="27" height="28" viewBox="0 0 27 28" fill="none" xmlns="http://www.w3.org/2000/svg">
<path d="M13.6306 5.58337C9.06997 5.58337 5.35938 9.29365 5.35938 13.8546C5.35938 16.9135 7.04937 19.7051 9.70964 21.1166V23.8716C9.70964 24.3458 10.094 24.7301 10.5682 24.7301H16.6929C17.1671 24.7301 17.5515 24.346 17.5515 23.8716V21.1378C20.2115 19.6896 21.9015 16.8885 21.9015 13.8546C21.9015 9.29397 18.1912 5.58337 13.6306 5.58337ZM16.3337 19.829C16.0295 19.9692 15.8343 20.2737 15.8343 20.6089V23.013H11.4269V20.5803C11.4269 20.2412 11.2268 19.9335 10.9169 19.7958C8.58404 18.7589 7.07664 16.4266 7.07664 13.8546C7.07664 10.2407 10.0168 7.30058 13.6306 7.30058C17.2445 7.30058 20.1844 10.2407 20.1844 13.8546C20.1843 16.4063 18.6729 18.7515 16.3337 19.829Z" fill="#08A87C"/>
<path d="M16.1197 25.4744H11.1398C10.6656 25.4744 10.2812 25.8587 10.2812 26.3329C10.2812 26.8072 10.6656 27.1915 11.1398 27.1915H16.1197C16.5939 27.1915 16.9783 26.8072 16.9783 26.3329C16.9783 25.8587 16.594 25.4744 16.1197 25.4744Z" fill="#08A87C"/>
<path d="M14.4985 0.288696H12.7812V3.86619H14.4985V0.288696Z" fill="#08A87C"/>
<path d="M3.85093 12.7958H0.273438V14.513H3.85093V12.7958Z" fill="#08A87C"/>
<path d="M26.9994 12.7955H23.4219V14.5127H26.9994V12.7955Z" fill="#08A87C"/>
<path d="M4.79331 3.59908L3.58594 4.82019L6.13318 7.33878L7.34055 6.11767L4.79331 3.59908Z" fill="#08A87C"/>
<path d="M22.473 3.59994L19.9258 6.11853L21.1332 7.33964L23.6804 4.82105L22.473 3.59994Z" fill="#08A87C"/>
</svg>
